<svg width="268" height="80" viewBox="0 0 268 80" fill="none" xmlns="http://www.w3.org/2000/svg">
<g clip-path="url(#clip0_72_2264)">
<rect width="268" height="80" fill="#E2F2FB"/>
<path d="M8 0H0V80H8V0Z" fill="#1B86C3"/>
<path d="M29.584 34H27.536V24.304H24.256V22.576H32.864V24.304H29.584V34ZM36.437 24.736C36.437 25.0773 36.421 25.4133 36.389 25.744C36.3677 26.064 36.3463 26.304 36.325 26.464H36.453C36.6343 26.1653 36.8583 25.9253 37.125 25.744C37.3917 25.552 37.685 25.408 38.005 25.312C38.3357 25.216 38.677 25.168 39.029 25.168C39.6797 25.168 40.2397 25.28 40.709 25.504C41.1783 25.728 41.5357 26.0747 41.781 26.544C42.037 27.0027 42.165 27.6053 42.165 28.352V34H40.149V28.752C40.149 28.1013 40.021 27.616 39.765 27.296C39.509 26.9653 39.1037 26.8 38.549 26.8C38.0157 26.8 37.5943 26.9173 37.285 27.152C36.9757 27.376 36.757 27.712 36.629 28.16C36.501 28.5973 36.437 29.1307 36.437 29.76V34H34.421V21.84H36.437V24.736ZM46.7026 25.328V34H44.6866V25.328H46.7026ZM45.6946 21.984C45.9933 21.984 46.2546 22.064 46.4786 22.224C46.7026 22.3733 46.8146 22.6453 46.8146 23.04C46.8146 23.424 46.7026 23.7013 46.4786 23.872C46.2546 24.032 45.9933 24.112 45.6946 24.112C45.3853 24.112 45.1186 24.032 44.8946 23.872C44.6813 23.7013 44.5746 23.424 44.5746 23.04C44.5746 22.6453 44.6813 22.3733 44.8946 22.224C45.1186 22.064 45.3853 21.984 45.6946 21.984ZM55.1844 31.488C55.1844 32.064 55.0457 32.5547 54.7684 32.96C54.491 33.3547 54.0804 33.6533 53.5364 33.856C53.003 34.0587 52.347 34.16 51.5684 34.16C50.9604 34.16 50.4377 34.1173 50.0004 34.032C49.563 33.9467 49.147 33.8133 48.7524 33.632V31.92C49.179 32.1227 49.6537 32.2933 50.1764 32.432C50.699 32.5707 51.1844 32.64 51.6324 32.64C52.187 32.64 52.587 32.5547 52.8324 32.384C53.0777 32.2133 53.2004 31.984 53.2004 31.696C53.2004 31.5253 53.1524 31.3707 53.0564 31.232C52.9604 31.0933 52.7737 30.9493 52.4964 30.8C52.219 30.64 51.7977 30.4427 51.2324 30.208C50.6777 29.984 50.2137 29.76 49.8404 29.536C49.4777 29.312 49.2004 29.0453 49.0084 28.736C48.827 28.416 48.7364 28.016 48.7364 27.536C48.7364 26.7573 49.0457 26.1707 49.6644 25.776C50.283 25.3707 51.099 25.168 52.1124 25.168C52.6457 25.168 53.147 25.2213 53.6164 25.328C54.0964 25.424 54.5764 25.584 55.0564 25.808L54.4164 27.296C54.0217 27.1253 53.627 26.9813 53.2324 26.864C52.8484 26.7467 52.4537 26.688 52.0484 26.688C51.611 26.688 51.2804 26.7573 51.0564 26.896C50.8324 27.024 50.7204 27.2053 50.7204 27.44C50.7204 27.6213 50.7737 27.7813 50.8804 27.92C50.9977 28.048 51.195 28.1813 51.4724 28.32C51.7604 28.448 52.1657 28.6187 52.6884 28.832C53.211 29.0347 53.6537 29.248 54.0164 29.472C54.3897 29.6853 54.6777 29.952 54.8804 30.272C55.083 30.592 55.1844 30.9973 55.1844 31.488ZM67.4244 30.272C67.371 30.0693 67.307 29.8187 67.2324 29.52C67.1577 29.2107 67.0777 28.8907 66.9924 28.56C66.9177 28.2293 66.843 27.9253 66.7684 27.648C66.7044 27.3707 66.6617 27.1573 66.6404 27.008H66.5764C66.5444 27.1573 66.4964 27.3707 66.4324 27.648C66.3684 27.9253 66.299 28.2293 66.2244 28.56C66.1497 28.8907 66.0697 29.2107 65.9844 29.52C65.9097 29.8293 65.8457 30.0853 65.7924 30.288L64.7844 34H62.5764L60.1444 25.312H62.1764L63.2484 29.456C63.323 29.7333 63.3924 30.048 63.4564 30.4C63.531 30.752 63.595 31.0933 63.6484 31.424C63.7017 31.744 63.739 32.0053 63.7604 32.208H63.8244C63.8457 32.0693 63.8724 31.888 63.9044 31.664C63.9364 31.4293 63.9737 31.1893 64.0164 30.944C64.0697 30.688 64.1177 30.4533 64.1604 30.24C64.2137 30.0267 64.2564 29.8613 64.2884 29.744L65.5364 25.312H67.7444L68.9444 29.744C68.9977 29.936 69.0564 30.1867 69.1204 30.496C69.1844 30.8053 69.243 31.1147 69.2964 31.424C69.3497 31.7333 69.3817 31.9893 69.3924 32.192H69.4564C69.4777 32.0107 69.515 31.7653 69.5684 31.456C69.6217 31.136 69.6857 30.7947 69.7604 30.432C69.835 30.0693 69.915 29.744 70.0004 29.456L71.0884 25.312H73.0884L70.6244 34H68.3844L67.4244 30.272ZM76.5776 25.328V34H74.5616V25.328H76.5776ZM75.5696 21.984C75.8683 21.984 76.1296 22.064 76.3536 22.224C76.5776 22.3733 76.6896 22.6453 76.6896 23.04C76.6896 23.424 76.5776 23.7013 76.3536 23.872C76.1296 24.032 75.8683 24.112 75.5696 24.112C75.2603 24.112 74.9936 24.032 74.7696 23.872C74.5563 23.7013 74.4496 23.424 74.4496 23.04C74.4496 22.6453 74.5563 22.3733 74.7696 22.224C74.9936 22.064 75.2603 21.984 75.5696 21.984ZM81.1714 34H79.1554V21.84H81.1714V34ZM85.7651 34H83.7491V21.84H85.7651V34ZM95.9551 25.168C97.0751 25.168 97.9231 25.4133 98.4991 25.904C99.0858 26.384 99.3791 27.1413 99.3791 28.176V34H97.9551L97.5551 32.8H97.4911C97.2458 33.1093 96.9898 33.3707 96.7231 33.584C96.4671 33.7867 96.1685 33.9307 95.8271 34.016C95.4965 34.112 95.0911 34.16 94.6111 34.16C94.0991 34.16 93.6351 34.064 93.2191 33.872C92.8138 33.68 92.4938 33.3867 92.2591 32.992C92.0245 32.5867 91.9071 32.08 91.9071 31.472C91.9071 30.576 92.2325 29.904 92.8831 29.456C93.5445 28.9973 94.5418 28.7467 95.8751 28.704L97.3791 28.656V28.224C97.3791 27.6693 97.2458 27.2747 96.9791 27.04C96.7125 26.8053 96.3391 26.688 95.8591 26.688C95.4218 26.688 95.0005 26.752 94.5951 26.88C94.1898 27.008 93.7951 27.1573 93.4111 27.328L92.7711 25.92C93.1978 25.696 93.6831 25.5147 94.2271 25.376C94.7818 25.2373 95.3578 25.168 95.9551 25.168ZM96.3231 29.936C95.4378 29.968 94.8245 30.1227 94.4831 30.4C94.1418 30.6667 93.9711 31.0293 93.9711 31.488C93.9711 31.8933 94.0938 32.1867 94.3391 32.368C94.5845 32.5493 94.8991 32.64 95.2831 32.64C95.8698 32.64 96.3658 32.4747 96.7711 32.144C97.1765 31.8027 97.3791 31.3013 97.3791 30.64V29.904L96.3231 29.936ZM106.465 25.168C107.479 25.168 108.295 25.5467 108.913 26.304C109.532 27.0507 109.841 28.1653 109.841 29.648C109.841 30.6293 109.697 31.456 109.409 32.128C109.121 32.8 108.721 33.3067 108.209 33.648C107.697 33.9893 107.1 34.16 106.417 34.16C106.001 34.16 105.633 34.1067 105.313 34C104.993 33.8827 104.721 33.7387 104.497 33.568C104.273 33.3867 104.081 33.1947 103.921 32.992H103.793C103.836 33.184 103.868 33.4027 103.889 33.648C103.911 33.8827 103.921 34.1067 103.921 34.32V37.84H101.905V25.328H103.537L103.825 26.48H103.921C104.081 26.2347 104.273 26.016 104.497 25.824C104.732 25.6213 105.009 25.4613 105.329 25.344C105.66 25.2267 106.039 25.168 106.465 25.168ZM105.889 26.8C105.42 26.8 105.041 26.896 104.753 27.088C104.465 27.2693 104.257 27.552 104.129 27.936C104.001 28.32 103.932 28.8 103.921 29.376V29.632C103.921 30.2507 103.98 30.7733 104.097 31.2C104.225 31.6267 104.433 31.952 104.721 32.176C105.02 32.4 105.42 32.512 105.921 32.512C106.348 32.512 106.695 32.3947 106.961 32.16C107.239 31.9253 107.441 31.5947 107.569 31.168C107.708 30.7307 107.777 30.2133 107.777 29.616C107.777 28.72 107.623 28.0267 107.313 27.536C107.015 27.0453 106.54 26.8 105.889 26.8ZM116.481 25.168C117.494 25.168 118.31 25.5467 118.929 26.304C119.548 27.0507 119.857 28.1653 119.857 29.648C119.857 30.6293 119.713 31.456 119.425 32.128C119.137 32.8 118.737 33.3067 118.225 33.648C117.713 33.9893 117.116 34.16 116.433 34.16C116.017 34.16 115.649 34.1067 115.329 34C115.009 33.8827 114.737 33.7387 114.513 33.568C114.289 33.3867 114.097 33.1947 113.937 32.992H113.809C113.852 33.184 113.884 33.4027 113.905 33.648C113.926 33.8827 113.937 34.1067 113.937 34.32V37.84H111.921V25.328H113.553L113.841 26.48H113.937C114.097 26.2347 114.289 26.016 114.513 25.824C114.748 25.6213 115.025 25.4613 115.345 25.344C115.676 25.2267 116.054 25.168 116.481 25.168ZM115.905 26.8C115.436 26.8 115.057 26.896 114.769 27.088C114.481 27.2693 114.273 27.552 114.145 27.936C114.017 28.32 113.948 28.8 113.937 29.376V29.632C113.937 30.2507 113.996 30.7733 114.113 31.2C114.241 31.6267 114.449 31.952 114.737 32.176C115.036 32.4 115.436 32.512 115.937 32.512C116.364 32.512 116.71 32.3947 116.977 32.16C117.254 31.9253 117.457 31.5947 117.585 31.168C117.724 30.7307 117.793 30.2133 117.793 29.616C117.793 28.72 117.638 28.0267 117.329 27.536C117.03 27.0453 116.556 26.8 115.905 26.8ZM125.425 25.168C126.203 25.168 126.87 25.328 127.425 25.648C127.99 25.9573 128.427 26.4053 128.737 26.992C129.046 27.568 129.201 28.272 129.201 29.104V30.128H123.473C123.494 30.9173 123.713 31.5307 124.129 31.968C124.545 32.3947 125.121 32.608 125.857 32.608C126.422 32.608 126.923 32.5547 127.361 32.448C127.809 32.3307 128.267 32.1653 128.737 31.952V33.568C128.31 33.7707 127.867 33.92 127.409 34.016C126.95 34.112 126.401 34.16 125.761 34.16C124.918 34.16 124.166 34 123.505 33.68C122.854 33.3493 122.342 32.8533 121.969 32.192C121.606 31.5307 121.425 30.7093 121.425 29.728C121.425 28.736 121.59 27.904 121.921 27.232C122.262 26.5493 122.731 26.0373 123.329 25.696C123.926 25.344 124.625 25.168 125.425 25.168ZM125.425 26.656C124.891 26.656 124.454 26.832 124.113 27.184C123.782 27.5253 123.585 28.0373 123.521 28.72H127.249C127.249 28.3147 127.179 27.9573 127.041 27.648C126.913 27.3387 126.715 27.0987 126.449 26.928C126.182 26.7467 125.841 26.656 125.425 26.656ZM134.69 25.168C135.81 25.168 136.658 25.4133 137.234 25.904C137.82 26.384 138.114 27.1413 138.114 28.176V34H136.69L136.29 32.8H136.226C135.98 33.1093 135.724 33.3707 135.458 33.584C135.202 33.7867 134.903 33.9307 134.562 34.016C134.231 34.112 133.826 34.16 133.346 34.16C132.834 34.16 132.37 34.064 131.954 33.872C131.548 33.68 131.228 33.3867 130.993 32.992C130.759 32.5867 130.642 32.08 130.642 31.472C130.642 30.576 130.967 29.904 131.618 29.456C132.279 28.9973 133.276 28.7467 134.61 28.704L136.114 28.656V28.224C136.114 27.6693 135.98 27.2747 135.714 27.04C135.447 26.8053 135.074 26.688 134.594 26.688C134.156 26.688 133.735 26.752 133.33 26.88C132.924 27.008 132.53 27.1573 132.146 27.328L131.506 25.92C131.932 25.696 132.418 25.5147 132.962 25.376C133.516 25.2373 134.092 25.168 134.69 25.168ZM135.058 29.936C134.172 29.968 133.559 30.1227 133.218 30.4C132.876 30.6667 132.706 31.0293 132.706 31.488C132.706 31.8933 132.828 32.1867 133.074 32.368C133.319 32.5493 133.634 32.64 134.018 32.64C134.604 32.64 135.1 32.4747 135.506 32.144C135.911 31.8027 136.114 31.3013 136.114 30.64V29.904L135.058 29.936ZM145.184 25.168C145.312 25.168 145.461 25.1733 145.632 25.184C145.802 25.1947 145.946 25.216 146.064 25.248L145.888 27.12C145.792 27.0987 145.664 27.0827 145.504 27.072C145.354 27.0507 145.221 27.04 145.104 27.04C144.784 27.04 144.474 27.0933 144.176 27.2C143.888 27.296 143.626 27.4453 143.392 27.648C143.168 27.84 142.986 28.0907 142.848 28.4C142.72 28.7093 142.656 29.0773 142.656 29.504V34H140.64V25.328H142.192L142.48 26.832H142.576C142.746 26.5227 142.96 26.2453 143.216 26C143.472 25.744 143.765 25.5413 144.096 25.392C144.437 25.2427 144.8 25.168 145.184 25.168ZM159.571 29.648C159.571 30.3733 159.475 31.0133 159.283 31.568C159.091 32.1227 158.814 32.5973 158.451 32.992C158.099 33.376 157.662 33.6693 157.139 33.872C156.627 34.064 156.051 34.16 155.411 34.16C154.825 34.16 154.281 34.064 153.779 33.872C153.278 33.6693 152.841 33.376 152.467 32.992C152.105 32.5973 151.822 32.1227 151.619 31.568C151.417 31.0133 151.315 30.3733 151.315 29.648C151.315 28.688 151.481 27.8773 151.811 27.216C152.142 26.544 152.617 26.0373 153.235 25.696C153.865 25.344 154.606 25.168 155.459 25.168C156.27 25.168 156.979 25.344 157.587 25.696C158.206 26.0373 158.691 26.544 159.043 27.216C159.395 27.8773 159.571 28.688 159.571 29.648ZM153.379 29.648C153.379 30.256 153.449 30.7787 153.587 31.216C153.737 31.6427 153.961 31.968 154.259 32.192C154.569 32.416 154.963 32.528 155.443 32.528C155.934 32.528 156.329 32.416 156.627 32.192C156.937 31.968 157.161 31.6427 157.299 31.216C157.438 30.7787 157.507 30.256 157.507 29.648C157.507 29.0293 157.433 28.512 157.283 28.096C157.145 27.6693 156.921 27.3493 156.611 27.136C156.313 26.912 155.918 26.8 155.427 26.8C154.713 26.8 154.19 27.0453 153.859 27.536C153.539 28.0267 153.379 28.7307 153.379 29.648ZM166.295 25.168C167.266 25.168 168.023 25.4187 168.567 25.92C169.122 26.4213 169.399 27.232 169.399 28.352V34H167.383V28.752C167.383 28.1013 167.255 27.616 166.999 27.296C166.743 26.9653 166.338 26.8 165.783 26.8C164.973 26.8 164.418 27.056 164.119 27.568C163.821 28.0693 163.671 28.8 163.671 29.76V34H161.655V25.328H163.207L163.495 26.464H163.607C163.799 26.1653 164.034 25.92 164.311 25.728C164.589 25.536 164.898 25.3973 165.239 25.312C165.581 25.216 165.933 25.168 166.295 25.168ZM178.093 24.736C178.093 25.0773 178.077 25.4133 178.045 25.744C178.024 26.064 178.003 26.304 177.981 26.464H178.109C178.291 26.1653 178.515 25.9253 178.781 25.744C179.048 25.552 179.341 25.408 179.661 25.312C179.992 25.216 180.333 25.168 180.685 25.168C181.336 25.168 181.896 25.28 182.365 25.504C182.835 25.728 183.192 26.0747 183.437 26.544C183.693 27.0027 183.821 27.6053 183.821 28.352V34H181.805V28.752C181.805 28.1013 181.677 27.616 181.421 27.296C181.165 26.9653 180.76 26.8 180.205 26.8C179.672 26.8 179.251 26.9173 178.941 27.152C178.632 27.376 178.413 27.712 178.285 28.16C178.157 28.5973 178.093 29.1307 178.093 29.76V34H176.077V21.84H178.093V24.736ZM189.831 25.168C190.61 25.168 191.276 25.328 191.831 25.648C192.396 25.9573 192.834 26.4053 193.143 26.992C193.452 27.568 193.607 28.272 193.607 29.104V30.128H187.879C187.9 30.9173 188.119 31.5307 188.535 31.968C188.951 32.3947 189.527 32.608 190.263 32.608C190.828 32.608 191.33 32.5547 191.767 32.448C192.215 32.3307 192.674 32.1653 193.143 31.952V33.568C192.716 33.7707 192.274 33.92 191.815 34.016C191.356 34.112 190.807 34.16 190.167 34.16C189.324 34.16 188.572 34 187.911 33.68C187.26 33.3493 186.748 32.8533 186.375 32.192C186.012 31.5307 185.831 30.7093 185.831 29.728C185.831 28.736 185.996 27.904 186.327 27.232C186.668 26.5493 187.138 26.0373 187.735 25.696C188.332 25.344 189.031 25.168 189.831 25.168ZM189.831 26.656C189.298 26.656 188.86 26.832 188.519 27.184C188.188 27.5253 187.991 28.0373 187.927 28.72H191.655C191.655 28.3147 191.586 27.9573 191.447 27.648C191.319 27.3387 191.122 27.0987 190.855 26.928C190.588 26.7467 190.247 26.656 189.831 26.656ZM199.096 25.168C200.216 25.168 201.064 25.4133 201.64 25.904C202.226 26.384 202.52 27.1413 202.52 28.176V34H201.096L200.696 32.8H200.632C200.386 33.1093 200.13 33.3707 199.864 33.584C199.608 33.7867 199.309 33.9307 198.968 34.016C198.637 34.112 198.232 34.16 197.752 34.16C197.24 34.16 196.776 34.064 196.36 33.872C195.954 33.68 195.634 33.3867 195.4 32.992C195.165 32.5867 195.048 32.08 195.048 31.472C195.048 30.576 195.373 29.904 196.024 29.456C196.685 28.9973 197.682 28.7467 199.016 28.704L200.52 28.656V28.224C200.52 27.6693 200.386 27.2747 200.12 27.04C199.853 26.8053 199.48 26.688 199 26.688C198.562 26.688 198.141 26.752 197.736 26.88C197.33 27.008 196.936 27.1573 196.552 27.328L195.912 25.92C196.338 25.696 196.824 25.5147 197.368 25.376C197.922 25.2373 198.498 25.168 199.096 25.168ZM199.464 29.936C198.578 29.968 197.965 30.1227 197.624 30.4C197.282 30.6667 197.112 31.0293 197.112 31.488C197.112 31.8933 197.234 32.1867 197.48 32.368C197.725 32.5493 198.04 32.64 198.424 32.64C199.01 32.64 199.506 32.4747 199.912 32.144C200.317 31.8027 200.52 31.3013 200.52 30.64V29.904L199.464 29.936ZM207.91 34.16C206.907 34.16 206.091 33.7867 205.462 33.04C204.843 32.2827 204.534 31.1627 204.534 29.68C204.534 28.1973 204.849 27.0773 205.478 26.32C206.107 25.552 206.934 25.168 207.958 25.168C208.385 25.168 208.758 25.2267 209.078 25.344C209.409 25.4507 209.691 25.6 209.926 25.792C210.161 25.984 210.358 26.1973 210.518 26.432H210.614C210.582 26.2827 210.55 26.0533 210.518 25.744C210.486 25.4347 210.47 25.1467 210.47 24.88V21.84H212.486V34H210.918L210.55 32.864H210.47C210.31 33.0987 210.113 33.3173 209.878 33.52C209.643 33.712 209.366 33.8667 209.046 33.984C208.726 34.1013 208.347 34.16 207.91 34.16ZM208.518 32.528C209.265 32.528 209.793 32.3147 210.102 31.888C210.411 31.4613 210.566 30.816 210.566 29.952V29.696C210.566 28.7573 210.417 28.0427 210.118 27.552C209.83 27.0613 209.286 26.816 208.486 26.816C207.878 26.816 207.409 27.072 207.078 27.584C206.747 28.0853 206.582 28.7947 206.582 29.712C206.582 30.6293 206.747 31.328 207.078 31.808C207.409 32.288 207.889 32.528 208.518 32.528ZM218.55 25.168C219.328 25.168 219.995 25.328 220.55 25.648C221.115 25.9573 221.552 26.4053 221.862 26.992C222.171 27.568 222.326 28.272 222.326 29.104V30.128H216.598C216.619 30.9173 216.838 31.5307 217.254 31.968C217.67 32.3947 218.246 32.608 218.982 32.608C219.547 32.608 220.048 32.5547 220.486 32.448C220.934 32.3307 221.392 32.1653 221.862 31.952V33.568C221.435 33.7707 220.992 33.92 220.534 34.016C220.075 34.112 219.526 34.16 218.886 34.16C218.043 34.16 217.291 34 216.63 33.68C215.979 33.3493 215.467 32.8533 215.094 32.192C214.731 31.5307 214.55 30.7093 214.55 29.728C214.55 28.736 214.715 27.904 215.046 27.232C215.387 26.5493 215.856 26.0373 216.454 25.696C217.051 25.344 217.75 25.168 218.55 25.168ZM218.55 26.656C218.016 26.656 217.579 26.832 217.238 27.184C216.907 27.5253 216.71 28.0373 216.646 28.72H220.374C220.374 28.3147 220.304 27.9573 220.166 27.648C220.038 27.3387 219.84 27.0987 219.574 26.928C219.307 26.7467 218.966 26.656 218.55 26.656ZM228.903 25.168C229.031 25.168 229.18 25.1733 229.351 25.184C229.521 25.1947 229.665 25.216 229.783 25.248L229.607 27.12C229.511 27.0987 229.383 27.0827 229.223 27.072C229.073 27.0507 228.94 27.04 228.823 27.04C228.503 27.04 228.193 27.0933 227.895 27.2C227.607 27.296 227.345 27.4453 227.111 27.648C226.887 27.84 226.705 28.0907 226.567 28.4C226.439 28.7093 226.375 29.0773 226.375 29.504V34H224.359V25.328H225.911L226.199 26.832H226.295C226.465 26.5227 226.679 26.2453 226.935 26C227.191 25.744 227.484 25.5413 227.815 25.392C228.156 25.2427 228.519 25.168 228.903 25.168Z" fill="#1A1A1A"/>
<path d="M28.528 52.192L31.504 46.576H33.056L29.248 53.568V58H27.808V53.632L24 46.576H25.568L28.528 52.192ZM41.0816 53.696C41.0816 54.4107 40.9856 55.0453 40.7936 55.6C40.6123 56.144 40.3456 56.608 39.9936 56.992C39.6523 57.376 39.231 57.6693 38.7296 57.872C38.239 58.064 37.6896 58.16 37.0816 58.16C36.5163 58.16 35.9936 58.064 35.5136 57.872C35.0336 57.6693 34.6176 57.376 34.2656 56.992C33.9136 56.608 33.6363 56.144 33.4336 55.6C33.2416 55.0453 33.1456 54.4107 33.1456 53.696C33.1456 52.7467 33.3056 51.9467 33.6256 51.296C33.9456 50.6347 34.4043 50.1333 35.0016 49.792C35.599 49.44 36.3083 49.264 37.1296 49.264C37.9083 49.264 38.591 49.44 39.1776 49.792C39.775 50.1333 40.239 50.6347 40.5696 51.296C40.911 51.9467 41.0816 52.7467 41.0816 53.696ZM34.6016 53.696C34.6016 54.368 34.687 54.9547 34.8576 55.456C35.039 55.9467 35.3163 56.3253 35.6896 56.592C36.063 56.8587 36.5376 56.992 37.1136 56.992C37.6896 56.992 38.1643 56.8587 38.5376 56.592C38.911 56.3253 39.183 55.9467 39.3536 55.456C39.535 54.9547 39.6256 54.368 39.6256 53.696C39.6256 53.0133 39.535 52.432 39.3536 51.952C39.1723 51.472 38.895 51.104 38.5216 50.848C38.159 50.5813 37.6843 50.448 37.0976 50.448C36.223 50.448 35.5883 50.736 35.1936 51.312C34.799 51.888 34.6016 52.6827 34.6016 53.696ZM50.4811 49.424V58H49.3291L49.1211 56.864H49.0571C48.8758 57.1627 48.6411 57.408 48.3531 57.6C48.0651 57.792 47.7505 57.9307 47.4091 58.016C47.0678 58.112 46.7105 58.16 46.3371 58.16C45.6545 58.16 45.0785 58.0533 44.6091 57.84C44.1505 57.616 43.8038 57.2747 43.5691 56.816C43.3345 56.3573 43.2171 55.7653 43.2171 55.04V49.424H44.6411V54.944C44.6411 55.6267 44.7958 56.1387 45.1051 56.48C45.4145 56.8213 45.8945 56.992 46.5451 56.992C47.1851 56.992 47.6865 56.8747 48.0491 56.64C48.4225 56.3947 48.6838 56.0427 48.8331 55.584C48.9931 55.1147 49.0731 54.5493 49.0731 53.888V49.424H50.4811ZM60.608 49.28C61.6533 49.28 62.4267 49.5093 62.928 49.968C63.4293 50.4267 63.68 51.1573 63.68 52.16V58H62.656L62.384 56.784H62.32C62.0747 57.0933 61.8187 57.3547 61.552 57.568C61.296 57.7707 60.9973 57.92 60.656 58.016C60.3253 58.112 59.92 58.16 59.44 58.16C58.928 58.16 58.464 58.0693 58.048 57.888C57.6427 57.7067 57.3227 57.4293 57.088 57.056C56.8533 56.672 56.736 56.192 56.736 55.616C56.736 54.7627 57.072 54.1067 57.744 53.648C58.416 53.1787 59.4507 52.9227 60.848 52.88L62.304 52.832V52.32C62.304 51.6053 62.1493 51.1093 61.84 50.832C61.5307 50.5547 61.0933 50.416 60.528 50.416C60.08 50.416 59.6533 50.4853 59.248 50.624C58.8427 50.752 58.464 50.9013 58.112 51.072L57.68 50.016C58.0533 49.8133 58.496 49.6427 59.008 49.504C59.52 49.3547 60.0533 49.28 60.608 49.28ZM61.024 53.856C59.9573 53.8987 59.216 54.0693 58.8 54.368C58.3947 54.6667 58.192 55.088 58.192 55.632C58.192 56.112 58.336 56.464 58.624 56.688C58.9227 56.912 59.3013 57.024 59.76 57.024C60.4853 57.024 61.088 56.8267 61.568 56.432C62.048 56.0267 62.288 55.408 62.288 54.576V53.808L61.024 53.856ZM67.7368 58H66.3288V45.84H67.7368V58ZM75.9898 53.152C75.9258 52.928 75.8618 52.7093 75.7978 52.496C75.7338 52.272 75.6751 52.064 75.6218 51.872C75.5791 51.6693 75.5364 51.4827 75.4938 51.312C75.4511 51.1413 75.4191 50.9973 75.3978 50.88H75.3338C75.3124 50.9973 75.2804 51.1413 75.2378 51.312C75.2058 51.4827 75.1631 51.6693 75.1098 51.872C75.0671 52.0747 75.0138 52.288 74.9498 52.512C74.8964 52.7253 74.8324 52.944 74.7578 53.168L73.2218 57.984H71.6218L69.2698 49.408H70.7258L71.9098 53.984C71.9951 54.2933 72.0751 54.608 72.1498 54.928C72.2244 55.2373 72.2884 55.536 72.3418 55.824C72.4058 56.1013 72.4484 56.3413 72.4698 56.544H72.5338C72.5658 56.416 72.6031 56.256 72.6458 56.064C72.6884 55.872 72.7311 55.6693 72.7738 55.456C72.8271 55.2427 72.8804 55.0293 72.9338 54.816C72.9978 54.6027 73.0564 54.4107 73.1098 54.24L74.6298 49.408H76.1658L77.6378 54.24C77.7124 54.4853 77.7871 54.7467 77.8618 55.024C77.9471 55.3013 78.0218 55.5733 78.0858 55.84C78.1498 56.096 78.1924 56.3253 78.2138 56.528H78.2778C78.2991 56.3467 78.3364 56.1227 78.3898 55.856C78.4538 55.5787 78.5231 55.28 78.5978 54.96C78.6831 54.6293 78.7684 54.304 78.8538 53.984L80.0538 49.408H81.4938L79.1098 57.984H77.4618L75.9898 53.152ZM86.2799 49.28C87.3252 49.28 88.0985 49.5093 88.5999 49.968C89.1012 50.4267 89.3519 51.1573 89.3519 52.16V58H88.3279L88.0559 56.784H87.9919C87.7465 57.0933 87.4905 57.3547 87.2239 57.568C86.9679 57.7707 86.6692 57.92 86.3279 58.016C85.9972 58.112 85.5919 58.16 85.1119 58.16C84.5999 58.16 84.1359 58.0693 83.7199 57.888C83.3145 57.7067 82.9945 57.4293 82.7599 57.056C82.5252 56.672 82.4079 56.192 82.4079 55.616C82.4079 54.7627 82.7439 54.1067 83.4159 53.648C84.0879 53.1787 85.1225 52.9227 86.5199 52.88L87.9759 52.832V52.32C87.9759 51.6053 87.8212 51.1093 87.5119 50.832C87.2025 50.5547 86.7652 50.416 86.1999 50.416C85.7519 50.416 85.3252 50.4853 84.9199 50.624C84.5145 50.752 84.1359 50.9013 83.7839 51.072L83.3519 50.016C83.7252 49.8133 84.1679 49.6427 84.6799 49.504C85.1919 49.3547 85.7252 49.28 86.2799 49.28ZM86.6959 53.856C85.6292 53.8987 84.8879 54.0693 84.4719 54.368C84.0665 54.6667 83.8639 55.088 83.8639 55.632C83.8639 56.112 84.0079 56.464 84.2959 56.688C84.5945 56.912 84.9732 57.024 85.4319 57.024C86.1572 57.024 86.7599 56.8267 87.2399 56.432C87.7199 56.0267 87.9599 55.408 87.9599 54.576V53.808L86.6959 53.856ZM90.6566 49.424H92.1606L94.0166 54.304C94.1233 54.592 94.2193 54.8693 94.3046 55.136C94.4006 55.4027 94.486 55.664 94.5606 55.92C94.6353 56.1653 94.694 56.4053 94.7366 56.64H94.8006C94.8646 56.3733 94.966 56.0267 95.1046 55.6C95.2433 55.1627 95.3873 54.7253 95.5366 54.288L97.2806 49.424H98.8006L95.1046 59.184C94.902 59.7173 94.662 60.1813 94.3846 60.576C94.118 60.9813 93.7873 61.2907 93.3926 61.504C93.0086 61.728 92.5393 61.84 91.9846 61.84C91.7286 61.84 91.5046 61.824 91.3126 61.792C91.1206 61.7707 90.9553 61.744 90.8166 61.712V60.592C90.934 60.6133 91.0726 60.6347 91.2326 60.656C91.4033 60.6773 91.5793 60.688 91.7606 60.688C92.0913 60.688 92.374 60.624 92.6086 60.496C92.854 60.3787 93.062 60.2027 93.2326 59.968C93.4033 59.744 93.5473 59.4773 93.6646 59.168L94.1126 58.032L90.6566 49.424ZM105.741 55.632C105.741 56.1867 105.602 56.6507 105.325 57.024C105.048 57.3973 104.653 57.68 104.141 57.872C103.629 58.064 103.021 58.16 102.317 58.16C101.72 58.16 101.202 58.112 100.765 58.016C100.338 57.92 99.9595 57.7867 99.6289 57.616V56.336C99.9702 56.5067 100.381 56.6667 100.861 56.816C101.352 56.9547 101.848 57.024 102.349 57.024C103.064 57.024 103.581 56.912 103.901 56.688C104.221 56.4533 104.381 56.144 104.381 55.76C104.381 55.5467 104.322 55.3547 104.205 55.184C104.088 55.0133 103.874 54.8427 103.565 54.672C103.266 54.5013 102.834 54.3093 102.269 54.096C101.714 53.8827 101.24 53.6693 100.845 53.456C100.45 53.2427 100.146 52.9867 99.9329 52.688C99.7195 52.3893 99.6129 52.0053 99.6129 51.536C99.6129 50.8107 99.9062 50.2507 100.493 49.856C101.09 49.4613 101.869 49.264 102.829 49.264C103.352 49.264 103.837 49.3173 104.285 49.424C104.744 49.52 105.17 49.6587 105.565 49.84L105.085 50.96C104.722 50.8107 104.344 50.6827 103.949 50.576C103.554 50.4693 103.149 50.416 102.733 50.416C102.157 50.416 101.714 50.512 101.405 50.704C101.106 50.8853 100.957 51.136 100.957 51.456C100.957 51.6907 101.026 51.8933 101.165 52.064C101.304 52.224 101.533 52.384 101.853 52.544C102.184 52.6933 102.621 52.8747 103.165 53.088C103.709 53.2907 104.173 53.4987 104.557 53.712C104.941 53.9253 105.234 54.1867 105.437 54.496C105.64 54.7947 105.741 55.1733 105.741 55.632ZM115.409 58.16C114.652 58.16 113.975 58.0053 113.377 57.696C112.791 57.3867 112.327 56.9067 111.985 56.256C111.655 55.6053 111.489 54.7733 111.489 53.76C111.489 52.704 111.665 51.8453 112.017 51.184C112.369 50.5227 112.844 50.0373 113.441 49.728C114.049 49.4187 114.737 49.264 115.505 49.264C115.943 49.264 116.364 49.312 116.769 49.408C117.175 49.4933 117.505 49.6 117.761 49.728L117.329 50.896C117.073 50.8 116.775 50.7093 116.433 50.624C116.092 50.5387 115.772 50.496 115.473 50.496C114.897 50.496 114.423 50.6187 114.049 50.864C113.676 51.1093 113.399 51.472 113.217 51.952C113.036 52.432 112.945 53.0293 112.945 53.744C112.945 54.4267 113.036 55.008 113.217 55.488C113.399 55.968 113.671 56.3307 114.033 56.576C114.396 56.8213 114.849 56.944 115.393 56.944C115.863 56.944 116.273 56.896 116.625 56.8C116.988 56.704 117.319 56.5867 117.617 56.448V57.696C117.329 57.8453 117.009 57.9573 116.657 58.032C116.316 58.1173 115.9 58.16 115.409 58.16ZM122.905 49.28C123.95 49.28 124.724 49.5093 125.225 49.968C125.726 50.4267 125.977 51.1573 125.977 52.16V58H124.953L124.681 56.784H124.617C124.372 57.0933 124.116 57.3547 123.849 57.568C123.593 57.7707 123.294 57.92 122.953 58.016C122.622 58.112 122.217 58.16 121.737 58.16C121.225 58.16 120.761 58.0693 120.345 57.888C119.94 57.7067 119.62 57.4293 119.385 57.056C119.15 56.672 119.033 56.192 119.033 55.616C119.033 54.7627 119.369 54.1067 120.041 53.648C120.713 53.1787 121.748 52.9227 123.145 52.88L124.601 52.832V52.32C124.601 51.6053 124.446 51.1093 124.137 50.832C123.828 50.5547 123.39 50.416 122.825 50.416C122.377 50.416 121.95 50.4853 121.545 50.624C121.14 50.752 120.761 50.9013 120.409 51.072L119.977 50.016C120.35 49.8133 120.793 49.6427 121.305 49.504C121.817 49.3547 122.35 49.28 122.905 49.28ZM123.321 53.856C122.254 53.8987 121.513 54.0693 121.097 54.368C120.692 54.6667 120.489 55.088 120.489 55.632C120.489 56.112 120.633 56.464 120.921 56.688C121.22 56.912 121.598 57.024 122.057 57.024C122.782 57.024 123.385 56.8267 123.865 56.432C124.345 56.0267 124.585 55.408 124.585 54.576V53.808L123.321 53.856ZM132.754 49.264C133.778 49.264 134.551 49.5147 135.074 50.016C135.596 50.5067 135.858 51.3067 135.858 52.416V58H134.466V52.512C134.466 51.8187 134.311 51.3013 134.002 50.96C133.692 50.6187 133.207 50.448 132.546 50.448C131.596 50.448 130.94 50.7147 130.578 51.248C130.215 51.7813 130.034 52.5493 130.034 53.552V58H128.626V49.424H129.762L129.97 50.592H130.05C130.242 50.2933 130.476 50.048 130.754 49.856C131.042 49.6533 131.356 49.504 131.698 49.408C132.039 49.312 132.391 49.264 132.754 49.264ZM146.113 58.16C145.355 58.16 144.678 58.0053 144.081 57.696C143.494 57.3867 143.03 56.9067 142.689 56.256C142.358 55.6053 142.193 54.7733 142.193 53.76C142.193 52.704 142.369 51.8453 142.721 51.184C143.073 50.5227 143.547 50.0373 144.145 49.728C144.753 49.4187 145.441 49.264 146.209 49.264C146.646 49.264 147.067 49.312 147.473 49.408C147.878 49.4933 148.209 49.6 148.465 49.728L148.033 50.896C147.777 50.8 147.478 50.7093 147.137 50.624C146.795 50.5387 146.475 50.496 146.177 50.496C145.601 50.496 145.126 50.6187 144.753 50.864C144.379 51.1093 144.102 51.472 143.921 51.952C143.739 52.432 143.649 53.0293 143.649 53.744C143.649 54.4267 143.739 55.008 143.921 55.488C144.102 55.968 144.374 56.3307 144.737 56.576C145.099 56.8213 145.553 56.944 146.097 56.944C146.566 56.944 146.977 56.896 147.329 56.8C147.691 56.704 148.022 56.5867 148.321 56.448V57.696C148.033 57.8453 147.713 57.9573 147.361 58.032C147.019 58.1173 146.603 58.16 146.113 58.16ZM151.768 49.408C151.768 49.6107 151.757 49.8187 151.736 50.032C151.725 50.2453 151.709 50.4373 151.688 50.608H151.784C151.965 50.3093 152.195 50.064 152.472 49.872C152.749 49.68 153.059 49.536 153.4 49.44C153.741 49.3333 154.093 49.28 154.456 49.28C155.149 49.28 155.725 49.392 156.184 49.616C156.653 49.8293 157.005 50.1653 157.24 50.624C157.475 51.0827 157.592 51.68 157.592 52.416V58H156.2V52.512C156.2 51.8187 156.045 51.3013 155.736 50.96C155.427 50.6187 154.941 50.448 154.28 50.448C153.64 50.448 153.139 50.5707 152.776 50.816C152.413 51.0507 152.152 51.4027 151.992 51.872C151.843 52.3307 151.768 52.896 151.768 53.568V58H150.36V45.84H151.768V49.408ZM163.499 49.28C164.544 49.28 165.317 49.5093 165.819 49.968C166.32 50.4267 166.571 51.1573 166.571 52.16V58H165.547L165.275 56.784H165.211C164.965 57.0933 164.709 57.3547 164.443 57.568C164.187 57.7707 163.888 57.92 163.547 58.016C163.216 58.112 162.811 58.16 162.331 58.16C161.819 58.16 161.355 58.0693 160.939 57.888C160.533 57.7067 160.213 57.4293 159.979 57.056C159.744 56.672 159.627 56.192 159.627 55.616C159.627 54.7627 159.963 54.1067 160.635 53.648C161.307 53.1787 162.341 52.9227 163.739 52.88L165.195 52.832V52.32C165.195 51.6053 165.04 51.1093 164.731 50.832C164.421 50.5547 163.984 50.416 163.419 50.416C162.971 50.416 162.544 50.4853 162.139 50.624C161.733 50.752 161.355 50.9013 161.003 51.072L160.571 50.016C160.944 49.8133 161.387 49.6427 161.899 49.504C162.411 49.3547 162.944 49.28 163.499 49.28ZM163.915 53.856C162.848 53.8987 162.107 54.0693 161.691 54.368C161.285 54.6667 161.083 55.088 161.083 55.632C161.083 56.112 161.227 56.464 161.515 56.688C161.813 56.912 162.192 57.024 162.651 57.024C163.376 57.024 163.979 56.8267 164.459 56.432C164.939 56.0267 165.179 55.408 165.179 54.576V53.808L163.915 53.856ZM173.347 49.264C174.371 49.264 175.145 49.5147 175.667 50.016C176.19 50.5067 176.451 51.3067 176.451 52.416V58H175.059V52.512C175.059 51.8187 174.905 51.3013 174.595 50.96C174.286 50.6187 173.801 50.448 173.139 50.448C172.19 50.448 171.534 50.7147 171.171 51.248C170.809 51.7813 170.627 52.5493 170.627 53.552V58H169.219V49.424H170.355L170.563 50.592H170.643C170.835 50.2933 171.07 50.048 171.347 49.856C171.635 49.6533 171.95 49.504 172.291 49.408C172.633 49.312 172.985 49.264 173.347 49.264ZM182.15 49.264C182.715 49.264 183.222 49.3707 183.67 49.584C184.129 49.7973 184.518 50.1227 184.838 50.56H184.918L185.11 49.424H186.23V58.144C186.23 58.9547 186.091 59.632 185.814 60.176C185.537 60.7307 185.115 61.1467 184.55 61.424C183.985 61.7013 183.265 61.84 182.39 61.84C181.771 61.84 181.201 61.792 180.678 61.696C180.166 61.6107 179.707 61.4773 179.302 61.296V60C179.707 60.2133 180.182 60.3787 180.726 60.496C181.27 60.6133 181.851 60.672 182.47 60.672C183.206 60.672 183.782 60.4533 184.198 60.016C184.625 59.5893 184.838 59.0027 184.838 58.256V57.92C184.838 57.792 184.843 57.6107 184.854 57.376C184.865 57.1307 184.875 56.96 184.886 56.864H184.822C184.523 57.3013 184.15 57.6267 183.702 57.84C183.265 58.0533 182.753 58.16 182.166 58.16C181.057 58.16 180.187 57.7707 179.558 56.992C178.939 56.2133 178.63 55.1253 178.63 53.728C178.63 52.3627 178.939 51.28 179.558 50.48C180.187 49.6693 181.051 49.264 182.15 49.264ZM182.342 50.448C181.862 50.448 181.451 50.576 181.11 50.832C180.779 51.088 180.523 51.4613 180.342 51.952C180.171 52.4427 180.086 53.04 180.086 53.744C180.086 54.8 180.278 55.6107 180.662 56.176C181.057 56.7307 181.627 57.008 182.374 57.008C182.811 57.008 183.185 56.9547 183.494 56.848C183.803 56.7307 184.059 56.5547 184.262 56.32C184.465 56.0747 184.614 55.7653 184.71 55.392C184.806 55.0187 184.854 54.576 184.854 54.064V53.728C184.854 52.9493 184.763 52.32 184.582 51.84C184.411 51.36 184.139 51.008 183.766 50.784C183.393 50.56 182.918 50.448 182.342 50.448ZM192.266 49.264C193.002 49.264 193.631 49.424 194.154 49.744C194.687 50.064 195.092 50.5173 195.37 51.104C195.658 51.68 195.802 52.3573 195.802 53.136V53.984H189.93C189.951 54.9547 190.196 55.696 190.666 56.208C191.146 56.7093 191.812 56.96 192.666 56.96C193.21 56.96 193.69 56.912 194.106 56.816C194.532 56.7093 194.97 56.56 195.418 56.368V57.6C194.98 57.792 194.548 57.9307 194.122 58.016C193.695 58.112 193.188 58.16 192.602 58.16C191.791 58.16 191.071 57.9947 190.442 57.664C189.823 57.3333 189.338 56.8427 188.986 56.192C188.644 55.5307 188.474 54.7253 188.474 53.776C188.474 52.8373 188.628 52.032 188.938 51.36C189.258 50.688 189.7 50.1707 190.266 49.808C190.842 49.4453 191.508 49.264 192.266 49.264ZM192.25 50.416C191.578 50.416 191.044 50.6347 190.65 51.072C190.266 51.4987 190.036 52.096 189.962 52.864H194.33C194.33 52.3733 194.255 51.9467 194.106 51.584C193.956 51.2213 193.727 50.9387 193.418 50.736C193.119 50.5227 192.73 50.416 192.25 50.416ZM203.549 49.424V58H202.141V49.424H203.549ZM202.861 46.208C203.075 46.208 203.261 46.2827 203.421 46.432C203.592 46.5707 203.677 46.7947 203.677 47.104C203.677 47.4027 203.592 47.6267 203.421 47.776C203.261 47.9253 203.075 48 202.861 48C202.627 48 202.429 47.9253 202.269 47.776C202.109 47.6267 202.029 47.4027 202.029 47.104C202.029 46.7947 202.109 46.5707 202.269 46.432C202.429 46.2827 202.627 46.208 202.861 46.208ZM209.13 57.008C209.344 57.008 209.562 56.992 209.786 56.96C210.01 56.9173 210.192 56.8747 210.33 56.832V57.904C210.181 57.9787 209.968 58.0373 209.69 58.08C209.413 58.1333 209.146 58.16 208.89 58.16C208.442 58.16 208.026 58.0853 207.642 57.936C207.269 57.776 206.965 57.504 206.73 57.12C206.496 56.736 206.378 56.1973 206.378 55.504V50.512H205.162V49.84L206.394 49.28L206.954 47.456H207.786V49.424H210.266V50.512H207.786V55.472C207.786 55.9947 207.909 56.384 208.154 56.64C208.41 56.8853 208.736 57.008 209.13 57.008ZM211.84 57.136C211.84 56.7413 211.936 56.464 212.128 56.304C212.32 56.144 212.549 56.064 212.816 56.064C213.093 56.064 213.328 56.144 213.52 56.304C213.722 56.464 213.824 56.7413 213.824 57.136C213.824 57.52 213.722 57.7973 213.52 57.968C213.328 58.1387 213.093 58.224 212.816 58.224C212.549 58.224 212.32 58.1387 212.128 57.968C211.936 57.7973 211.84 57.52 211.84 57.136Z" fill="#1A1A1A"/>
</g>
<defs>
<clipPath id="clip0_72_2264">
<rect width="268" height="80" fill="white"/>
</clipPath>
</defs>
</svg>
