<svg width="118" height="40" viewBox="0 0 118 40" fill="none" xmlns="http://www.w3.org/2000/svg">
<rect x="1" y="1" width="116" height="38" rx="3" fill="#DDE5EE"/>
<rect x="1" y="1" width="116" height="38" rx="3" stroke="#5A7AA2" stroke-width="2"/>
<path d="M22.93 16.46C22.6967 16.292 22.4447 16.1613 22.174 16.068C21.9033 15.9747 21.6187 15.928 21.32 15.928C20.8627 15.928 20.48 16.012 20.172 16.18C19.864 16.3387 19.612 16.5907 19.416 16.936C19.22 17.2813 19.066 17.7387 18.954 18.308L17.834 23.978L16.602 23.796L17.722 18.056C17.8713 17.3187 18.0953 16.7167 18.394 16.25C18.702 15.7833 19.0987 15.438 19.584 15.214C20.0693 14.9807 20.648 14.864 21.32 14.864C21.74 14.864 22.1413 14.92 22.524 15.032C22.9067 15.1347 23.266 15.3073 23.602 15.55L22.93 16.46ZM16.602 23.796L17.064 22.774L21.166 23.6C21.6607 23.6933 22.0573 23.8333 22.356 24.02C22.6547 24.2067 22.8693 24.44 23 24.72C23.1307 25 23.196 25.3267 23.196 25.7V26.316H21.936V25.868C21.936 25.5133 21.8427 25.2333 21.656 25.028C21.4787 24.8227 21.2267 24.6873 20.9 24.622L16.602 23.796ZM26.8571 25.126C26.1198 25.126 25.5318 24.916 25.0931 24.496C24.6544 24.076 24.4351 23.446 24.4351 22.606V18.112H25.6811V22.368C25.6811 22.956 25.8164 23.3947 26.0871 23.684C26.3671 23.964 26.7218 24.104 27.1511 24.104C27.7298 24.104 28.1918 23.9033 28.5371 23.502C28.8918 23.1007 29.0691 22.4753 29.0691 21.626V18.112H30.3151V22.368C30.3151 22.76 30.3758 23.0867 30.4971 23.348C30.6278 23.6 30.8051 23.7913 31.0291 23.922C31.2531 24.0433 31.5051 24.104 31.7851 24.104C32.1584 24.104 32.4851 24.0153 32.7651 23.838C33.0544 23.6607 33.2784 23.39 33.4371 23.026C33.6051 22.6527 33.6891 22.186 33.6891 21.626V18.112H34.9351V25H33.9691L33.8011 23.88H33.7311C33.6191 24.104 33.4651 24.3093 33.2691 24.496C33.0731 24.6827 32.8304 24.8367 32.5411 24.958C32.2518 25.07 31.9018 25.126 31.4911 25.126C30.9778 25.126 30.5298 25.0187 30.1471 24.804C29.7644 24.5893 29.4891 24.2673 29.3211 23.838H29.2511C29.0738 24.2113 28.7704 24.5193 28.3411 24.762C27.9118 25.0047 27.4171 25.126 26.8571 25.126ZM39.12 27.324H42.872V28.304H38.294C37.9393 28.304 37.664 28.234 37.468 28.094C37.2813 27.954 37.188 27.7347 37.188 27.436C37.188 27.352 37.202 27.254 37.23 27.142C37.258 27.0393 37.314 26.918 37.398 26.778C37.482 26.638 37.608 26.4793 37.776 26.302L40.002 23.894C40.394 23.474 40.716 23.096 40.968 22.76C41.22 22.4147 41.4067 22.0927 41.528 21.794C41.6493 21.4953 41.71 21.192 41.71 20.884C41.71 20.2493 41.5513 19.778 41.234 19.47C40.9167 19.1527 40.478 18.994 39.918 18.994C39.3673 18.994 38.9287 19.1573 38.602 19.484C38.2847 19.8107 38.126 20.2773 38.126 20.884C38.126 21.3133 38.196 21.654 38.336 21.906C38.476 22.1487 38.7233 22.382 39.078 22.606C39.302 22.746 39.4933 22.8907 39.652 23.04C39.8107 23.18 39.9413 23.3293 40.044 23.488C40.156 23.6373 40.24 23.8007 40.296 23.978L39.596 24.65C39.54 24.5007 39.4607 24.3513 39.358 24.202C39.2553 24.0527 39.1107 23.8987 38.924 23.74C38.7373 23.572 38.4853 23.3993 38.168 23.222C37.7293 22.9607 37.4027 22.648 37.188 22.284C36.9827 21.9107 36.88 21.4393 36.88 20.87C36.88 20.2913 36.9967 19.7873 37.23 19.358C37.4727 18.9193 37.8227 18.5787 38.28 18.336C38.7373 18.0933 39.2833 17.972 39.918 17.972C40.9073 17.972 41.6633 18.224 42.186 18.728C42.718 19.232 42.984 19.9413 42.984 20.856C42.984 21.2573 42.8953 21.654 42.718 22.046C42.5407 22.438 42.2793 22.858 41.934 23.306C41.5887 23.7447 41.1593 24.2347 40.646 24.776L39.12 26.386C38.98 26.5353 38.882 26.6567 38.826 26.75C38.77 26.8527 38.742 26.9507 38.742 27.044C38.742 27.1373 38.7653 27.2073 38.812 27.254C38.868 27.3007 38.9707 27.324 39.12 27.324ZM44.6164 25V18.112H45.5964L45.7504 19.33H45.8204C45.9418 19.078 46.1051 18.8493 46.3104 18.644C46.5251 18.4387 46.7818 18.2753 47.0804 18.154C47.3791 18.0327 47.7244 17.972 48.1164 17.972C48.6298 17.972 49.0684 18.07 49.4324 18.266C49.8058 18.462 50.0904 18.756 50.2864 19.148C50.4918 19.5307 50.5944 20.016 50.5944 20.604V25H49.3484V20.842C49.3484 20.2073 49.2084 19.7407 48.9284 19.442C48.6578 19.1433 48.2891 18.994 47.8224 18.994C47.4304 18.994 47.0851 19.092 46.7864 19.288C46.4971 19.4747 46.2684 19.764 46.1004 20.156C45.9418 20.548 45.8624 21.038 45.8624 21.626V25H44.6164ZM52.97 28.304V18.112H53.95L54.104 19.33H54.174C54.2953 19.078 54.4586 18.8493 54.664 18.644C54.8786 18.4387 55.1353 18.2753 55.434 18.154C55.7326 18.0327 56.078 17.972 56.47 17.972C56.9833 17.972 57.422 18.07 57.786 18.266C58.1593 18.462 58.444 18.756 58.64 19.148C58.8453 19.5307 58.948 20.016 58.948 20.604V25H57.702V20.842C57.702 20.2073 57.562 19.7407 57.282 19.442C57.0113 19.1433 56.6426 18.994 56.176 18.994C55.784 18.994 55.4386 19.092 55.14 19.288C54.8506 19.4747 54.622 19.764 54.454 20.156C54.2953 20.548 54.216 21.038 54.216 21.626V28.304H52.97ZM66.0555 28.304V20.842C66.0555 20.2073 65.9155 19.7407 65.6355 19.442C65.3648 19.1433 64.9961 18.994 64.5295 18.994C63.9135 18.994 63.4328 19.2133 63.0875 19.652C62.7421 20.0813 62.5695 20.7393 62.5695 21.626V25H61.3235V18.112H62.3035L62.4575 19.33H62.5275C62.6488 19.078 62.8075 18.8493 63.0035 18.644C63.2088 18.4387 63.4608 18.2753 63.7595 18.154C64.0581 18.0327 64.4128 17.972 64.8235 17.972C65.3368 17.972 65.7755 18.07 66.1395 18.266C66.5128 18.462 66.7975 18.756 66.9935 19.148C67.1988 19.5307 67.3015 20.016 67.3015 20.604V24.02H68.9955V25H67.3015V28.304H66.0555Z" fill="#1A1A1A"/>
<path d="M88 14L86.59 15.41L91.17 20L86.59 24.59L88 26L94 20L88 14Z" fill="#1A1A1A"/>
</svg>
