<svg width="96" height="91" viewBox="0 0 96 91" fill="none" xmlns="http://www.w3.org/2000/svg">
<path d="M5.79533 21.5112C6.24556 21.807 7.76926 20.5595 9.09182 19.0816C9.28635 18.7141 9.50318 18.3589 9.74111 18.0177C9.69942 18.0177 9.65773 18.0312 9.61709 18.0312C9.43259 18.0355 9.25105 17.9845 9.09599 17.8849C8.6791 17.6119 8.56446 17.1231 8.60615 16.5564C8.6118 16.5517 8.61551 16.545 8.61657 16.5377C7.69527 17.4246 6.83654 18.3737 6.0465 19.3784C6.05715 19.3743 6.06651 19.3675 6.0736 19.3587C5.64838 20.3986 5.46808 21.2964 5.79533 21.5112Z" fill="#A3A2A2"/>
<path d="M11.2367 17.3298C11.229 17.3485 11.2192 17.3662 11.2075 17.3827C10.4404 18.2732 9.26586 19.9898 9.3753 20.8077C9.37994 20.8681 9.39842 20.9266 9.42931 20.9788C9.46021 21.031 9.50269 21.0754 9.55351 21.1087C9.9829 21.3972 11.5337 20.323 12.9928 18.9707C12.7825 18.9736 12.5762 18.9144 12.3998 18.8004C12.2503 18.7003 12.1244 18.569 12.031 18.4156C11.9376 18.2621 11.8789 18.0903 11.8589 17.912C11.8099 17.5384 11.9006 17.1046 12.0673 16.6593C11.8024 16.8972 11.5252 17.121 11.2367 17.3298Z" fill="#A3A2A2"/>
<path d="M8.61075 20.9343C8.13655 22.4911 6.28352 27.7749 2.12305 31.3577C3.09438 31.4262 4.71188 31.3857 6.13865 30.6146C9.08704 29.0214 12.0875 23.8881 12.7473 22.7143C12.3179 22.1133 12.5388 21.062 12.9119 20.0978C11.8697 21.007 10.6003 21.913 9.69256 21.913C9.48935 21.9187 9.28928 21.8622 9.11935 21.7511C8.98141 21.6585 8.86476 21.5378 8.77709 21.397C8.68942 21.2562 8.63273 21.0985 8.61075 20.9343Z" fill="#A3A2A2"/>
<path d="M9.53135 17.2381C9.992 17.5401 11.9232 15.948 13.6908 13.8079C13.4304 13.5892 13.1967 13.3409 12.9946 13.0679C12.9946 13.0679 12.9946 13.0679 12.9946 13.0616C12.8018 13.1862 12.6069 13.3149 12.412 13.4498C11.4181 14.1323 10.4662 14.8737 9.56157 15.6698C9.57485 15.6646 9.58717 15.6572 9.59805 15.648C9.33542 16.4347 9.26559 17.0627 9.53135 17.2381Z" fill="#A3A2A2"/>
<path d="M16.658 23.9773C16.6184 23.9589 16.5801 23.9377 16.5433 23.914C15.8649 23.4667 15.9024 22.6187 16.1598 21.8009C15.326 22.5139 14.3672 23.1501 13.6054 23.1501C13.5379 23.1497 13.4706 23.1434 13.4042 23.1315C12.8122 24.1911 10.6945 27.8175 8.22656 30.0437C12.6424 30.8128 15.8159 25.5591 16.658 23.9773Z" fill="#A3A2A2"/>
<path d="M14.6046 18.3978C14.5981 18.4171 14.5901 18.4358 14.5806 18.4538C14.5782 18.4649 14.5747 18.4757 14.5702 18.486C13.6207 20.0771 12.9412 22.0003 13.4394 22.3262C13.9063 22.6375 15.4039 21.5426 16.7307 20.1912C16.6864 20.1712 16.6439 20.1476 16.6035 20.1207C15.7625 19.5654 16.0626 18.1632 16.5524 16.9313C15.949 17.4777 15.297 17.9685 14.6046 18.3978Z" fill="#A3A2A2"/>
<path d="M14.2189 57.5477C11.2737 49.4896 7.9553 41.772 8.66191 32.8006C8.71715 31.8323 9.84377 31.8551 9.78436 32.8649C8.96207 41.5831 12.4076 49.197 15.283 57.1585C17.0475 56.1206 17.5206 54.3894 16.6848 51.9141C14.5264 44.4705 12.3701 37.2406 13.5582 29.1763C12.3294 30.1737 10.8485 30.9127 9.16113 30.9127C8.59249 30.9091 8.02709 30.8271 7.4811 30.6688C7.17543 30.9027 6.85248 31.1133 6.51498 31.2988C5.22681 31.9952 3.83131 32.1644 2.77868 32.1644C2.275 32.1655 1.77205 32.1259 1.27479 32.0461C0.999645 32.2536 0.71304 32.4508 0.418096 32.6397C0.47507 32.2785 0.538297 31.9177 0.607777 31.5572C4.59628 28.6709 6.71091 23.9444 7.54676 21.6445C7.02566 22.0399 6.46912 22.3191 5.92509 22.3191C5.72812 22.3229 5.53457 22.2675 5.3696 22.1603C5.00274 21.9185 4.87038 21.5064 4.87247 21.0186C4.87657 21.0113 4.87906 21.0031 4.87976 20.9948C1.09344 26.6273 -0.322909 33.3185 0.0606212 40.1446C0.719293 51.8726 6.05016 58.9353 9.9261 69.3297C12.1074 69.0463 13.2288 66.7443 12.3847 64.736C8.70777 55.6754 3.91677 47.4855 4.12521 37.3185C4.12521 36.3491 5.24974 36.3065 5.24974 37.3185C4.90165 47.0018 9.73121 55.2114 13.2466 63.8694C15.0204 62.3894 15.3445 60.2822 14.2189 57.5477Z" fill="#A3A2A2"/>
<path d="M15.0271 14.5327C14.8231 14.4741 14.6252 14.3963 14.4362 14.3002C13.6128 15.3069 12.5185 16.9758 12.6311 17.8072C12.6363 17.8765 12.6573 17.9438 12.6925 18.0038C12.7277 18.0639 12.7762 18.1152 12.8343 18.1538C13.4294 18.5513 15.791 16.7496 17.6284 14.816C17.5544 14.7122 17.4909 14.6157 17.4408 14.5306C16.6512 14.7483 15.8171 14.749 15.0271 14.5327Z" fill="#A3A2A2"/>
<path d="M17.8596 20.1484C17.1426 21.2693 16.4578 22.9226 16.9769 23.262C17.0484 23.3052 17.1324 23.3235 17.2155 23.3139C17.2287 23.3129 17.2419 23.3129 17.2551 23.3139C17.9107 23.2319 19.1686 22.1567 20.2004 20.9382C19.7324 20.3902 19.8679 19.4146 20.1889 18.4567C19.451 19.1738 18.61 19.8609 17.8596 20.1484Z" fill="#A3A2A2"/>
<path d="M19.2617 16.0112C18.8624 15.8866 18.4937 15.6805 18.1788 15.4061C17.3054 16.9079 16.4498 19.0906 17.0376 19.4777C17.0965 19.507 17.1608 19.524 17.2266 19.5278C17.2924 19.5315 17.3582 19.5219 17.4201 19.4995C17.4603 19.4796 17.5037 19.4666 17.5483 19.4611C18.43 19.1363 20.0131 17.6604 21.2762 16.1046C21.2762 16.1046 21.2835 16.1046 21.2846 16.0963L21.3888 15.9136C20.7158 16.2051 19.9587 16.2398 19.2617 16.0112Z" fill="#A3A2A2"/>
<path d="M18.801 27.0119C19.9829 26.2418 21.8849 23.9554 23.3398 22.0779C24.2653 19.559 23.7275 20.9819 24.2653 19.559C23.1553 20.4681 21.9036 21.2943 21.0115 21.2943C20.9803 21.2943 20.9511 21.2943 20.9209 21.2891C20.3831 21.9388 18.8041 23.726 17.5097 24.0343C16.8165 25.4178 15.9463 26.7062 14.9209 27.8672C15.8672 27.9232 17.5014 27.864 18.801 27.0119Z" fill="#A3A2A2"/>
<path d="M23.4738 17.0419C22.9264 17.0056 22.4029 16.8052 21.972 16.4669C21.1101 17.9666 20.2805 20.0995 20.8621 20.4866C21.4009 20.8416 23.4676 19.3553 25.2998 17.5909C25.4121 17.2351 25.5016 16.8725 25.5676 16.5053C25.0084 16.8561 24.3619 17.0441 23.701 17.0481C23.625 17.0481 23.5489 17.0481 23.4738 17.0419Z" fill="#A3A2A2"/>
<path d="M15.245 13.7865C15.9863 13.9859 16.7712 13.9544 17.494 13.6962L17.8671 13.5415L18.0089 13.9162C18.0089 13.9245 18.4258 14.9375 19.4919 15.2655C20.5779 15.6017 21.2908 15.0838 21.2981 15.0786L21.668 14.8036L21.8765 15.2125C21.8963 15.2509 22.4059 16.1902 23.5253 16.2639C24.5018 16.3314 25.2543 15.8342 25.668 15.4699C25.716 13.1679 24.3788 11.3423 20.753 10.8462C18.5651 10.5473 16.1975 11.1499 13.6504 12.6542H13.6608C13.9339 13.0018 14.4706 13.5644 15.245 13.7865Z" fill="#A3A2A2"/>
<path d="M24.9416 21.2638C24.7582 22.5362 24.7572 23.9446 25.2772 24.1636C25.8963 24.4231 27.0709 23.0219 27.7962 21.8346C27.1376 21.4444 26.7134 20.4117 26.458 19.516C25.5388 20.4428 25.865 20.0266 24.9416 21.2638Z" fill="#A3A2A2"/>
<path d="M25.4937 47.4375C25.4364 48.493 25.4937 49.8755 26.1805 50.7442C26.7121 51.4198 27.5198 51.6398 28.3369 51.6606C28.2408 50.8751 28.1921 50.0845 28.191 49.2932V32.3841C27.1422 31.635 26.1999 30.7483 25.3895 29.7479C24.3932 31.0626 23.3975 32.3793 22.4026 33.6981L22.3713 33.7406L20.9028 35.6908C20.5583 36.1399 20.3813 36.6943 20.402 37.2591C20.4227 37.8239 20.6399 38.3639 21.0164 38.7868C22.2796 40.2287 23.542 41.67 24.8038 43.1106C25.1475 43.494 25.4014 43.9487 25.547 44.4417C25.6926 44.9348 25.7264 45.454 25.6459 45.9616C25.575 46.4515 25.5167 46.9403 25.4937 47.4375Z" fill="#A3A2A2"/>
<path d="M27.0801 18.8139L27.0863 18.8056C27.3688 19.9867 27.868 21.2135 28.363 21.2218H28.3693C28.9362 21.2218 29.4573 19.7023 29.6772 18.4268C29.0926 18.3842 28.4871 18.0023 27.9274 17.4927C27.928 17.4879 27.928 17.483 27.9274 17.4781C27.6843 17.947 27.4008 18.3939 27.0801 18.8139Z" fill="#A3A2A2"/>
<path d="M28.5528 22.0941C28.0859 22.885 26.731 24.9721 25.4262 24.9721C25.2705 24.9722 25.1163 24.9412 24.9728 24.8808C24.2256 24.5695 24.0349 23.5554 24.0453 22.5342C23.7785 24.5539 24.2839 26.776 25.2772 28.2861C26.0747 29.4747 27.0573 30.5293 28.188 31.4101V24.4024H29.5627C29.1374 23.6745 28.7985 22.8999 28.5528 22.0941Z" fill="#A3A2A2"/>
<path d="M30.2074 12.7111C30.2043 12.6845 30.2043 12.6577 30.2074 12.6311C30.2074 12.6166 30.2074 12.601 30.2074 12.5855C30.1709 12.5855 30.1313 12.5855 30.0938 12.5855C29.8009 12.5846 29.5089 12.5533 29.2225 12.4921C29.2222 12.4849 29.2205 12.4778 29.2173 12.4713C29.1774 13.9441 28.8591 15.3961 28.2793 16.7515C28.2844 16.7488 28.2884 16.7444 28.2908 16.7391C28.9338 17.3805 29.5612 17.7842 29.9948 17.6202C31.0151 17.2352 30.5867 14.1589 30.2188 12.7297C30.2142 12.724 30.2104 12.7178 30.2074 12.7111Z" fill="#A3A2A2"/>
<path d="M26.4837 77.0156C27.8458 68.7126 28.3159 64.9763 28.3159 64.9763C28.3534 64.8019 28.3773 64.6452 28.4055 64.5113C28.5962 63.599 29.6509 63.8522 29.6728 64.7106C29.6736 64.9391 29.652 65.1671 29.6082 65.3914C28.3575 74.1739 27.9021 78.8464 27.9021 78.8464C27.0965 82.4998 32.0594 83.7847 32.3346 78.7427C32.3919 77.6986 32.4127 76.6928 32.4305 75.6467C32.5347 69.3966 32.5805 65.571 32.5805 65.571L32.568 61.543C30.4914 59.0051 29.0932 55.9853 28.5034 52.7646C27.2851 52.7646 26.1064 52.4356 25.3122 51.4258C24.147 49.9437 24.2971 47.5794 24.5556 45.8098C24.6132 45.4586 24.5906 45.0989 24.4896 44.7575C24.3886 44.4162 24.2116 44.1018 23.972 43.8378L20.1856 39.5078C19.6427 38.8956 19.3294 38.1149 19.2992 37.2986C19.269 36.4823 19.5237 35.6808 20.0199 35.0304L24.7025 28.8208C24.6775 28.7845 24.6515 28.7492 24.6275 28.7108C23.7187 27.3304 23.1913 25.401 23.2143 23.5038C21.8594 25.1914 20.2961 26.9661 19.2299 27.6646C17.9793 28.4846 16.4952 28.6662 15.4301 28.6662C15.131 28.6662 14.8714 28.6516 14.6547 28.633H14.6495C14.7096 28.7878 14.7273 28.9558 14.7005 29.1197C13.353 37.0709 15.6969 44.4876 17.8897 52.008C18.9131 51.5804 19.8886 50.5332 20.3055 49.2223C20.4814 48.6741 20.549 48.0972 20.5046 47.5233C20.1033 44.7719 23.6833 46.5125 21.7614 51.076C19.1914 57.2181 16.4087 63.3966 14.1284 69.6436C12.9746 72.807 16.0137 73.6581 17.0747 71.2513C18.935 67.0313 20.5337 62.723 22.2138 58.4273C22.3524 57.8741 23.2612 58.0516 23.0809 58.7044C21.4134 63.434 19.8271 68.4262 18.0783 73.1059C16.9215 76.1926 20.566 77.9248 21.4134 74.0888C22.3222 69.9664 23.7791 65.4744 24.9058 61.3229C25.1434 60.4511 26.2825 60.5342 25.9334 61.9903C23.5144 72.1003 22.5848 76.3856 22.5848 76.3856C21.3383 80.5029 26.2815 81.2927 26.4837 77.0156Z" fill="#A3A2A2"/>
<path d="M29.2266 21.6155C29.4225 22.2984 29.8915 23.5574 30.5168 24.4074H33.0181C33.51 23.601 33.7716 22.4292 33.8664 21.7432C32.4866 21.4443 31.0921 19.3249 30.4887 18.2985C30.3907 18.9627 30.0541 20.8049 29.2266 21.6155Z" fill="#A3A2A2"/>
<path d="M34.3524 20.9675C35.1965 20.6811 35.134 18.3811 34.8068 16.6282C34.6673 16.6764 34.5208 16.7017 34.3732 16.7029C33.2997 16.7029 32.1439 15.501 31.3154 14.4196C31.4498 15.5197 31.4738 16.8399 31.0215 17.6629C31.923 19.2581 33.4905 21.2581 34.3524 20.9675Z" fill="#A3A2A2"/>
<path d="M33.2522 10.9694C32.741 11.6082 32.0658 12.0973 31.2981 12.385C31.1849 12.4254 31.0698 12.46 30.9531 12.4888C31.9265 14.1224 33.6774 16.2324 34.5758 15.891C35.5367 15.5277 35.2095 12.7773 34.8614 11.261C34.3091 11.2973 33.7563 11.1971 33.2522 10.9694Z" fill="#A3A2A2"/>
<path d="M34.5565 22.3073C34.4254 23.0311 34.202 23.7353 33.8916 24.4027H36.2564C35.5414 23.7354 34.939 22.8968 34.5565 22.3073Z" fill="#A3A2A2"/>
<path d="M33.1807 66.3859C33.98 66.9961 34.744 68.4056 35.5673 68.3475C36.2354 68.3007 36.6178 67.485 36.2239 66.9453C35.7382 66.2769 34.1655 66.6017 33.1807 66.3859Z" fill="#A3A2A2"/>
<path d="M34.1475 69.6527L35.0948 70.0927C36.753 70.8639 38.0349 69.663 38.6998 69.2002L37.7524 68.7601C36.0933 67.99 35.3595 69.5468 34.1475 69.6527Z" fill="#A3A2A2"/>
<path d="M37.2627 65.4604L36.3164 65.0204C37.0147 66.0126 36.2872 67.5746 37.9464 68.3416C38.2591 68.4879 38.579 68.6343 38.8938 68.7816C38.8229 67.9794 38.9219 66.2305 37.2627 65.4604Z" fill="#A3A2A2"/>
<path d="M39.1678 14.1547C40.1214 13.7946 39.8087 11.0857 39.4648 9.56628C39.1318 9.74307 38.767 9.85243 38.3913 9.88806C38.0157 9.92368 37.6367 9.88487 37.2762 9.77386C36.9246 10.3667 36.3777 10.82 35.7285 11.0567C36.7249 12.6353 38.3184 14.4744 39.1678 14.1547Z" fill="#A3A2A2"/>
<path d="M39.5394 19.5021C40.5129 19.087 40.1137 16.3781 39.6885 14.7549C39.6107 14.8056 39.5279 14.8484 39.4415 14.8825C39.2882 14.9418 39.1254 14.9727 38.961 14.9739C37.8865 14.9739 36.7286 13.772 35.9011 12.6906C36.0449 13.8592 36.0626 15.2759 35.5176 16.0823C36.6348 17.7627 38.591 19.9121 39.5394 19.5021Z" fill="#A3A2A2"/>
<path d="M34.9775 21.5039C35.4809 22.3342 36.5179 23.7873 37.533 24.4017H39.1172C39.9374 23.6191 39.8967 21.4863 39.7539 20.245C39.6077 20.2971 39.4538 20.3244 39.2985 20.326C38.0739 20.326 36.6669 18.8584 35.755 17.7157C35.8999 19.0805 35.877 20.8324 34.9775 21.5039Z" fill="#A3A2A2"/>
<path d="M27.814 8.10482C28.6602 8.85625 29.1136 10.1806 29.199 11.7042C29.1996 11.7007 29.1996 11.6972 29.199 11.6938C29.6357 11.8069 30.3319 11.9014 31.0281 11.6533C31.7465 11.3807 32.3645 10.8967 32.7999 10.2657L33.0083 9.92733L33.3428 10.1442C33.3522 10.1442 34.2808 10.7286 35.3397 10.3736C36.4173 10.0114 36.6946 9.17487 36.6946 9.16657L36.8321 8.72755L37.2428 8.93512C37.2824 8.95484 38.2485 9.41774 39.1969 8.82511C40.2235 8.1837 40.4673 7.02336 40.5247 6.59367C34.5164 0.131858 25.8525 -0.0902464 26.0297 3.08358C21.6233 3.09188 20.7041 5.02856 23.2595 8.23248C23.4054 6.69746 26.1829 6.6518 27.814 8.10482ZM30.4497 3.30776C30.1737 3.62585 29.7981 3.84196 29.3835 3.92114C29.7368 4.98185 29.668 5.10536 28.8728 4.26987C28.4268 3.80352 27.8296 3.48281 27.0813 3.30776C28.2041 2.48576 29.3269 2.48576 30.4497 3.30776Z" fill="#A3A2A2"/>
<path d="M37.9179 71.4041C39.5782 72.1742 40.859 70.9744 41.525 70.5104L40.5766 70.0714C38.9174 69.3003 38.1795 70.8592 36.9727 70.964C37.2843 71.1114 37.6053 71.2577 37.9179 71.4041Z" fill="#A3A2A2"/>
<path d="M40.7706 69.6553L41.718 70.0943C41.6482 69.29 41.7461 67.5412 40.0869 66.7731L39.1406 66.3341C39.8379 67.3232 39.1114 68.8852 40.7706 69.6553Z" fill="#A3A2A2"/>
<path d="M43.7547 12.4205C43.9094 12.353 44.0357 12.2341 44.1122 12.0842C43.3632 10.3679 42.3741 8.76579 41.1742 7.32556C40.9968 7.98395 40.6468 8.58355 40.1602 9.06297C41.1357 10.6893 42.8605 12.7599 43.7547 12.4205Z" fill="#A3A2A2"/>
<path d="M40.7373 72.7145C42.3965 73.4846 43.6784 72.2848 44.3434 71.8209L43.396 71.3808C41.7378 70.6107 40.9989 72.1686 39.791 72.2745L40.7373 72.7145Z" fill="#A3A2A2"/>
<path d="M43.5929 70.9657L44.5403 71.4047C44.4694 70.5993 44.5684 68.8505 42.9092 68.0835L41.9629 67.6434C42.6601 68.6305 41.9348 70.1945 43.5929 70.9657Z" fill="#A3A2A2"/>
<path d="M43.5523 13.2347C42.4789 13.2347 41.3231 12.0328 40.4955 10.9462C40.6196 11.9737 40.6488 13.1921 40.2871 14.0193C40.2951 14.0315 40.302 14.0444 40.308 14.0577C40.3205 14.0992 40.3423 14.1698 40.3684 14.258C41.4888 15.9352 43.3981 18.0131 44.335 17.6104C45.2449 17.2191 44.9541 14.8278 44.5654 13.1911C44.5278 13.0873 44.4893 12.9908 44.4507 12.8911C44.2067 13.1144 43.8868 13.2371 43.5555 13.2347H43.5523Z" fill="#A3A2A2"/>
<path d="M44.0244 76.8115L44.6185 76.5343L44.138 75.5079L43.5461 75.785C43.4235 75.8411 43.2854 75.854 43.1546 75.8215C43.0237 75.7891 42.9078 75.7132 42.8259 75.6065L42.7217 75.3833C42.692 75.2524 42.708 75.1154 42.7672 74.9948C42.8263 74.8742 42.925 74.7773 43.0469 74.7201L43.644 74.4441L43.1625 73.4176L42.5664 73.6937C42.2458 73.8438 41.9791 74.0881 41.8021 74.3937C41.625 74.6993 41.5463 75.0515 41.5763 75.4031L40.8468 75.7404C40.5956 75.4914 40.2738 75.3251 39.9248 75.2638C39.5757 75.2026 39.2162 75.2494 38.8947 75.3979L38.1058 75.7632C37.7854 75.9135 37.5188 76.1579 37.3418 76.4634C37.1648 76.769 37.0859 77.1211 37.1157 77.4726L36.3861 77.8109C36.1351 77.5621 35.8135 77.3958 35.4648 77.3344C35.116 77.273 34.7567 77.3194 34.4351 77.4674L33.6452 77.8338C33.2513 78.0389 32.9521 78.3874 32.8098 78.8067C32.6674 79.226 32.6928 79.6838 32.8808 80.0849C33.0687 80.4859 33.4047 80.7994 33.8188 80.9601C34.233 81.1207 34.6934 81.1162 35.1042 80.9474L35.8932 80.581C36.2136 80.431 36.4802 80.1869 36.6572 79.8815C36.8342 79.5761 36.9131 79.224 36.8833 78.8727L37.6128 78.5343C37.8636 78.7832 38.185 78.9495 38.5336 79.011C38.8823 79.0724 39.2415 79.0259 39.5628 78.8779L40.3517 78.5115C40.6724 78.3615 40.9392 78.1172 41.1163 77.8116C41.2933 77.506 41.372 77.1537 41.3418 76.8021L42.0714 76.4648C42.3223 76.7144 42.644 76.8815 42.9932 76.9435C43.3425 77.0055 43.7023 76.9594 44.0244 76.8115ZM35.4169 79.5587L34.628 79.9251C34.5574 79.9604 34.4804 79.9813 34.4016 79.9865C34.3227 79.9916 34.2437 79.981 34.1691 79.9551C34.0945 79.9293 34.0258 79.8888 33.9672 79.836C33.9086 79.7832 33.8613 79.7193 33.828 79.6479C33.7947 79.5766 33.7761 79.4993 33.7734 79.4207C33.7706 79.3421 33.7838 79.2637 33.812 79.1903C33.8402 79.1168 33.883 79.0497 33.9378 78.993C33.9925 78.9363 34.0582 78.8912 34.1308 78.8602L34.9187 78.4939C35.0601 78.4307 35.2208 78.4255 35.3661 78.4794C35.5113 78.5332 35.6294 78.6419 35.6948 78.7818C35.7603 78.9217 35.7678 79.0816 35.7158 79.227C35.6638 79.3724 35.5564 79.4915 35.4169 79.5587ZM39.8754 77.4882L39.0855 77.8545C38.9631 77.9111 38.825 77.9243 38.694 77.8921C38.563 77.8598 38.447 77.7839 38.3653 77.677L38.2611 77.4529C38.2318 77.3221 38.2481 77.1854 38.3072 77.0651C38.3663 76.9447 38.4647 76.848 38.5862 76.7907L39.3752 76.4233C39.4454 76.3906 39.5214 76.372 39.5988 76.3685C39.6763 76.365 39.7536 76.3768 39.8265 76.4031C39.8994 76.4294 39.9663 76.4698 40.0235 76.5218C40.0808 76.5739 40.1271 76.6367 40.16 76.7066C40.1928 76.7766 40.2115 76.8522 40.215 76.9293C40.2185 77.0065 40.2067 77.0835 40.1802 77.1561C40.1538 77.2286 40.1133 77.2953 40.061 77.3523C40.0087 77.4093 39.9456 77.4554 39.8754 77.4882Z" fill="#A3A2A2"/>
<path d="M34.5825 84.7185C35.508 84.7185 38.7398 84.2722 38.769 85.3993C38.4366 88.3895 27.7582 83.8259 25.4288 81.8446L26.4085 84.9167L23.1631 84.4912C25.7603 86.6956 38.7721 92.2254 38.7721 88.8046V85.9909C40.8556 86.2987 42.9535 86.5 45.0577 86.5939V83.1928C41.5373 83.0462 38.0344 82.6193 34.5825 81.9162C32.7378 81.9162 32.7378 84.7185 34.5825 84.7185Z" fill="#A3A2A2"/>
<path d="M40.1744 24.2556C40.1973 24.3003 40.2285 24.3511 40.2588 24.402H45.1717C45.1656 23.9195 45.1308 23.4377 45.0675 22.9593C44.827 23.0543 44.5706 23.1029 44.3119 23.1026C42.957 23.1026 41.5146 21.9038 40.6048 20.9843C40.66 21.9723 40.6183 23.2873 40.166 24.2421C40.1685 24.2468 40.1713 24.2513 40.1744 24.2556Z" fill="#A3A2A2"/>
<path d="M44.0902 18.4351C42.9636 18.4351 41.6827 17.1896 40.776 16.1061C40.9782 17.3515 41.0491 18.8513 40.4717 19.6919C41.3753 20.7589 43.5305 22.846 44.8635 22.2036C46.1694 21.5736 45.7754 18.9125 45.4138 17.5332C45.2638 17.8832 44.9875 18.1646 44.6394 18.3219C44.4661 18.3967 44.2791 18.4352 44.0902 18.4351Z" fill="#A3A2A2"/>
<path d="M45.7549 22.5083C45.781 22.5509 45.7986 22.5981 45.807 22.6473C45.8995 23.2278 45.9528 23.8138 45.9664 24.4014H48.4156C48.2164 24.2789 48.0329 24.1325 47.8695 23.9654C47.1254 23.1943 46.8461 22.0682 47.0847 20.7958C47.1967 20.2495 47.385 19.7216 47.6444 19.2275V19.2213C47.4766 19.3369 47.2782 19.4004 47.0742 19.4039C46.8702 19.4074 46.6697 19.3508 46.498 19.241C46.6095 20.4107 46.5157 21.7423 45.7549 22.5083Z" fill="#A3A2A2"/>
<path d="M50.1895 24.0147C50.4631 23.9772 50.7261 23.8841 50.9622 23.7413C51.1983 23.5985 51.4024 23.4089 51.562 23.1844C51.2677 22.5797 51.1278 21.912 51.1546 21.2405C51.1785 19.9172 51.9008 18.6624 52.5313 17.8155C52.2064 17.868 51.8777 17.8944 51.5485 17.8944C50.9802 17.883 50.4303 17.6922 49.9779 17.3495C49.437 17.9099 48.1541 19.3785 47.8581 20.9426C47.6663 21.9608 47.8716 22.845 48.4375 23.4335C48.6611 23.6635 48.9371 23.8365 49.2421 23.9377C49.5471 24.0388 49.872 24.0653 50.1895 24.0147Z" fill="#A3A2A2"/>
<path d="M51.3633 24.4024H52.6785C52.4819 24.2864 52.3003 24.147 52.1376 23.9872C52.098 23.9467 52.0553 23.9 52.0136 23.8544C51.8258 24.0686 51.6065 24.2534 51.3633 24.4024Z" fill="#A3A2A2"/>
<path d="M51.5446 17.1149C52.144 17.1254 52.7398 17.0196 53.2986 16.8035C53.0902 16.1943 52.9766 15.2644 53.4549 14.1175C53.678 13.608 53.9888 13.1412 54.3731 12.7382C54.101 12.7157 53.833 12.6582 53.5758 12.5669C53.0245 12.3739 52.4701 11.7813 52.1397 11.0599C51.4831 11.6401 49.9886 13.1087 49.7656 14.6479C49.654 15.4242 49.7947 16.0438 50.1824 16.4891C50.3543 16.6808 50.5639 16.8353 50.7982 16.943C51.0325 17.0506 51.2866 17.1092 51.5446 17.1149Z" fill="#A3A2A2"/>
<path d="M49.1853 82.5587H48.9706L49.1853 82.5535V80.9821H52.3859L54.561 81.6329V78.6656L52.3859 79.3153H50.0785V68.6366C49.4393 68.7134 48.7924 68.7587 48.1379 68.7726V79.3153H47.373V68.7726C46.7171 68.7587 46.0699 68.7134 45.4313 68.6366V79.3153H43.1291L40.9551 78.6656V81.636L43.1291 80.9821H46.3297V88.7454L45.2698 90.9125H50.2505L49.1906 88.7454L49.1853 82.5587Z" fill="#A3A2A2"/>
<path d="M51.9342 21.2531C51.9154 22.4197 52.3344 23.0839 52.6908 23.4327C52.8728 23.6174 53.0905 23.7636 53.3306 23.8624C53.5708 23.9612 53.8286 24.0106 54.0884 24.0076C55.2734 23.9775 55.7685 22.9563 55.7737 22.9459C55.7789 22.9355 55.7872 22.9303 55.7935 22.9199C55.5489 22.3934 55.4305 21.8175 55.4475 21.2375C55.4631 20.3419 55.8706 19.3839 56.3677 18.5391C56.1646 18.5795 55.9579 18.6003 55.7507 18.6013C55.4787 18.6012 55.2077 18.5695 54.943 18.5069C54.4803 18.4031 54.0384 18.0689 53.708 17.6029C53.1452 18.235 51.9603 19.7326 51.9342 21.2531Z" fill="#A3A2A2"/>
<path d="M56.2601 23.6405C56.0373 23.9458 55.7565 24.2046 55.4336 24.4023H57.2053C56.8473 24.2063 56.5272 23.9483 56.2601 23.6405Z" fill="#A3A2A2"/>
<path d="M57.63 68.5108L57.2923 67.9047L51.2402 71.2539L51.9552 71.6504L57.63 68.5108Z" fill="#A3A2A2"/>
<path d="M53.8372 11.833C54.8043 12.1724 55.4411 11.7749 55.4672 11.7572C55.4762 11.7526 55.4856 11.7488 55.4953 11.7458C56.0309 11.3502 56.6008 11.0029 57.1983 10.7079C57.205 9.99342 57.3986 9.293 57.76 8.67576C57.8335 8.54601 57.9139 8.42025 58.0008 8.29901C57.8542 8.2854 57.7098 8.25474 57.5704 8.20768C57.1535 8.0603 56.7762 7.64826 56.5709 7.10649C56.4434 6.76083 56.3898 6.39249 56.4135 6.02502C55.5068 6.3094 53.6798 7.02242 52.9628 8.30835C52.7627 8.64922 52.6426 9.03075 52.6116 9.42437C52.5805 9.81799 52.6393 10.2135 52.7835 10.5813C53.0368 11.2476 53.5058 11.7167 53.8372 11.833Z" fill="#A3A2A2"/>
<path d="M58.7228 70.4673L58.3852 69.8622L53.5566 72.5326L54.2726 72.9281L58.7228 70.4673Z" fill="#A3A2A2"/>
<path d="M57.4084 11.7793C57.3754 11.6947 57.3468 11.6084 57.3229 11.5209C56.5381 11.936 54.7726 12.9926 54.1807 14.4155C53.6846 15.6049 53.9722 16.4798 54.1807 16.896C54.412 17.3444 54.7716 17.6724 55.1187 17.7533C56.3276 18.0356 57.1041 17.4285 57.1113 17.4222H57.1186C57.4487 16.977 57.8047 16.5514 58.1848 16.1477C58.1848 16.1145 58.1848 16.0834 58.1911 16.0502C58.3099 15.0123 59.1061 13.8986 59.7658 13.1368C59.6533 13.1472 59.5418 13.1545 59.4313 13.1545C59.1993 13.157 58.9681 13.1269 58.7445 13.0652C58.1588 12.8888 57.671 12.4218 57.4084 11.7793Z" fill="#A3A2A2"/>
<path d="M57.8302 7.47366C58.4732 7.69888 59.0485 7.23495 59.0538 7.2308H59.0631C59.8016 6.6702 60.6142 6.21373 61.4779 5.8743C60.7578 5.12995 60.0958 4.33193 59.4977 3.48718C59.0225 3.67815 58.0084 4.17737 57.4863 5.10938C57.0496 5.88779 57.184 6.52712 57.3008 6.83848C57.4394 7.19551 57.6666 7.41658 57.8302 7.47366Z" fill="#A3A2A2"/>
<path d="M60.7446 22.9056C60.5863 22.4657 60.5056 22.0019 60.506 21.5346C60.506 20.6981 60.8113 19.8263 61.2084 19.0499C61.0452 19.0869 60.8786 19.1064 60.7113 19.1081C60.5454 19.1077 60.3799 19.091 60.2173 19.0582C59.7599 18.9491 59.34 18.7209 59.0003 18.397C58.6606 18.0731 58.4134 17.6652 58.284 17.215C57.5461 18.0899 56.2569 19.8211 56.2329 21.2533C56.1996 23.2928 57.8171 23.9373 58.4434 24.0131C58.8943 24.0796 59.3548 24.0096 59.7652 23.8121C60.1756 23.6146 60.5168 23.2988 60.7446 22.9056Z" fill="#A3A2A2"/>
<path d="M57.4227 67.3427C57.7228 67.5223 58.1522 67.7102 58.6379 67.4465L59.0026 67.2441C58.7098 67.239 58.4711 67.02 58.1887 66.9234L58.5118 66.7439C58.8129 66.9234 59.2413 67.1113 59.727 66.8477L60.0928 66.6401C59.7999 66.6401 59.5602 66.4149 59.2767 66.3184L59.5998 66.1398C59.901 66.3194 60.3294 66.5073 60.8161 66.2436L61.1819 66.0412C60.888 66.0361 60.6503 65.8171 60.3669 65.7205L60.7223 65.5233L60.7598 65.5016C61.011 65.348 61.2288 64.9245 61.4727 64.7097C61.1308 64.8134 60.5941 64.7553 60.3523 64.9359L60.0261 65.1165C60.0938 64.8249 60.0313 64.5052 60.1834 64.254L59.8187 64.4554C59.3309 64.7242 59.2673 65.1902 59.2601 65.54L58.9359 65.7185C59.0058 65.4268 58.9422 65.1072 59.0954 64.856L58.7285 65.0636C58.2429 65.3324 58.1772 65.7973 58.172 66.1471L57.8468 66.3267C57.9167 66.035 57.8531 65.7154 58.0052 65.4632L57.6394 65.6655C57.1548 65.9343 57.0892 66.4004 57.0829 66.7501L50.0762 70.6245L50.7932 71.0199L57.4227 67.3427Z" fill="#A3A2A2"/>
<path d="M61.1375 23.6908C60.9029 23.9729 60.6208 24.2121 60.3037 24.3976H61.7763C61.5319 24.1922 61.317 23.9544 61.1375 23.6908Z" fill="#A3A2A2"/>
<path d="M61.1207 67.0677C61.1884 66.7761 61.1207 66.4564 61.2781 66.2042L60.9133 66.4118C60.4266 66.6806 60.3609 67.1466 60.3547 67.4964L60.0305 67.6749C60.1004 67.3832 60.0368 67.0636 60.1879 66.8124L59.8231 67.02C59.3375 67.2888 59.2729 67.7538 59.2666 68.1035L58.9414 68.2821C59.0113 67.9914 58.9477 67.6707 59.0999 67.4196L58.734 67.622C58.2473 67.8908 58.1827 68.3557 58.1775 68.7065L52.3975 71.9032L53.1135 72.2986L58.5173 69.3095C58.8174 69.4901 59.2468 69.678 59.7314 69.4133L60.0972 69.211C59.8033 69.2058 59.5647 68.9868 59.2822 68.8902L59.6053 68.7107C59.9065 68.8902 60.3349 69.0781 60.8205 68.8145L61.1853 68.6069C60.8924 68.6069 60.6548 68.3827 60.3703 68.2862L60.6934 68.1077C60.9946 68.2872 61.4229 68.4751 61.9096 68.2115L62.2744 68.0091C61.9826 68.0039 61.7439 67.7849 61.4615 67.6873L61.8148 67.4912C61.8284 67.4847 61.8417 67.4774 61.8544 67.4694C62.1045 67.3158 62.3234 66.8934 62.5673 66.6775C62.2254 66.7813 61.6876 66.7232 61.4469 66.9027L61.1207 67.0677Z" fill="#A3A2A2"/>
<path d="M60.3695 18.2947C61.2408 18.4721 61.8536 17.9075 61.9568 17.8048C62.255 17.3723 62.5809 16.9595 62.9323 16.5687C62.0998 15.4267 61.6379 14.0585 61.6087 12.6476C61.4722 12.7026 61.3159 12.7607 61.147 12.8188C60.8344 13.1177 59.1304 14.7783 58.974 16.1338C58.7958 17.6398 59.9214 18.2054 60.3695 18.2947Z" fill="#A3A2A2"/>
<path d="M57.4083 75.7632L56.6204 75.3979C56.2989 75.2494 55.9394 75.2026 55.5903 75.2638C55.2413 75.3251 54.9195 75.4914 54.6683 75.7404L53.9388 75.4031C53.9689 75.0515 53.8901 74.6993 53.7131 74.3937C53.5361 74.0881 53.2693 73.8438 52.9487 73.6937L52.3526 73.4176L51.8732 74.4441L52.4683 74.7201C52.59 74.7776 52.6885 74.8745 52.7478 74.995C52.807 75.1154 52.8235 75.2523 52.7945 75.3833L52.6902 75.6065C52.6088 75.7135 52.4931 75.7895 52.3623 75.822C52.2315 75.8544 52.0935 75.8414 51.9711 75.785L51.3771 75.5079L50.8945 76.5343L51.4907 76.8115C51.8121 76.9596 52.1715 77.0061 52.5203 76.9447C52.8691 76.8833 53.1907 76.7169 53.4417 76.4679L54.1712 76.8052C54.1407 77.1568 54.2193 77.5093 54.3964 77.815C54.5734 78.1206 54.8404 78.3649 55.1613 78.5146L55.9503 78.881C56.2716 79.029 56.6307 79.0755 56.9794 79.0141C57.328 78.9527 57.6494 78.7863 57.9002 78.5374L58.6297 78.8758C58.6001 79.2271 58.679 79.5791 58.856 79.8845C59.033 80.1898 59.2995 80.434 59.6198 80.5841L60.4088 80.9505C60.6156 81.0582 60.8421 81.1231 61.0748 81.1412C61.3075 81.1593 61.5414 81.1303 61.7625 81.0558C61.9836 80.9814 62.1872 80.8631 62.3611 80.7081C62.535 80.553 62.6755 80.3645 62.7742 80.1539C62.8729 79.9433 62.9277 79.715 62.9353 79.4827C62.9429 79.2504 62.9032 79.019 62.8185 78.8025C62.7338 78.5859 62.6058 78.3887 62.4425 78.2227C62.2791 78.0568 62.0836 77.9255 61.8679 77.8369L61.08 77.4705C60.7585 77.3225 60.3991 77.2761 60.0504 77.3375C59.7016 77.3989 59.38 77.5652 59.129 77.814L58.3994 77.4757C58.4299 77.1236 58.3512 76.7706 58.174 76.4644C57.9968 76.1582 57.7295 75.9135 57.4083 75.7632ZM57.2499 77.4529L57.1457 77.677C57.0642 77.784 56.9484 77.8599 56.8176 77.8922C56.6867 77.9245 56.5487 77.9112 56.4265 77.8545L55.6365 77.4882C55.4948 77.4222 55.3851 77.3029 55.3316 77.1564C55.2781 77.01 55.2853 76.8484 55.3515 76.7072C55.4177 76.5659 55.5375 76.4567 55.6846 76.4035C55.8317 76.3502 55.994 76.3574 56.1358 76.4233L56.9247 76.7907C57.0464 76.8478 57.1449 76.9446 57.204 77.0649C57.2631 77.1853 57.2793 77.3221 57.2499 77.4529ZM59.8054 78.7782C59.8716 78.6372 59.9913 78.5281 60.1382 78.4748C60.2851 78.4215 60.4473 78.4284 60.5891 78.4939L61.378 78.8602C61.4494 78.8921 61.5136 78.9377 61.5671 78.9946C61.6205 79.0514 61.6621 79.1182 61.6894 79.1912C61.7167 79.2641 61.7292 79.3417 61.726 79.4195C61.7229 79.4973 61.7043 79.5737 61.6713 79.6443C61.6383 79.7149 61.5915 79.7782 61.5337 79.8306C61.4759 79.883 61.4082 79.9235 61.3346 79.9496C61.2609 79.9757 61.1828 79.987 61.1048 79.9828C61.0267 79.9786 60.9502 79.959 60.8799 79.9251L60.0899 79.5587C59.9485 79.4925 59.8391 79.3732 59.7858 79.227C59.7325 79.0807 59.7395 78.9194 59.8054 78.7782Z" fill="#A3A2A2"/>
<path d="M58.4428 9.05715C57.9624 9.9134 57.8488 10.7987 58.1302 11.4868C58.3053 11.9092 58.6085 12.2133 58.9639 12.3171C59.4746 12.4655 60.1937 12.3171 60.8045 12.1158C61.0915 12.0208 61.373 11.9099 61.6476 11.7837C61.747 11.0065 62.0004 10.2568 62.3931 9.57798C62.7858 8.89917 63.31 8.30479 63.9352 7.82934C63.2748 7.44388 62.659 6.98723 62.0989 6.46765C61.4246 6.71259 59.2651 7.58752 58.4428 9.05715Z" fill="#A3A2A2"/>
<path d="M62.9491 69.4113C63.1982 69.2577 63.4181 68.8353 63.661 68.6194C63.3202 68.7232 62.7824 68.6651 62.5416 68.8446L62.2144 69.0262C62.2821 68.7336 62.2144 68.4149 62.3728 68.1627L62.007 68.3703C61.5203 68.6391 61.4546 69.1041 61.4484 69.4549L61.1253 69.6334C61.193 69.3417 61.1315 69.0221 61.2827 68.7709C61.1607 68.8373 61.0398 68.9058 60.9169 68.9723C60.4312 69.2411 60.3655 69.7071 60.3593 70.0568L60.0352 70.2354C60.105 69.9448 60.0414 69.6241 60.1936 69.3729L59.8288 69.5753C59.3421 69.8441 59.2764 70.309 59.2712 70.6588L54.7168 73.1777L55.4338 73.5732L59.611 71.2639C59.9111 71.4424 60.3405 71.6313 60.8251 71.3625C60.9471 71.295 61.0701 71.2286 61.1899 71.1611C60.8971 71.156 60.6584 70.937 60.376 70.8394L60.699 70.6609C61.0013 70.8404 61.4286 71.0283 61.9142 70.7647L62.279 70.5571C61.9862 70.5571 61.7496 70.3329 61.4651 70.2364L61.7881 70.0568C62.0893 70.2374 62.5177 70.4253 63.0033 70.1606L63.3681 69.9582C63.0763 69.9531 62.8376 69.7341 62.5552 69.6365L62.9096 69.4403L62.9491 69.4113Z" fill="#A3A2A2"/>
<path d="M64.1307 17.8853C63.8785 17.6679 63.6414 17.4338 63.4209 17.1847C63.004 17.6652 61.2729 19.7659 61.2813 21.5313C61.2886 22.7996 61.9066 23.5033 62.2745 23.8063C62.7477 24.1997 63.2041 24.2869 63.4449 24.2454C63.7409 24.1972 64.0225 24.0841 64.2692 23.9143C64.516 23.7445 64.7218 23.5222 64.8717 23.2635C64.6997 21.5458 65.374 19.5978 65.671 18.8432C65.1153 18.5969 64.5968 18.2744 64.1307 17.8853Z" fill="#A3A2A2"/>
<path d="M47.7625 42.9837C48.0398 42.9048 49.0361 42.6059 49.2216 42.4772C49.3436 42.3952 49.3071 42.308 48.9777 42.2333C48.0564 42.0506 47.5187 41.8057 47.3488 41.0013C47.0247 41.5462 46.0241 42.6889 45.1602 43.3127C45.7084 43.2089 47.3582 42.3651 47.6677 42.1617C47.4238 42.9401 47.3592 43.0999 47.7625 42.9837Z" fill="#A3A2A2"/>
<path d="M43.3377 42.8681L41.59 44.0907C43.6049 43.7268 45.4211 42.4858 47.0386 40.3678C47.3794 40.2215 47.7551 40.1751 48.1215 40.234C50.777 40.5588 50.9427 42.7591 55.5638 42.8587V36.1063H39.9443V42.8681L41.6421 41.5188L43.3377 42.8681ZM51.2105 38.6533C51.2096 39.0181 51.0914 39.3731 50.8733 39.6663C50.6552 39.9595 50.3487 40.1755 49.9985 40.2827C49.4455 39.9549 48.83 39.7453 48.1913 39.6673C47.7172 39.5956 47.2325 39.6597 46.7937 39.852C46.5175 39.9818 46.4258 40.3564 46.0037 40.3564C45.5504 40.3551 45.1161 40.1752 44.7955 39.8561C44.4749 39.5371 44.2941 39.1047 44.2924 38.6533H51.2105Z" fill="#A3A2A2"/>
<path d="M55.5669 46.1817V44.7733H39.9443V46.1817C39.9443 50.437 43.4826 53.9596 47.7546 53.9596C52.0266 53.9596 55.5669 50.436 55.5669 46.1817ZM50.8416 50.1713C50.1183 50.1713 49.5315 49.6659 49.5315 49.0411H52.1537C52.1579 49.6659 51.5711 50.1713 50.8416 50.1713ZM53.6983 46.93C53.6983 47.5527 53.1115 48.0603 52.3882 48.0603C51.6649 48.0603 51.0761 47.5538 51.0761 46.93H53.6983ZM50.6071 46.93C50.6071 47.5527 50.0203 48.0603 49.2971 48.0603C48.5738 48.0603 47.9849 47.5538 47.9849 46.93H50.6071ZM41.8036 46.93H44.4258C44.4258 47.5527 43.839 48.0603 43.1158 48.0603C42.3925 48.0603 41.8078 47.5538 41.8078 46.93H41.8036ZM44.6603 50.1713C43.9308 50.1713 43.3503 49.6659 43.3503 49.0411H45.9714C45.9756 49.6659 45.3888 50.1713 44.6645 50.1713H44.6603ZM44.901 46.93H47.5232C47.5232 47.5527 46.9365 48.0603 46.2121 48.0603C45.4878 48.0603 44.901 47.5538 44.901 46.93ZM46.4466 49.0411H49.0699C49.0699 49.6638 48.4831 50.1713 47.7577 50.1713C47.0323 50.1713 46.4435 49.6659 46.4435 49.0411H46.4466Z" fill="#A3A2A2"/>
<path d="M36.2281 54.597C36.1708 54.8046 36.8388 55.1616 37.016 55.2083C37.5142 55.3422 37.7164 54.5929 37.2161 54.459C37.04 54.4133 36.2823 54.3894 36.2281 54.597Z" fill="#A3A2A2"/>
<path d="M38.7811 55.7733C38.8976 55.7062 38.9915 55.6062 39.0509 55.4859C39.1104 55.3656 39.1327 55.2305 39.115 55.0976C39.0973 54.9647 39.0404 54.84 38.9516 54.7393C38.8627 54.6386 38.7458 54.5664 38.6158 54.5318C38.4857 54.4973 38.3483 54.5019 38.2208 54.5451C38.0934 54.5884 37.9817 54.6683 37.8999 54.7747C37.8181 54.8812 37.7698 55.0094 37.7612 55.1432C37.7525 55.277 37.7839 55.4103 37.8514 55.5263C37.8961 55.6034 37.9556 55.6709 38.0265 55.7251C38.0975 55.7793 38.1784 55.8189 38.2648 55.8419C38.3511 55.8648 38.4412 55.8706 38.5298 55.8588C38.6184 55.8471 38.7038 55.818 38.7811 55.7733Z" fill="#A3A2A2"/>
<path d="M38.0915 53.809C37.9998 53.6513 37.4797 53.1022 37.2952 53.2091C37.1108 53.316 37.3254 54.0394 37.4161 54.1972C37.6746 54.6435 38.351 54.2553 38.0915 53.809Z" fill="#A3A2A2"/>
<path d="M39.168 53.9665C39.2159 53.7911 39.2378 53.0324 39.0293 52.9806C38.8209 52.9287 38.4624 53.5908 38.4155 53.7652C38.2852 54.2634 39.0377 54.4647 39.168 53.9665Z" fill="#A3A2A2"/>
<path d="M66.3334 49.2667V25.3851H29.1758V49.2667C29.1758 59.4441 37.5342 67.7678 47.7541 67.7678C57.9739 67.7678 66.3334 59.4441 66.3334 49.2667ZM53.0297 63.7077C53.004 63.1299 53.3962 62.858 54.2063 62.8919C54.5586 61.4576 54.7552 60.4916 54.7962 59.9941C54.4067 60.0171 54.0204 59.9113 53.6974 59.6932C53.3744 59.4752 53.1327 59.157 53.0099 58.7881C53.3448 56.6812 53.7964 55.404 54.3648 54.9563C54.8796 54.9708 55.3944 54.9708 55.9093 54.9563C57.1693 56.948 56.9515 58.6231 56.9317 60.8535C56.471 61.3884 55.6977 62.3007 54.6118 63.5904L53.0297 63.7077ZM53.3424 59.8104C53.671 60.0309 54.0302 60.2026 54.4085 60.32C54.2209 61.5558 54.1268 62.1737 54.1261 62.1737C53.6723 61.4627 53.403 60.6507 53.3424 59.8104ZM54.3179 53.9983L54.8296 54.3595L55.1256 53.7046L55.4195 54.3595L55.9333 53.9983L55.9176 54.7248H54.3324L54.3179 53.9983ZM57.236 50.9968H57.9906L57.854 51.7306L58.5919 51.5956V52.3471L57.854 52.2121L57.9906 52.9459H57.236L57.3694 52.2121L56.6399 52.3471V51.5956L57.3694 51.7306L57.236 50.9968ZM57.6154 54.126C57.5238 54.126 57.4343 54.0989 57.3582 54.0483C57.2821 53.9976 57.2228 53.9256 57.1878 53.8413C57.1528 53.757 57.1437 53.6643 57.1616 53.5749C57.1796 53.4855 57.2237 53.4034 57.2885 53.339C57.3534 53.2746 57.4359 53.2308 57.5257 53.2131C57.6156 53.1954 57.7087 53.2047 57.7932 53.2397C57.8777 53.2748 57.9499 53.334 58.0006 53.4099C58.0514 53.4858 58.0783 53.575 58.0781 53.6662C58.0781 53.7267 58.0661 53.7866 58.0429 53.8424C58.0196 53.8983 57.9855 53.949 57.9425 53.9917C57.8995 54.0344 57.8485 54.0683 57.7924 54.0913C57.7362 54.1143 57.6761 54.1261 57.6154 54.126ZM57.8759 54.3813V60.8078H57.3548V54.3813H57.8759ZM56.2324 63.5686C56.0865 63.2344 56.2115 62.9839 56.6076 62.8172C55.9666 61.7118 57.631 60.6874 58.6107 61.8602C57.8685 62.4969 57.0724 63.0685 56.2313 63.5686H56.2324ZM60.6492 59.7772C60.5812 59.7178 60.5281 59.6432 60.4942 59.5596C60.4604 59.4759 60.4467 59.3855 60.4543 59.2957C60.4919 58.866 60.8869 58.868 61.0203 58.4654C61.1537 58.0627 60.8347 57.6838 60.3824 58.018L59.7498 58.483C59.7577 58.1899 59.8486 57.905 60.0119 57.6611C60.1752 57.4172 60.4044 57.2241 60.673 57.1042C60.9417 56.9842 61.2389 56.9423 61.5304 56.9831C61.8219 57.024 62.096 57.146 62.3209 57.3351C61.8358 58.1961 61.2761 59.0133 60.6482 59.7772H60.6492ZM63.7487 51.4991C63.5809 52.6491 62.4408 52.6678 61.5361 52.8567C61.2109 52.9136 60.8965 53.0207 60.6044 53.1743C60.1573 53.4254 59.7707 54.1281 60.2918 54.4124C60.8754 54.7311 61.1849 53.9226 61.7758 53.6994C62.4783 53.4337 63.0056 54.017 63.4236 54.9303C63.2318 55.4389 63.0751 55.8222 62.9535 56.0803C62.8712 55.8634 62.7378 55.4451 62.5773 55.0933C61.9791 53.7876 61.8134 54.975 61.4225 55.5375C60.9911 56.1602 60.3355 56.7989 59.4559 57.4534C59.1426 58.3847 58.7729 59.085 58.347 59.5541C58.3324 58.2983 58.3324 57.0428 58.347 55.7876C58.8431 55.3725 59.1005 54.7051 59.2735 54.1011C59.4153 53.5821 59.4361 53.4057 59.8988 52.9885C60.3157 52.6211 60.8264 52.4311 61.4173 52.3076C61.8342 52.2215 62.668 52.1447 62.9806 51.8551C63.0996 51.7393 63.1734 51.5852 63.1891 51.4202C63.2995 50.647 62.1146 50.4218 61.5591 50.3274C61.1422 50.2558 60.6451 50.1312 60.3751 49.7763C59.8811 49.1245 60.471 48.1613 60.8535 47.6092C61.1047 47.2449 61.5674 47.5635 61.3152 47.9268C61.1193 48.2122 60.545 49.0684 60.8233 49.4389C60.9838 49.6465 61.408 49.7337 61.657 49.7752C61.8824 49.8125 62.1058 49.8614 62.3261 49.9216C63.0869 50.1354 63.8801 50.5827 63.7477 51.4991H63.7487ZM60.0124 29.5979C61.5195 29.5314 61.3089 28.4842 60.594 28.4116C61.5393 27.8677 62.1239 28.7769 62.0103 29.6518C62.8889 29.5377 63.8019 30.121 63.261 31.0623C63.187 30.3503 62.1364 30.1396 62.0687 31.6404C65.8206 31.6902 63.7571 37.4525 64.3959 40.5039C63.7196 40.2019 63.2641 39.7587 63.3006 38.7083L63.4382 34.6938C63.4611 33.9071 62.9942 33.8511 62.9369 34.1957C62.8639 35.3591 62.8326 37.4816 62.7524 39.0218C62.075 38.7198 61.8457 38.3482 61.8811 37.2979L61.9926 33.7234C62.0156 32.9357 61.5487 32.8796 61.4924 33.2252C61.4184 34.3887 61.41 36.1552 61.3381 37.575C60.6617 37.273 60.4283 36.9388 60.4668 35.8884L60.5304 33.2834C60.5533 32.4967 60.1531 32.3296 59.8665 32.615C59.7609 32.7436 59.6723 32.8852 59.6029 33.0364C58.5607 35.1682 56.4637 33.0934 58.6128 32.0504C58.7643 31.9808 58.9065 31.8926 59.0359 31.7878C59.3225 31.5024 59.1547 31.1028 58.3637 31.1267L55.7488 31.191C54.6941 31.2273 54.3575 30.9949 54.0563 30.3213C55.4809 30.2497 57.2548 30.2414 58.422 30.1677C58.7691 30.1116 58.7128 29.6487 57.9218 29.6695L54.3324 29.7805C53.2788 29.8179 52.9036 29.5875 52.6024 28.9139C54.1469 28.8361 56.2793 28.8029 57.4476 28.7302C57.7946 28.6731 57.7373 28.2113 56.9473 28.231L52.9161 28.3711C51.8614 28.4074 51.4164 27.956 51.1141 27.2803C54.1761 27.9186 59.9635 25.8584 60.0124 29.5979ZM35.208 30.67C35.2729 30.7344 35.3171 30.8165 35.3351 30.9059C35.353 30.9954 35.3439 31.0881 35.309 31.1724C35.274 31.2566 35.2147 31.3287 35.1385 31.3794C35.0624 31.4301 34.9729 31.4571 34.8813 31.4571C34.7897 31.4571 34.7002 31.4301 34.6241 31.3794C34.548 31.3287 34.4887 31.2566 34.4537 31.1724C34.4187 31.0881 34.4096 30.9954 34.4276 30.9059C34.4455 30.8165 34.4897 30.7344 34.5546 30.67C34.5975 30.6272 34.6484 30.5933 34.7045 30.5701C34.7605 30.547 34.8206 30.5351 34.8813 30.5351C34.942 30.5351 35.0021 30.547 35.0582 30.5701C35.1142 30.5933 35.1652 30.6272 35.208 30.67ZM32.7214 29.3758L33.255 28.8444L33.6812 29.4578L34.1054 28.8444L34.638 29.3758L34.022 29.7992L34.638 30.2227L34.1054 30.7499L33.6812 30.1365L33.255 30.7499L32.7214 30.2196L33.3373 29.7961L32.7214 29.3758ZM30.7558 29.657C31.0515 29.6163 31.3526 29.6657 31.6196 29.7987C31.8865 29.9317 32.1068 30.1421 32.2513 30.4022C32.3613 30.5978 32.4154 30.8196 32.4076 31.0436C32.3972 31.9196 31.6562 32.7541 31.4697 33.6311C31.403 33.9611 31.3769 34.3576 31.5072 34.6783C31.5379 34.7706 31.59 34.8544 31.6591 34.9231C31.7282 34.9917 31.8126 35.0433 31.9053 35.0737C32.4483 35.2138 32.8433 34.4012 33.1038 34.0286C33.7656 33.0862 34.4295 32.3358 36.3211 31.0447C35.8282 28.6576 37.381 25.8895 39.5582 27.7401C39.4687 28.1885 39.2256 28.5921 38.8703 28.8817C39.0562 28.9828 39.2179 29.1227 39.3442 29.292C39.4705 29.4613 39.5585 29.6559 39.602 29.8623C39.6455 30.0687 39.6435 30.282 39.5962 30.4876C39.5488 30.6931 39.4573 30.886 39.3279 31.053C40.0251 31.3519 40.5879 31.5076 41.1215 31.4048C41.5947 31.3135 41.6687 31.1744 42.0178 30.9232C42.2356 30.7676 42.4837 30.6866 42.7109 31.0779C42.0077 31.9393 40.6251 32.3199 38.5629 32.2195C37.7477 32.9434 36.8116 33.5194 35.7969 33.9217C35.8198 34.5956 35.1049 35.6369 33.652 37.0457C33.8667 38.2693 33.751 39.2626 33.2112 39.6507C32.7161 40.0057 32.0252 39.8967 32.5014 39.1152C32.8193 38.5963 33.4697 38.123 32.9183 37.5148C31.9032 36.3513 34.1909 35.7317 33.3665 34.5984C33.2143 34.7623 33.0622 34.9232 32.9131 35.0903C32.6307 35.4017 32.2201 35.6207 31.7896 35.5055C31.6287 35.4586 31.4813 35.3744 31.3594 35.2599C31.2375 35.1453 31.1445 35.0036 31.0882 34.8464C30.9236 34.4396 30.9402 33.9632 31.0278 33.5418C31.098 33.2382 31.2029 32.9436 31.3404 32.6638C31.5489 32.2029 31.946 31.5491 31.9532 31.0395C31.9595 30.8729 31.9124 30.7086 31.8188 30.5704C31.6843 30.638 31.5327 30.6645 31.3831 30.6465C31.2336 30.6285 31.0927 30.5669 30.9781 30.4694C30.8636 30.3719 30.7806 30.2428 30.7396 30.0985C30.6985 29.9541 30.7013 29.8009 30.7474 29.6581L30.7558 29.657ZM37.6405 34.8672C37.3018 35.9891 35.6802 36.5994 34.589 36.727C35.404 35.8317 35.8744 34.981 36.0001 34.1749C36.1648 34.5973 36.146 34.9149 36.0168 35.5055C36.812 35.3965 37.2768 34.5174 37.6405 34.8672ZM39.6708 62.2297C40.8102 62.2768 41.7055 62.0242 42.3565 61.4721C44.1428 62.3128 41.1361 64.5681 39.6708 62.2297ZM39.0361 61.6392C38.9516 62.1581 38.887 62.7424 38.8276 63.2915L38.2356 62.8545C38.3034 62.3429 38.3722 61.8353 38.417 61.3133C38.3326 61.2572 38.2471 61.197 38.1627 61.1317C38.0428 61.8 38.0585 62.183 38.0189 62.6885L36.9975 61.9329C37.1768 61.7544 37.3456 61.67 37.504 61.6797C37.554 61.3486 37.5968 60.9988 37.6343 60.6335C37.1601 60.1145 36.7359 59.4098 36.4045 58.482L36.5233 59.9682L36.4128 59.9236C35.8742 59.7317 35.424 59.3513 35.1461 58.8533C34.8683 58.3553 34.7817 57.7736 34.9027 57.2168C34.358 57.0426 33.8954 56.6772 33.6013 56.1885C33.3071 55.6999 33.2014 55.1214 33.3039 54.5609L33.3196 54.4436L34.5535 55.2884C33.9115 54.538 33.5113 53.8209 33.2966 53.1535C32.9597 53.002 32.6348 52.8636 32.3222 52.7384C32.2527 52.8767 32.0953 52.9805 31.8501 53.0497C31.7896 52.537 31.7458 52.1904 31.7021 51.7918C32.1638 52.015 32.491 52.2173 33.133 52.4477C33.1163 52.344 33.107 52.2402 33.1007 52.1364C32.6244 51.9143 32.1492 51.7212 31.6698 51.522L31.5854 50.7955C32.0919 51.0176 32.638 51.2563 33.1268 51.441C33.4478 49.138 36.0189 47.9672 36.9433 49.1982C37.0955 49.4012 37.1734 49.6499 37.1641 49.903C37.1548 50.1562 37.0589 50.3985 36.8922 50.5899C36.9558 49.9008 35.7521 49.1131 35.5728 50.7259C35.0903 55.0476 34.9016 57.2147 34.9016 57.2147C34.9016 57.2147 36.8818 58.1353 40.8797 59.88C42.3732 60.5307 42.2888 59.0995 41.6593 58.8099C41.9089 58.7621 42.1674 58.8007 42.3919 58.9195C42.6164 59.0383 42.7933 59.23 42.8932 59.4628C43.504 60.8826 41.1997 62.5141 39.0361 61.6392ZM34.9329 48.6657C34.1269 48.9515 33.4599 49.5971 32.9319 50.6024C31.6302 48.1727 35.0955 46.7073 34.9329 48.6688V48.6657ZM37.1976 53.0404C37.6236 52.7956 38.1129 52.682 38.6037 52.7141C39.0944 52.7463 39.5646 52.9226 39.9548 53.2208C40.3449 53.5191 40.6375 53.9258 40.7955 54.3897C40.9535 54.8535 40.9698 55.3536 40.8424 55.8266C40.715 56.2997 40.4496 56.7245 40.0798 57.0474C39.7099 57.3703 39.2522 57.5766 38.7646 57.6405C38.2769 57.7043 37.7812 57.6226 37.3402 57.4059C36.8991 57.1892 36.5325 56.847 36.2867 56.4228C35.9581 55.8543 35.8695 55.1791 36.0403 54.5455C36.211 53.912 36.6273 53.3717 37.1976 53.0435V53.0404ZM38.0095 46.18V44.7747H30.1242V42.8484H38.0095V34.1811H46.7869V26.3296H48.7212V34.1811H57.5007V42.8484H65.3839V44.7747H57.5007V46.1831C57.5007 51.1764 53.6175 55.3476 48.7212 55.8354V66.7974C48.4023 66.8151 48.0792 66.8244 47.7541 66.8244C47.4289 66.8244 47.1079 66.8151 46.7869 66.7974V55.8385C41.8927 55.3476 38.0095 51.1764 38.0095 46.1831V46.18Z" fill="#A3A2A2"/>
<path d="M36.0176 35.5089C35.9616 35.5172 36.0788 35.5089 36.0176 35.5089V35.5089Z" fill="#A3A2A2"/>
<path d="M39.8258 54.8398C39.9832 54.7485 40.5355 54.2306 40.4271 54.0448C40.3187 53.859 39.5934 54.077 39.435 54.1673C39.3454 54.2189 39.2801 54.3038 39.2534 54.4034C39.2267 54.5029 39.2409 54.609 39.2927 54.6982C39.3445 54.7873 39.4298 54.8524 39.5298 54.8789C39.6298 54.9055 39.7362 54.8914 39.8258 54.8398Z" fill="#A3A2A2"/>
<path d="M38.7884 56.5648C38.8801 56.7215 39.4002 57.2705 39.5867 57.1636C39.7733 57.0567 39.5565 56.3333 39.4648 56.1756C39.2053 55.7303 38.5299 56.1185 38.7884 56.5648Z" fill="#A3A2A2"/>
<path d="M37.7094 56.4066C37.6625 56.582 37.6396 57.3407 37.8481 57.3916C38.0565 57.4424 38.415 56.7834 38.463 56.608C38.5953 56.1098 37.8428 55.9095 37.7094 56.4066Z" fill="#A3A2A2"/>
<path d="M39.6639 55.9154C39.84 55.9621 40.6019 55.9849 40.654 55.7774C40.7061 55.5698 40.0422 55.2128 39.8661 55.166C39.3669 55.0353 39.1678 55.7825 39.6639 55.9154Z" fill="#A3A2A2"/>
<path d="M37.0568 55.5335C36.8983 55.6248 36.347 56.1427 36.4554 56.3285C36.4846 56.3814 36.5659 56.4011 36.6639 56.4011C36.9332 56.3851 37.1972 56.3192 37.4424 56.2071C37.5266 56.1529 37.5867 56.0686 37.6103 55.9716C37.6339 55.8746 37.6191 55.7722 37.5691 55.6857C37.519 55.5992 37.4375 55.5352 37.3414 55.5069C37.2452 55.4785 37.1419 55.488 37.0526 55.5335H37.0568Z" fill="#A3A2A2"/>
<path d="M54.7575 56.7403L54.8617 57.1389C54.8982 57.2821 54.9826 57.4066 55.1317 57.4066C55.2807 57.4066 55.3651 57.2811 55.3995 57.1389L55.5037 56.7393C56.0384 56.7393 56.1176 56.7071 56.2114 56.2203H54.0488C54.1437 56.7092 54.2291 56.7424 54.7575 56.7403Z" fill="#A3A2A2"/>
<path d="M62.4525 5.74264C62.4677 5.75505 62.482 5.76858 62.4952 5.78312C63.3498 6.58229 64.1304 7.09603 64.8203 7.4157C64.8491 7.42459 64.8767 7.43678 64.9027 7.45202C65.9074 7.89935 66.7151 7.93671 67.2789 7.85783C68.2961 7.71461 68.7932 7.16661 68.863 6.93828C69.3529 5.35655 68.6546 4.2097 66.7964 3.52989C64.8162 2.80338 61.4186 2.73903 59.9355 2.74733C60.6691 3.82915 61.5125 4.83288 62.4525 5.74264Z" fill="#A3A2A2"/>
<path d="M67.3383 25.4192H67.3456C67.7004 25.4837 68.0661 25.4536 68.4055 25.332C69.2226 25.0268 69.6394 24.1903 69.7603 23.9111C69.3685 22.3367 69.6978 20.5609 69.8416 19.9226C68.6699 19.7854 67.5167 19.5216 66.4024 19.1359C66.1022 19.908 65.3695 22.0326 65.7197 23.6268C65.777 23.8965 65.8706 24.1573 65.998 24.402H67.3258V25.415L67.3383 25.4192Z" fill="#A3A2A2"/>
<path d="M68.1741 33.1353C69.1861 33.2754 70.4763 32.7398 70.7682 30.7658C71.0402 28.9298 70.0991 25.7912 69.9021 25.1613C69.5817 25.5634 69.1603 25.8741 68.6806 26.0621C68.3706 26.1772 68.0423 26.2359 67.7114 26.2355C67.5894 26.2355 67.3477 26.2095 67.3477 26.2095L67.3539 32.7025C67.5662 32.9402 67.8574 33.0939 68.1741 33.1353Z" fill="#A3A2A2"/>
<path d="M70.0808 81.8446C67.7879 83.7948 57.096 88.624 56.7406 85.3993C56.7708 84.2722 60.0037 84.7185 60.9282 84.7185C62.7749 84.7185 62.7749 81.9162 60.9282 81.9162C57.4738 82.5982 53.973 83.0211 50.4551 83.1814V86.5908C52.5592 86.4969 54.6572 86.2957 56.7406 85.9878V88.8025C56.7406 92.5482 69.815 86.6406 72.3497 84.4891L69.1042 84.9146L70.0808 81.8446Z" fill="#A3A2A2"/>
<path d="M73.615 19.3579C72.5342 18.347 71.7859 17.2822 71.6828 15.9921C70.6574 15.4635 69.7323 14.7611 68.9491 13.9163C67.2753 12.0668 66.9689 9.63924 66.9136 8.66986C66.8792 8.66986 66.8449 8.66986 66.8094 8.66986C66.093 8.65986 65.3858 8.50632 64.7302 8.21838C63.342 9.17219 62.5103 10.5692 62.3978 12.181C62.2633 14.0606 63.1044 15.9734 64.6448 17.2977C66.7761 19.1254 71.2898 19.3662 73.615 19.3579Z" fill="#A3A2A2"/>
<path d="M72.7731 26.1044C73.3765 26.23 73.8153 26.0961 74.0154 25.9435C74.6991 25.4101 74.796 24.8081 74.8074 24.6213C73.8517 23.1382 73.4109 20.9462 73.2744 20.1397C72.5229 20.1397 71.6068 20.1055 70.6199 20.0121C70.4844 20.5933 69.9946 23.0157 70.8283 24.559C71.4276 25.6768 72.3051 26.0069 72.7731 26.1044Z" fill="#A3A2A2"/>
<path d="M71.5084 31.0532C71.7649 31.6007 72.2034 32.0431 72.7496 32.306C73.1092 32.4772 73.9158 32.5519 74.5891 32.1856C75.1613 31.8742 75.4979 31.3189 75.5938 30.5385C75.7887 28.9432 75.1665 26.9858 74.882 26.2001C74.7632 26.3286 74.6338 26.447 74.4953 26.554C74.1826 26.8 73.7355 26.9298 73.2447 26.9298C73.0345 26.9291 72.825 26.9072 72.6193 26.8644C71.9963 26.7312 71.4215 26.4312 70.957 25.9967C71.3062 27.3075 71.7585 29.4217 71.5427 30.8799C71.5313 30.9401 71.5198 30.9951 71.5084 31.0532Z" fill="#A3A2A2"/>
<path d="M67.0666 2.79996C70.2255 3.95408 69.9003 6.23948 69.6137 7.16838C69.4438 7.71223 68.7383 8.33391 67.6919 8.56847C67.7378 9.39877 68.0046 11.7039 69.5293 13.3915C70.1647 14.0788 70.9051 14.662 71.7231 15.1195C73.4626 15.0023 74.5131 15.2233 74.8675 15.7869C75.0905 15.7708 75.3068 15.7035 75.4995 15.5905C75.6922 15.4774 75.8561 15.3216 75.9784 15.1351C76.7924 13.8959 75.6658 13.1798 74.4037 13.2804C74.2983 13.2885 74.194 13.2547 74.1136 13.1864C74.0331 13.1182 73.9831 13.021 73.9743 12.9161C73.9274 12.3142 76.7288 11.8668 77.424 12.2934C78.2314 11.0418 78.7085 9.60739 78.8111 8.12323C75.672 5.16874 72.0914 3.4898 68.0692 3.08641C68.1859 1.02831 64.582 0.398315 60.3965 1.97173H60.4027C62.088 1.97692 65.1448 2.10354 67.0666 2.79996ZM71.1051 5.83263C72.732 5.83263 74.0973 6.48234 75.4824 7.55447L73.054 7.17149C72.8671 7.40717 72.5971 7.56322 72.2989 7.60801C72.0007 7.65279 71.6965 7.58295 71.4481 7.41265C71.1996 7.24235 71.0255 6.98433 70.9611 6.69093C70.8966 6.39752 70.9466 6.09068 71.1009 5.83263H71.1051Z" fill="#A3A2A2"/>
<path d="M74.0693 20.1337C74.2569 21.1715 74.8541 23.9063 76.0933 24.9442C77.0709 25.76 78.0089 25.7465 78.4789 25.6635C79.0855 25.5597 79.4481 25.2712 79.5732 25.0574C79.7046 24.8336 79.7923 24.5871 79.8317 24.3308C78.0714 22.6702 76.0797 21.3947 74.4998 20.1171L74.0693 20.1337Z" fill="#A3A2A2"/>
<path d="M78.0442 26.4787C77.3303 26.4726 76.6338 26.2591 76.04 25.8643C76.3225 26.6946 77.0927 28.6125 78.4131 29.4242C80.1025 30.462 81.522 29.5414 81.9087 28.9623C82.2213 28.4942 82.3454 27.9244 82.3891 27.446C81.8479 26.5507 81.206 25.7199 80.4756 24.9696C80.4151 25.1363 80.3402 25.2974 80.2516 25.4512C79.966 25.9359 79.3542 26.3022 78.6153 26.4299C78.4267 26.4626 78.2356 26.4789 78.0442 26.4787Z" fill="#A3A2A2"/>
<path d="M77.0625 44.5211C77.4285 46.4848 77.9573 48.4149 78.6435 50.2917C79.6034 52.8448 81.4887 56.4432 84.7821 55.5786L77.4763 44.2408C77.3408 44.3343 77.2032 44.4287 77.0625 44.5211Z" fill="#A3A2A2"/>
<path d="M90.2496 57.7419L80.0662 41.9371C79.4831 42.5969 78.8405 43.2021 78.1465 43.7451L86.3069 56.4466C86.7682 57.0188 87.386 57.4456 88.0857 57.6754C88.7854 57.9053 89.537 57.9284 90.2496 57.7419Z" fill="#A3A2A2"/>
<path d="M90.5658 58.9439C89.4798 59.2286 88.3295 59.145 87.2964 58.7062C83.4194 60.2693 78.1251 56.6668 75.8009 45.0883L73.0078 46.3659C73.0766 48.3015 72.9036 51.2346 71.5832 52.7717C70.9266 53.5366 70.245 53.8666 70.4878 53.3051C71.4889 51.0129 71.9317 48.5175 71.7801 46.0224C71.7714 45.9011 71.8003 45.7801 71.8629 45.6758C71.9256 45.5714 72.0189 45.4888 72.1303 45.4391C73.9323 44.615 75.6738 43.9601 77.2517 42.7406C81.0568 39.7827 82.1438 35.7609 83.7915 31.052C83.6118 30.1846 83.332 29.3407 82.9577 28.5373C82.863 28.8418 82.7262 29.1317 82.5513 29.3987C82.1115 30.0546 81.1349 30.6732 79.9552 30.6732C79.2608 30.6661 78.5825 30.4643 77.9979 30.091C77.2527 29.6343 76.6712 28.9088 76.2262 28.1771C76.3742 28.9659 76.4586 29.8377 76.3596 30.6379C76.2022 31.9374 75.5081 32.5694 74.9547 32.8725C74.5057 33.1105 74.0042 33.2335 73.4956 33.2305C73.1206 33.2375 72.7487 33.1631 72.4055 33.0126C71.9377 32.7896 71.5277 32.4625 71.2069 32.0567C70.6441 33.3655 69.5561 33.9384 68.4805 33.9384C68.195 33.9384 67.4831 33.8647 67.3133 33.6675V49.2937C67.3118 51.8908 66.7875 54.4613 65.7712 56.8531C64.755 59.2449 63.2675 61.4095 61.3967 63.2189C68.0084 66.674 68.2002 75.9962 61.6051 72.7674C61.3175 72.6024 60.9951 72.5069 60.6637 72.4886C60.3323 72.4703 60.0012 72.5298 59.6971 72.6621C59.3929 72.7945 59.1243 72.9961 58.9126 73.2507C58.701 73.5053 58.5523 73.8058 58.4785 74.128L59.0632 74.4944C59.261 74.1666 59.5332 73.8895 59.858 73.6855C60.1828 73.4814 60.5512 73.356 60.9334 73.3194C61.3157 73.2828 61.7013 73.3359 62.0592 73.4745C62.4171 73.6132 62.7374 73.8334 62.9944 74.1177C62.7079 73.9326 62.3808 73.8191 62.0408 73.7868C61.7009 73.7545 61.3582 73.8043 61.0417 73.932C60.7252 74.0598 60.4444 74.2617 60.2229 74.5205C60.0015 74.7794 59.8461 75.0877 59.7698 75.4192C59.9587 75.5519 60.1546 75.6745 60.3566 75.7866C60.554 75.4585 60.826 75.1812 61.1507 74.9769C61.4754 74.7726 61.8436 74.647 62.2259 74.6103C62.6082 74.5735 62.9938 74.6266 63.3517 74.7653C63.7096 74.904 64.0299 75.1244 64.2867 75.4088C64.0003 75.2235 63.6732 75.1098 63.3331 75.0774C62.9931 75.045 62.6503 75.0949 62.3338 75.2228C62.0173 75.3507 61.7365 75.5528 61.5153 75.8119C61.294 76.0711 61.1389 76.3797 61.0632 76.7113C61.6558 77.1368 62.3295 77.437 63.0429 77.5936C63.7563 77.7501 64.4943 77.7598 65.2116 77.6218C65.9289 77.4839 66.6102 77.2013 67.2138 76.7914C67.8174 76.3816 68.3304 75.8531 68.7213 75.2386C69.0886 75.4006 69.5004 75.4335 69.889 75.3319C70.2775 75.2302 70.6199 75.0001 70.8599 74.6792C73.6311 69.1307 72.3554 71.6973 73.6217 69.2822C68.6275 67.5303 69.3601 58.7633 72.8411 56.9107C72.3262 57.5096 71.3674 60.7747 71.382 63.0767C71.4112 66.9895 76.2585 65.6123 77.3017 71.1722C77.8478 74.0782 76.1219 76.9241 72.889 76.3844C72.5328 76.3002 72.1617 76.3005 71.8056 76.3853C71.4496 76.47 71.1184 76.6368 70.8389 76.8723C70.5594 77.1078 70.3393 77.4053 70.1963 77.7409C70.0533 78.0765 69.9914 78.4409 70.0157 78.8047L70.7452 79.0123C70.8505 78.6039 71.0504 78.2257 71.329 77.9081C71.6075 77.5905 71.9569 77.3423 72.3492 77.1835C72.7414 77.0247 73.1656 76.9596 73.5877 76.9935C74.0098 77.0274 74.418 77.1593 74.7796 77.3787C74.4184 77.273 74.0369 77.2557 73.6675 77.3282C73.2981 77.4008 72.9518 77.561 72.6579 77.7953C72.364 78.0296 72.1312 78.3311 71.9793 78.6741C71.8274 79.0172 71.7609 79.3917 71.7853 79.7658C72.0247 79.8475 72.2683 79.9168 72.5149 79.9734C72.62 79.5648 72.8199 79.1865 73.0984 78.8688C73.3769 78.5511 73.7263 78.3028 74.1185 78.1439C74.5108 77.9849 74.935 77.9198 75.3571 77.9536C75.7793 77.9874 76.1876 78.1193 76.5492 78.3387C76.1881 78.2332 75.8067 78.2161 75.4375 78.2887C75.0683 78.3613 74.7221 78.5216 74.4283 78.7559C74.1345 78.9902 73.9018 79.2916 73.75 79.6345C73.5981 79.9775 73.5316 80.3518 73.556 80.7258C74.3169 80.9892 75.1238 81.0948 75.9272 81.0361C76.7305 80.9775 77.5134 80.7557 78.2275 80.3845C78.9416 80.0134 79.5719 79.5006 80.0796 78.8778C80.5873 78.2551 80.9617 77.5354 81.1797 76.7632C81.6196 76.8186 82.0652 76.7237 82.4439 76.494C82.8225 76.2644 83.1117 75.9136 83.2642 75.4991V65.4296C82.1887 65.434 81.127 65.1888 80.1632 64.7135C79.1995 64.2382 78.3602 63.5458 77.7118 62.6913C77.0635 61.8368 76.624 60.8436 76.4282 59.7905C76.2324 58.7374 76.2856 57.6533 76.5836 56.6243C80.8087 61.5926 86.9014 62.836 90.744 58.9709L90.6784 58.9086C90.6429 58.9221 90.6044 58.9335 90.5658 58.9439Z" fill="#A3A2A2"/>
<path d="M91.8482 50.4673L93.695 53.3329C94.2835 50.9997 94.2772 48.3625 93.6762 45.4212C92.7497 40.8836 83.693 25.8053 88.8821 25.8344C88.8838 26.2883 89.0529 26.7258 89.3571 27.0638C89.6613 27.4018 90.0796 27.6168 90.5325 27.668C90.9854 27.7192 91.4415 27.6031 91.814 27.3416C92.1866 27.0801 92.4499 26.6915 92.5538 26.2495C93.0834 23.8147 92.8703 21.2779 91.9418 18.9646C91.0133 16.6513 89.4117 14.6671 87.3427 13.2667C88.2046 15.6611 86.3704 19.1909 85.8118 23.8728C84.5934 34.1031 92.4787 41.2697 91.8482 50.4673Z" fill="#A3A2A2"/>
<path d="M82.4883 38.2338C81.9813 39.2895 81.3682 40.2914 80.6582 41.2239L91.198 57.6306C91.7596 58.3278 92.5122 58.8478 93.3646 59.1278C94.2169 59.4078 95.1325 59.4357 96.0005 59.2082L82.4883 38.2338Z" fill="#A3A2A2"/>
</svg>
