<svg width="60" height="57" viewBox="0 0 60 57" fill="none" xmlns="http://www.w3.org/2000/svg">
<path d="M3.62282 12.7654C3.90421 12.9503 4.85652 12.1706 5.68312 11.2469C5.8047 11.0172 5.94022 10.7952 6.08893 10.582C6.06287 10.582 6.03682 10.5904 6.01141 10.5904C5.8961 10.5931 5.78264 10.5612 5.68573 10.499C5.42517 10.3284 5.35352 10.0228 5.37958 9.66866C5.38311 9.66569 5.38543 9.66154 5.38609 9.65698C4.81028 10.2113 4.27357 10.8045 3.7798 11.4324C3.78645 11.4299 3.7923 11.4256 3.79673 11.4201C3.53097 12.07 3.41828 12.6311 3.62282 12.7654Z" fill="white"/>
<path d="M7.02377 10.1517C7.01899 10.1634 7.01287 10.1745 7.00553 10.1848C6.52612 10.7414 5.79202 11.8143 5.86041 12.3254C5.86332 12.3632 5.87487 12.3997 5.89417 12.4324C5.91348 12.465 5.94004 12.4927 5.9718 12.5135C6.24017 12.6939 7.20942 12.0225 8.12134 11.1773C7.98995 11.1791 7.86096 11.1421 7.75071 11.0709C7.65727 11.0083 7.57863 10.9262 7.52025 10.8303C7.46187 10.7344 7.42515 10.6271 7.41264 10.5156C7.38203 10.2821 7.4387 10.0109 7.54292 9.73267C7.37738 9.88133 7.20409 10.0212 7.02377 10.1517Z" fill="white"/>
<path d="M5.38148 12.4047C5.0851 13.3777 3.92696 16.6801 1.32666 18.9193C1.93374 18.9621 2.94468 18.9368 3.83641 18.4548C5.67916 17.4591 7.55447 14.2508 7.96679 13.5171C7.69843 13.1416 7.83652 12.4845 8.06971 11.8818C7.41833 12.4501 6.62496 13.0164 6.05761 13.0164C5.9306 13.0199 5.80556 12.9846 5.69935 12.9152C5.61314 12.8573 5.54023 12.7819 5.48544 12.6939C5.43065 12.6059 5.39521 12.5073 5.38148 12.4047Z" fill="white"/>
<path d="M5.95758 10.0946C6.24549 10.2834 7.45249 9.28833 8.55723 7.95077C8.39448 7.81412 8.24844 7.65889 8.12211 7.48827C8.12211 7.48827 8.12211 7.48827 8.12211 7.48438C8.0016 7.56222 7.87979 7.64265 7.75799 7.72698C7.13679 8.15355 6.54188 8.61689 5.97647 9.11449C5.98477 9.11122 5.99247 9.10662 5.99927 9.10087C5.83512 9.59256 5.79148 9.98501 5.95758 10.0946Z" fill="white"/>
<path d="M10.4112 14.3066C10.3865 14.295 10.3625 14.2818 10.3396 14.267C9.91554 13.9874 9.93899 13.4574 10.0999 12.9463C9.57878 13.3919 8.97951 13.7896 8.50336 13.7896C8.46119 13.7893 8.41913 13.7854 8.37764 13.7779C8.00766 14.4402 6.68406 16.7066 5.1416 18.0981C7.90148 18.5787 9.88493 15.2951 10.4112 14.3066Z" fill="white"/>
<path d="M9.1281 10.8194C9.12406 10.8315 9.11905 10.8432 9.11312 10.8544C9.11164 10.8613 9.10946 10.8681 9.1066 10.8745C8.5132 11.869 8.0885 13.071 8.39986 13.2746C8.69168 13.4692 9.6277 12.7849 10.4569 11.9403C10.4293 11.9278 10.4027 11.913 10.3774 11.8962C9.85178 11.5492 10.0394 10.6728 10.3455 9.90283C9.96834 10.2443 9.56087 10.5511 9.1281 10.8194Z" fill="white"/>
<path d="M8.88684 35.288C7.04605 30.2517 4.97207 25.4282 5.4137 19.821C5.44822 19.2158 6.15236 19.2301 6.11523 19.8613C5.6013 25.3101 7.75475 30.0688 9.55189 35.0448C10.6547 34.3961 10.9504 33.3141 10.428 31.767C9.07899 27.1147 7.7313 22.5961 8.47387 17.5559C7.70589 18.1793 6.78029 18.6411 5.72571 18.6411C5.37031 18.6389 5.01693 18.5876 4.67569 18.4887C4.48465 18.6349 4.2828 18.7665 4.07186 18.8824C3.26676 19.3177 2.39457 19.4234 1.73668 19.4234C1.42187 19.4241 1.10753 19.3994 0.796742 19.3495C0.624779 19.4792 0.44565 19.6024 0.26131 19.7205C0.296919 19.4948 0.336436 19.2692 0.379861 19.0439C2.87268 17.24 4.19432 14.2859 4.71673 12.8485C4.39104 13.0956 4.0432 13.2701 3.70318 13.2701C3.58008 13.2724 3.45911 13.2379 3.356 13.1708C3.12672 13.0197 3.04399 12.7622 3.04529 12.4573C3.04786 12.4527 3.04942 12.4476 3.04985 12.4424C0.683403 15.9627 -0.201818 20.1447 0.0378883 24.4111C0.449558 31.7411 3.78135 36.1553 6.20382 42.6517C7.56715 42.4747 8.26803 41.0359 7.74042 39.7807C5.44236 34.1178 2.44798 28.9991 2.57826 22.6447C2.57826 22.0389 3.28109 22.0123 3.28109 22.6447C3.06353 28.6968 6.08201 33.8278 8.2791 39.2391C9.38775 38.3141 9.59033 36.997 8.88684 35.288Z" fill="white"/>
<path d="M9.39218 8.40385C9.2647 8.36727 9.14102 8.31861 9.02285 8.25854C8.50826 8.88776 7.82432 9.93082 7.89467 10.4504C7.89792 10.4938 7.91105 10.5358 7.93305 10.5733C7.95506 10.6109 7.98538 10.6429 8.02169 10.6671C8.39362 10.9155 9.86964 9.78941 11.018 8.58094C10.9718 8.51607 10.932 8.45574 10.9008 8.40255C10.4073 8.53864 9.88594 8.53908 9.39218 8.40385Z" fill="white"/>
<path d="M11.1625 11.9135C10.7144 12.6141 10.2864 13.6474 10.6108 13.8596C10.6555 13.8865 10.708 13.898 10.7599 13.892C10.7682 13.8914 10.7765 13.8914 10.7847 13.892C11.1944 13.8407 11.9806 13.1687 12.6255 12.4072C12.333 12.0647 12.4177 11.4549 12.6183 10.8562C12.1572 11.3044 11.6315 11.7339 11.1625 11.9135Z" fill="white"/>
<path d="M12.0395 9.32788C11.79 9.24999 11.5595 9.12119 11.3627 8.94971C10.8169 9.88834 10.2821 11.2525 10.6495 11.4945C10.6863 11.5127 10.7265 11.5234 10.7676 11.5257C10.8087 11.5281 10.8498 11.5221 10.8885 11.5081C10.9137 11.4956 10.9408 11.4875 10.9687 11.4841C11.5197 11.281 12.5092 10.3586 13.2986 9.38626C13.2986 9.38626 13.3032 9.38626 13.3038 9.38108L13.369 9.26691C12.9484 9.44907 12.4752 9.47077 12.0395 9.32788Z" fill="white"/>
<path d="M11.7512 16.2033C12.4899 15.722 13.6787 14.2929 14.588 13.1195C15.1664 11.5452 14.8303 12.4345 15.1664 11.5452C14.4727 12.1134 13.6904 12.6297 13.1328 12.6297C13.1133 12.6297 13.095 12.6297 13.0761 12.6265C12.74 13.0326 11.7532 14.1496 10.9442 14.3422C10.5109 15.207 9.96707 16.0122 9.32617 16.7378C9.91762 16.7728 10.939 16.7358 11.7512 16.2033Z" fill="white"/>
<path d="M14.6716 9.97191C14.3295 9.94925 14.0023 9.82396 13.733 9.61255C13.1943 10.5499 12.6758 11.8829 13.0393 12.1249C13.3761 12.3467 14.6677 11.4178 15.8129 10.3151C15.8831 10.0927 15.939 9.86603 15.9803 9.63655C15.6308 9.85576 15.2267 9.97327 14.8136 9.97581C14.7661 9.97581 14.7185 9.97581 14.6716 9.97191Z" fill="white"/>
<path d="M9.52786 7.93737C9.9912 8.06202 10.4818 8.04232 10.9335 7.88093L11.1667 7.78428L11.2553 8.01845C11.2553 8.02364 11.5159 8.65675 12.1822 8.86173C12.8609 9.0719 13.3065 8.74821 13.3111 8.74497L13.5423 8.57307L13.6726 8.82865C13.6849 8.85265 14.0035 9.4397 14.703 9.48575C15.3134 9.52792 15.7837 9.2172 16.0423 8.98952C16.0722 7.55076 15.2365 6.40974 12.9704 6.09968C11.6029 5.91286 10.1232 6.28952 8.53125 7.22967H8.53776C8.70842 7.44697 9.04388 7.79855 9.52786 7.93737Z" fill="white"/>
<path d="M15.5893 12.6107C15.4746 13.4059 15.474 14.2862 15.799 14.4231C16.1859 14.5852 16.92 13.7095 17.3734 12.9674C16.9617 12.7235 16.6966 12.0781 16.537 11.5183C15.9625 12.0976 16.1664 11.8375 15.5893 12.6107Z" fill="white"/>
<path d="M15.9333 28.9691C15.8975 29.6288 15.9333 30.4928 16.3626 31.0358C16.6948 31.458 17.1996 31.5956 17.7103 31.6085C17.6502 31.1176 17.6198 30.6235 17.6191 30.1289V19.5607C16.9636 19.0925 16.3747 18.5383 15.8682 17.9131C15.2455 18.7347 14.6232 19.5577 14.0014 20.3819L13.9818 20.4085L13.064 21.6274C12.8487 21.9081 12.7381 22.2546 12.751 22.6076C12.764 22.9606 12.8997 23.2981 13.135 23.5624C13.9245 24.4636 14.7135 25.3644 15.5021 26.2648C15.7169 26.5044 15.8756 26.7886 15.9666 27.0967C16.0576 27.4049 16.0788 27.7294 16.0284 28.0467C15.9841 28.3528 15.9477 28.6584 15.9333 28.9691Z" fill="white"/>
<path d="M16.9248 11.0795L16.9287 11.0743C17.1052 11.8125 17.4172 12.5792 17.7266 12.5844H17.7306C18.0849 12.5844 18.4106 11.6347 18.548 10.8375C18.1826 10.8109 17.8042 10.5722 17.4544 10.2537C17.4547 10.2507 17.4547 10.2476 17.4544 10.2446C17.3025 10.5377 17.1253 10.817 16.9248 11.0795Z" fill="white"/>
<path d="M17.8457 13.1296C17.5539 13.6239 16.7071 14.9284 15.8916 14.9284C15.7943 14.9285 15.6979 14.9091 15.6083 14.8713C15.1412 14.6767 15.022 14.043 15.0285 13.4047C14.8618 14.667 15.1777 16.0558 15.7985 16.9996C16.2969 17.7425 16.9111 18.4016 17.6178 18.9521V14.5723H18.4769C18.2112 14.1174 17.9993 13.6332 17.8457 13.1296Z" fill="white"/>
<path d="M18.8794 7.26508C18.8774 7.24848 18.8774 7.23172 18.8794 7.21513C18.8794 7.20605 18.8794 7.19632 18.8794 7.18659C18.8566 7.18659 18.8318 7.18659 18.8084 7.18659C18.6253 7.18605 18.4428 7.16648 18.2638 7.12821C18.2637 7.1237 18.2626 7.11928 18.2606 7.11523C18.2356 8.0357 18.0367 8.94324 17.6743 9.79036C17.6775 9.78864 17.68 9.7859 17.6815 9.78258C18.0834 10.1835 18.4755 10.4358 18.7465 10.3333C19.3842 10.0926 19.1165 8.16998 18.8865 7.27675C18.8836 7.27319 18.8812 7.26926 18.8794 7.26508Z" fill="white"/>
<path d="M16.5528 47.4557C17.4041 42.2663 17.6979 39.9311 17.6979 39.9311C17.7214 39.8221 17.7363 39.7242 17.7539 39.6405C17.8731 39.0703 18.5323 39.2286 18.546 39.765C18.5465 39.9078 18.533 40.0504 18.5056 40.1905C17.724 45.6796 17.4393 48.5999 17.4393 48.5999C16.9358 50.8833 20.0376 51.6863 20.2096 48.5351C20.2454 47.8825 20.2585 47.254 20.2695 46.6001C20.3347 42.6938 20.3633 40.3028 20.3633 40.3028L20.3555 37.7853C19.0576 36.1991 18.1837 34.3117 17.8151 32.2988C17.0537 32.2988 16.317 32.0932 15.8206 31.462C15.0924 30.5357 15.1862 29.058 15.3477 27.952C15.3837 27.7325 15.3696 27.5077 15.3065 27.2944C15.2433 27.081 15.1328 26.8845 14.983 26.7195L12.6165 24.0133C12.2772 23.6306 12.0814 23.1427 12.0625 22.6325C12.0436 22.1223 12.2028 21.6214 12.5129 21.2149L15.4396 17.3339C15.4239 17.3112 15.4077 17.2891 15.3927 17.2651C14.8247 16.4024 14.4951 15.1965 14.5094 14.0107C13.6626 15.0655 12.6856 16.1747 12.0192 16.6113C11.2375 17.1237 10.31 17.2372 9.64428 17.2372C9.45734 17.2372 9.29514 17.2282 9.15966 17.2165H9.1564C9.194 17.3133 9.20502 17.4183 9.18832 17.5207C8.34609 22.4902 9.81103 27.1256 11.1815 31.8259C11.8212 31.5587 12.4309 30.9041 12.6914 30.0849C12.8014 29.7422 12.8436 29.3816 12.8158 29.023C12.5651 27.3034 14.8025 28.3912 13.6014 31.2434C11.9951 35.0822 10.2559 38.9438 8.83071 42.8482C8.10964 44.8253 10.0091 45.3572 10.6722 43.853C11.8349 41.2155 12.8341 38.5228 13.8841 35.8379C13.9707 35.4922 14.5387 35.6031 14.426 36.0111C13.3838 38.9671 12.3924 42.0873 11.2994 45.0121C10.5764 46.9413 12.8543 48.0239 13.3838 45.6264C13.9518 43.0499 14.8625 40.2424 15.5666 37.6478C15.7151 37.1029 16.4271 37.1548 16.2089 38.0648C14.697 44.3836 14.116 47.0619 14.116 47.0619C13.3369 49.6352 16.4264 50.1289 16.5528 47.4557Z" fill="white"/>
<path d="M18.2661 12.8305C18.3886 13.2573 18.6817 14.0442 19.0725 14.5754H20.6358C20.9433 14.0714 21.1068 13.339 21.166 12.9103C20.3036 12.7235 19.4321 11.3989 19.0549 10.7573C18.9937 11.1725 18.7833 12.3239 18.2661 12.8305Z" fill="white"/>
<path d="M21.47 12.4255C21.9976 12.2465 21.9585 10.809 21.754 9.71338C21.6668 9.74355 21.5753 9.75933 21.483 9.76009C20.8121 9.76009 20.0897 9.00893 19.5719 8.33301C19.6559 9.0206 19.6709 9.84571 19.3882 10.3601C19.9516 11.3571 20.9313 12.6071 21.47 12.4255Z" fill="white"/>
<path d="M20.7826 6.17676C20.4631 6.57601 20.0411 6.88174 19.5613 7.06155C19.4906 7.08678 19.4186 7.10843 19.3457 7.12642C19.9541 8.14743 21.0484 9.46618 21.6099 9.25277C22.2105 9.02573 22.0059 7.30675 21.7884 6.35903C21.4432 6.3817 21.0977 6.31908 20.7826 6.17676Z" fill="white"/>
<path d="M21.5977 13.2627C21.5158 13.7151 21.3761 14.1552 21.1821 14.5724H22.6601C22.2133 14.1553 21.8368 13.6311 21.5977 13.2627Z" fill="white"/>
<path d="M20.7388 40.812C21.2384 41.1934 21.7158 42.0743 22.2304 42.038C22.648 42.0088 22.887 41.499 22.6408 41.1616C22.3372 40.7439 21.3543 40.9469 20.7388 40.812Z" fill="white"/>
<path d="M21.3423 42.8536L21.9344 43.1287C22.9707 43.6106 23.7719 42.8601 24.1875 42.5708L23.5954 42.2958C22.5584 41.8145 22.0998 42.7875 21.3423 42.8536Z" fill="white"/>
<path d="M23.2902 40.2335L22.6987 39.9585C23.1352 40.5786 22.6805 41.5549 23.7175 42.0343C23.9129 42.1257 24.1129 42.2172 24.3096 42.3093C24.2653 41.8079 24.3272 40.7148 23.2902 40.2335Z" fill="white"/>
<path d="M24.4806 8.16735C25.0766 7.94226 24.8812 6.24922 24.6662 5.29956C24.4581 5.41005 24.2301 5.4784 23.9953 5.50067C23.7605 5.52294 23.5237 5.49868 23.2983 5.4293C23.0786 5.79981 22.7368 6.08311 22.3311 6.23106C22.9538 7.21769 23.9497 8.36714 24.4806 8.16735Z" fill="white"/>
<path d="M24.7124 11.5097C25.3208 11.2502 25.0713 9.55718 24.8055 8.54265C24.7569 8.57435 24.7052 8.60108 24.6512 8.62244C24.5554 8.65945 24.4536 8.67879 24.3509 8.67952C23.6793 8.67952 22.9556 7.92836 22.4384 7.25244C22.5283 7.98285 22.5394 8.86829 22.1987 9.37231C22.897 10.4225 24.1196 11.7659 24.7124 11.5097Z" fill="white"/>
<path d="M21.8608 12.7607C22.1755 13.2797 22.8236 14.1878 23.458 14.5718H24.4481C24.9607 14.0827 24.9353 12.7497 24.8461 11.9739C24.7547 12.0064 24.6585 12.0235 24.5614 12.0245C23.7961 12.0245 22.9167 11.1073 22.3468 10.3931C22.4373 11.2461 22.423 12.341 21.8608 12.7607Z" fill="white"/>
<path d="M17.3843 4.38612C17.9133 4.85576 18.1966 5.68347 18.25 6.63572C18.2504 6.63357 18.2504 6.63138 18.25 6.62923C18.5229 6.69994 18.9581 6.75897 19.3932 6.60394C19.8422 6.43357 20.2284 6.13105 20.5005 5.73666L20.6308 5.52519L20.8399 5.66077C20.8458 5.66077 21.4261 6.02597 22.0879 5.80412C22.7615 5.57773 22.9347 5.0549 22.9347 5.04972L23.0207 4.77533L23.2773 4.90506C23.3021 4.91739 23.9059 5.20669 24.4987 4.8363C25.1403 4.43542 25.2927 3.7102 25.3285 3.44165C21.5733 -0.596987 16.1584 -0.735803 16.2692 1.24784C13.5152 1.25303 12.9406 2.46345 14.5378 4.46591C14.629 3.50652 16.3649 3.47798 17.3843 4.38612ZM19.0317 1.38795C18.8592 1.58676 18.6244 1.72183 18.3653 1.77132C18.5861 2.43426 18.5431 2.51146 18.0461 1.98927C17.7673 1.6978 17.3941 1.49736 16.9264 1.38795C17.6282 0.874204 18.3299 0.874204 19.0317 1.38795Z" fill="white"/>
<path d="M23.6992 43.9484C24.7368 44.4298 25.5374 43.6799 25.9536 43.3899L25.3609 43.1156C24.3239 42.6336 23.8627 43.6079 23.1084 43.6734C23.3032 43.7655 23.5038 43.857 23.6992 43.9484Z" fill="white"/>
<path d="M25.4812 42.8553L26.0733 43.1297C26.0296 42.627 26.0908 41.5339 25.0539 41.0539L24.4624 40.7795C24.8982 41.3977 24.4442 42.374 25.4812 42.8553Z" fill="white"/>
<path d="M27.3472 7.08351C27.4438 7.04131 27.5228 6.96703 27.5706 6.87334C27.1025 5.80063 26.4843 4.79931 25.7344 3.89917C25.6235 4.31066 25.4047 4.68542 25.1006 4.98505C25.7103 6.00152 26.7883 7.29562 27.3472 7.08351Z" fill="white"/>
<path d="M25.4621 44.7674C26.499 45.2488 27.3002 44.4989 27.7158 44.2089L27.1237 43.9339C26.0874 43.4526 25.6256 44.4262 24.8706 44.4924L25.4621 44.7674Z" fill="white"/>
<path d="M27.2453 43.6743L27.8374 43.9487C27.7931 43.4453 27.855 42.3523 26.818 41.8729L26.2266 41.5979C26.6623 42.2148 26.209 43.1923 27.2453 43.6743Z" fill="white"/>
<path d="M27.2204 7.59243C26.5495 7.59243 25.8272 6.84127 25.31 6.16211C25.3875 6.8043 25.4057 7.56584 25.1797 8.08283C25.1847 8.09047 25.189 8.0985 25.1927 8.10683C25.2005 8.13278 25.2142 8.17689 25.2305 8.23203C25.9307 9.28028 27.124 10.5789 27.7096 10.3272C28.2783 10.0827 28.0966 8.58815 27.8536 7.56519C27.8301 7.50032 27.806 7.44 27.7819 7.37772C27.6294 7.51723 27.4295 7.59396 27.2224 7.59243H27.2204Z" fill="white"/>
<path d="M27.5158 47.3279L27.8871 47.1548L27.5868 46.5132L27.2168 46.6864C27.1402 46.7215 27.0539 46.7295 26.9721 46.7092C26.8903 46.689 26.8179 46.6416 26.7667 46.5748L26.7016 46.4354C26.683 46.3536 26.693 46.2679 26.73 46.1925C26.7669 46.1172 26.8286 46.0566 26.9048 46.0209L27.278 45.8483L26.9771 45.2068L26.6045 45.3793C26.4041 45.4732 26.2374 45.6258 26.1268 45.8168C26.0161 46.0078 25.9669 46.228 25.9857 46.4477L25.5297 46.6585C25.3727 46.5029 25.1716 46.3989 24.9535 46.3607C24.7353 46.3224 24.5106 46.3516 24.3097 46.4445L23.8166 46.6728C23.6163 46.7668 23.4497 46.9195 23.3391 47.1104C23.2285 47.3014 23.1792 47.5215 23.1978 47.7412L22.7418 47.9526C22.5849 47.7971 22.384 47.6932 22.166 47.6548C21.948 47.6164 21.7234 47.6454 21.5225 47.7379L21.0287 47.9669C20.7826 48.0951 20.5956 48.3129 20.5066 48.575C20.4176 48.837 20.4335 49.1231 20.551 49.3738C20.6684 49.6245 20.8784 49.8204 21.1373 49.9208C21.3961 50.0212 21.6838 50.0184 21.9406 49.9129L22.4337 49.6839C22.634 49.5902 22.8006 49.4376 22.9113 49.2467C23.0219 49.0558 23.0712 48.8358 23.0525 48.6162L23.5085 48.4047C23.6653 48.5603 23.8661 48.6642 24.084 48.7026C24.3019 48.741 24.5264 48.712 24.7272 48.6195L25.2203 48.3905C25.4208 48.2967 25.5875 48.1441 25.6982 47.953C25.8088 47.762 25.858 47.5418 25.8391 47.3221L26.2951 47.1113C26.4519 47.2673 26.653 47.3717 26.8713 47.4105C27.0895 47.4492 27.3145 47.4204 27.5158 47.3279ZM22.1361 49.045L21.643 49.274C21.5989 49.2961 21.5507 49.3091 21.5015 49.3123C21.4522 49.3156 21.4028 49.3089 21.3562 49.2927C21.3095 49.2766 21.2666 49.2513 21.23 49.2183C21.1934 49.1853 21.1638 49.1453 21.143 49.1008C21.1222 49.0562 21.1106 49.0079 21.1088 48.9587C21.1071 48.9096 21.1153 48.8606 21.133 48.8147C21.1506 48.7688 21.1774 48.7269 21.2116 48.6914C21.2458 48.656 21.2869 48.6278 21.3323 48.6084L21.8247 48.3795C21.9131 48.34 22.0135 48.3367 22.1043 48.3704C22.195 48.4041 22.2689 48.472 22.3098 48.5594C22.3507 48.6468 22.3554 48.7468 22.3229 48.8377C22.2904 48.9285 22.2233 49.003 22.1361 49.045ZM24.9226 47.7509L24.4289 47.9799C24.3524 48.0152 24.2661 48.0235 24.1842 48.0033C24.1024 47.9832 24.0299 47.9357 23.9788 47.8689L23.9137 47.7288C23.8954 47.6471 23.9055 47.5617 23.9425 47.4865C23.9794 47.4113 24.0409 47.3508 24.1169 47.315L24.61 47.0853C24.6539 47.0649 24.7014 47.0533 24.7498 47.0511C24.7982 47.0489 24.8465 47.0563 24.8921 47.0727C24.9376 47.0892 24.9794 47.1144 25.0152 47.1469C25.051 47.1795 25.0799 47.2187 25.1005 47.2624C25.121 47.3061 25.1327 47.3534 25.1349 47.4016C25.137 47.4498 25.1297 47.498 25.1131 47.5433C25.0966 47.5887 25.0713 47.6304 25.0386 47.666C25.0059 47.7016 24.9665 47.7304 24.9226 47.7509Z" fill="white"/>
<path d="M21.6147 52.2701C22.1931 52.2701 24.213 51.9911 24.2313 52.6956C24.0235 54.5644 17.3495 51.7122 15.8936 50.4739L16.5059 52.3939L14.4775 52.128C16.1008 53.5058 24.2332 56.9619 24.2332 54.8239V53.0653C25.5354 53.2577 26.8466 53.3835 28.1617 53.4422V51.3165C25.9615 51.2248 23.7721 50.958 21.6147 50.5186C20.4617 50.5186 20.4617 52.2701 21.6147 52.2701Z" fill="white"/>
<path d="M25.1097 14.4807C25.124 14.5085 25.1436 14.5403 25.1625 14.5721H28.2331C28.2292 14.2705 28.2075 13.9695 28.1679 13.6705C28.0176 13.7298 27.8574 13.7602 27.6957 13.76C26.8489 13.76 25.9474 13.0108 25.3787 12.436C25.4132 13.0536 25.3872 13.8754 25.1045 14.4722C25.1061 14.4751 25.1078 14.4779 25.1097 14.4807Z" fill="white"/>
<path d="M27.5565 10.8426C26.8524 10.8426 26.0518 10.0642 25.4851 9.38696C25.6115 10.1654 25.6558 11.1027 25.2949 11.6281C25.8597 12.295 27.2067 13.5994 28.0398 13.1979C28.856 12.8042 28.6098 11.141 28.3837 10.2789C28.29 10.4977 28.1173 10.6736 27.8998 10.7719C27.7914 10.8186 27.6746 10.8426 27.5565 10.8426Z" fill="white"/>
<path d="M28.5967 13.3886C28.613 13.4152 28.624 13.4447 28.6292 13.4755C28.6871 13.8383 28.7204 14.2045 28.7289 14.5718H30.2596C30.1351 14.4952 30.0205 14.4037 29.9183 14.2993C29.4532 13.8173 29.2787 13.1135 29.4278 12.3183C29.4978 11.9769 29.6155 11.6469 29.7776 11.3381V11.3342C29.6727 11.4065 29.5487 11.4462 29.4212 11.4484C29.2937 11.4506 29.1684 11.4151 29.0611 11.3466C29.1308 12.0776 29.0722 12.9099 28.5967 13.3886Z" fill="white"/>
<path d="M31.3685 14.3301C31.5396 14.3066 31.7039 14.2484 31.8515 14.1592C31.999 14.0699 32.1266 13.9515 32.2264 13.8111C32.0424 13.4332 31.955 13.0159 31.9717 12.5962C31.9867 11.7691 32.4381 10.9849 32.8322 10.4556C32.6291 10.4884 32.4237 10.5049 32.2179 10.5049C31.8628 10.4978 31.519 10.3785 31.2363 10.1643C30.8983 10.5146 30.0964 11.4325 29.9114 12.41C29.7916 13.0464 29.9199 13.599 30.2736 13.9668C30.4133 14.1106 30.5858 14.2187 30.7764 14.2819C30.967 14.3452 31.1701 14.3617 31.3685 14.3301Z" fill="white"/>
<path d="M32.1021 14.5722H32.9241C32.8012 14.4998 32.6877 14.4126 32.586 14.3128C32.5613 14.2875 32.5346 14.2583 32.5085 14.2297C32.3911 14.3636 32.2541 14.4791 32.1021 14.5722Z" fill="white"/>
<path d="M32.2156 10.0178C32.5903 10.0243 32.9626 9.95821 33.3119 9.82316C33.1816 9.44239 33.1106 8.86117 33.4096 8.14439C33.549 7.82595 33.7432 7.53421 33.9835 7.2823C33.8134 7.26827 33.6459 7.23229 33.4851 7.17527C33.1406 7.05462 32.794 6.68423 32.5876 6.2334C32.1772 6.59601 31.2431 7.51388 31.1037 8.47586C31.034 8.96107 31.122 9.34833 31.3643 9.62661C31.4717 9.74645 31.6027 9.84301 31.7491 9.9103C31.8956 9.97759 32.0544 10.0142 32.2156 10.0178Z" fill="white"/>
<path d="M30.7411 50.9201H30.6069L30.7411 50.9168V49.9347H32.7415L34.1009 50.3414V48.4869L32.7415 48.893H31.2993V42.2188C30.8998 42.2668 30.4955 42.2951 30.0865 42.3037V48.893H29.6083V42.3037C29.1984 42.2951 28.7939 42.2668 28.3948 42.2188V48.893H26.9559L25.5972 48.4869V50.3434L26.9559 49.9347H28.9563V54.7868L28.2939 56.1412H31.4068L30.7443 54.7868L30.7411 50.9201Z" fill="white"/>
<path d="M32.4594 12.6039C32.4476 13.333 32.7095 13.7482 32.9323 13.9661C33.046 14.0816 33.182 14.1729 33.3321 14.2347C33.4823 14.2964 33.6434 14.3273 33.8058 14.3255C34.5464 14.3067 34.8558 13.6684 34.859 13.6619C34.8623 13.6554 34.8675 13.6522 34.8714 13.6457C34.7186 13.3166 34.6445 12.9566 34.6552 12.5942C34.6649 12.0344 34.9196 11.4356 35.2303 10.9076C35.1033 10.9329 34.9742 10.9459 34.8447 10.9465C34.6747 10.9464 34.5053 10.9266 34.3399 10.8875C34.0507 10.8226 33.7745 10.6138 33.568 10.3225C33.2163 10.7176 32.4756 11.6536 32.4594 12.6039Z" fill="white"/>
<path d="M35.1635 14.0959C35.0243 14.2868 34.8488 14.4485 34.647 14.5721H35.7543C35.5305 14.4496 35.3305 14.2883 35.1635 14.0959Z" fill="white"/>
<path d="M36.019 42.1401L35.8079 41.7612L32.0254 43.8545L32.4722 44.1023L36.019 42.1401Z" fill="white"/>
<path d="M33.649 6.71616C34.2535 6.92827 34.6514 6.67983 34.6677 6.66881C34.6734 6.66593 34.6793 6.66354 34.6853 6.66167C35.0201 6.41441 35.3762 6.19733 35.7497 6.013C35.7538 5.56643 35.8748 5.12867 36.1008 4.74289C36.1467 4.6618 36.1969 4.5832 36.2512 4.50743C36.1596 4.49892 36.0693 4.47976 35.9822 4.45034C35.7217 4.35823 35.4859 4.10071 35.3575 3.7621C35.2779 3.54606 35.2444 3.31585 35.2592 3.08618C34.6925 3.26392 33.5506 3.70956 33.1025 4.51326C32.9774 4.72631 32.9024 4.96476 32.883 5.21078C32.8636 5.45679 32.9003 5.70399 32.9904 5.93386C33.1487 6.35031 33.4418 6.64351 33.649 6.71616Z" fill="white"/>
<path d="M36.702 43.3628L36.491 42.9846L33.4731 44.6537L33.9206 44.9008L36.702 43.3628Z" fill="white"/>
<path d="M35.8802 6.68276C35.8596 6.62989 35.8418 6.57597 35.8268 6.52124C35.3363 6.78071 34.2329 7.44106 33.8629 8.33039C33.5529 9.07377 33.7326 9.6206 33.8629 9.88072C34.0075 10.1609 34.2323 10.3659 34.4492 10.4165C35.2048 10.593 35.69 10.2135 35.6946 10.2096H35.6992C35.9054 9.93131 36.1279 9.66533 36.3655 9.41303C36.3655 9.39227 36.3655 9.37281 36.3694 9.35205C36.4437 8.70338 36.9413 8.00735 37.3536 7.53122C37.2833 7.53771 37.2136 7.54225 37.1446 7.54225C36.9996 7.5438 36.8551 7.52502 36.7153 7.48647C36.3492 7.37619 36.0444 7.08429 35.8802 6.68276Z" fill="white"/>
<path d="M36.1441 3.9918C36.546 4.13256 36.9056 3.8426 36.9088 3.84001H36.9147C37.3762 3.48963 37.8841 3.20434 38.4239 2.99219C37.9739 2.52698 37.5601 2.02821 37.1863 1.50024C36.8893 1.6196 36.2555 1.93161 35.9292 2.51412C35.6562 3.00063 35.7403 3.40021 35.8132 3.59481C35.8999 3.81795 36.0419 3.95612 36.1441 3.9918Z" fill="white"/>
<path d="M37.9647 13.6365C37.8657 13.3616 37.8153 13.0717 37.8155 12.7796C37.8155 12.2568 38.0063 11.7119 38.2545 11.2267C38.1525 11.2498 38.0484 11.262 37.9438 11.263C37.8401 11.2628 37.7367 11.2523 37.6351 11.2319C37.3492 11.1637 37.0867 11.021 36.8744 10.8186C36.6621 10.6162 36.5076 10.3612 36.4268 10.0798C35.9656 10.6267 35.1598 11.7087 35.1448 12.6038C35.124 13.8785 36.1349 14.2813 36.5264 14.3286C36.8082 14.3703 37.096 14.3265 37.3525 14.2031C37.609 14.0796 37.8223 13.8822 37.9647 13.6365Z" fill="white"/>
<path d="M35.8904 41.4102C36.078 41.5224 36.3463 41.6398 36.6499 41.4751L36.8779 41.3486C36.6948 41.3453 36.5457 41.2084 36.3691 41.1481L36.5711 41.0359C36.7593 41.1481 37.027 41.2655 37.3306 41.1008L37.5592 40.971C37.3762 40.971 37.2264 40.8303 37.0492 40.7699L37.2511 40.6584C37.4394 40.7706 37.7071 40.888 38.0113 40.7232L38.2399 40.5968C38.0562 40.5935 37.9077 40.4566 37.7305 40.3963L37.9526 40.2731L37.9761 40.2594C38.1331 40.1634 38.2692 39.8988 38.4216 39.7645C38.208 39.8294 37.8725 39.793 37.7214 39.9059L37.5175 40.0188C37.5599 39.8365 37.5208 39.6367 37.6159 39.4797L37.3879 39.6056C37.0831 39.7736 37.0433 40.0648 37.0388 40.2834L36.8362 40.395C36.8798 40.2127 36.8401 40.0129 36.9358 39.856L36.7066 39.9857C36.403 40.1537 36.362 40.4443 36.3587 40.6629L36.1555 40.7751C36.1991 40.5929 36.1594 40.3931 36.2545 40.2354L36.0259 40.3619C35.723 40.5299 35.6819 40.8212 35.678 41.0398L31.2988 43.4613L31.747 43.7084L35.8904 41.4102Z" fill="white"/>
<path d="M38.211 14.1274C38.0645 14.3037 37.8881 14.4532 37.6899 14.5692H38.6103C38.4576 14.4408 38.3232 14.2922 38.211 14.1274Z" fill="white"/>
<path d="M38.201 41.2379C38.2434 41.0557 38.201 40.8559 38.2994 40.6982L38.0714 40.828C37.7672 40.996 37.7262 41.2872 37.7223 41.5058L37.5197 41.6174C37.5633 41.4351 37.5236 41.2353 37.6181 41.0784L37.3901 41.2081C37.0865 41.3761 37.0462 41.6667 37.0422 41.8853L36.839 41.9969C36.8827 41.8153 36.8429 41.6148 36.938 41.4578L36.7094 41.5843C36.4052 41.7523 36.3648 42.0429 36.3616 42.2622L32.749 44.2601L33.1965 44.5073L36.5739 42.6391C36.7615 42.7519 37.0299 42.8694 37.3328 42.7039L37.5614 42.5775C37.3777 42.5742 37.2285 42.4373 37.052 42.377L37.2539 42.2648C37.4422 42.377 37.7099 42.4944 38.0134 42.3297L38.2414 42.1999C38.0584 42.1999 37.9099 42.0598 37.7321 41.9995L37.934 41.8879C38.1222 42.0001 38.3899 42.1175 38.6941 41.9528L38.9221 41.8263C38.7397 41.823 38.5906 41.6862 38.414 41.6252L38.6349 41.5026C38.6434 41.4986 38.6516 41.494 38.6596 41.489C38.8159 41.393 38.9527 41.129 39.1052 40.994C38.8915 41.0589 38.5554 41.0226 38.4049 41.1348L38.201 41.2379Z" fill="white"/>
<path d="M37.7302 10.755C38.2748 10.8659 38.6578 10.5131 38.7223 10.4488C38.9087 10.1786 39.1123 9.92051 39.332 9.67627C38.8116 8.96255 38.523 8.1074 38.5047 7.22559C38.4194 7.25997 38.3217 7.29629 38.2162 7.33262C38.0207 7.51944 36.9557 8.55731 36.858 9.40448C36.7467 10.3457 37.4501 10.6992 37.7302 10.755Z" fill="white"/>
<path d="M35.8797 46.6728L35.3873 46.4445C35.1863 46.3516 34.9616 46.3224 34.7435 46.3607C34.5253 46.3989 34.3242 46.5029 34.1672 46.6585L33.7113 46.4477C33.73 46.228 33.6808 46.0078 33.5702 45.8168C33.4595 45.6258 33.2928 45.4732 33.0925 45.3793L32.7199 45.2068L32.4202 45.8483L32.7922 46.0209C32.8682 46.0568 32.9298 46.1173 32.9669 46.1926C33.0039 46.2679 33.0142 46.3535 32.9961 46.4354L32.9309 46.5748C32.88 46.6417 32.8077 46.6892 32.7259 46.7095C32.6442 46.7298 32.5579 46.7217 32.4815 46.6864L32.1102 46.5132L31.8086 47.1548L32.1812 47.3279C32.3821 47.4205 32.6067 47.4496 32.8247 47.4112C33.0427 47.3728 33.2437 47.2688 33.4006 47.1132L33.8565 47.3241C33.8375 47.5438 33.8866 47.7641 33.9972 47.9551C34.1079 48.1462 34.2748 48.2988 34.4753 48.3924L34.9684 48.6214C35.1692 48.7139 35.3937 48.743 35.6116 48.7046C35.8295 48.6662 36.0304 48.5622 36.1871 48.4067L36.6431 48.6182C36.6246 48.8377 36.6739 49.0577 36.7845 49.2486C36.8951 49.4394 37.0617 49.592 37.2619 49.6859L37.755 49.9149C37.8843 49.9822 38.0259 50.0227 38.1713 50.0341C38.3167 50.0454 38.4629 50.0272 38.6011 49.9807C38.7393 49.9341 38.8665 49.8602 38.9752 49.7633C39.0839 49.6664 39.1717 49.5486 39.2334 49.417C39.2951 49.2854 39.3293 49.1427 39.3341 48.9975C39.3388 48.8523 39.314 48.7077 39.2611 48.5723C39.2081 48.437 39.1282 48.3137 39.0261 48.21C38.9239 48.1063 38.8018 48.0242 38.6669 47.9688L38.1745 47.7399C37.9735 47.6474 37.749 47.6183 37.531 47.6567C37.313 47.6951 37.112 47.7991 36.9551 47.9546L36.4992 47.7431C36.5182 47.523 36.469 47.3024 36.3583 47.111C36.2475 46.9197 36.0805 46.7667 35.8797 46.6728ZM35.7807 47.7288L35.7155 47.8689C35.6646 47.9358 35.5923 47.9833 35.5105 48.0034C35.4287 48.0236 35.3425 48.0153 35.2661 47.9799L34.7724 47.7509C34.6837 47.7097 34.6152 47.6351 34.5818 47.5436C34.5484 47.452 34.5528 47.351 34.5942 47.2628C34.6356 47.1745 34.7105 47.1062 34.8024 47.073C34.8943 47.0397 34.9957 47.0441 35.0844 47.0853L35.5775 47.315C35.6535 47.3507 35.7151 47.4111 35.752 47.4864C35.789 47.5616 35.7991 47.6471 35.7807 47.7288ZM37.3779 48.5572C37.4193 48.4691 37.4941 48.4009 37.5859 48.3676C37.6777 48.3342 37.779 48.3385 37.8677 48.3795L38.3608 48.6084C38.4054 48.6283 38.4455 48.6569 38.4789 48.6924C38.5123 48.7279 38.5383 48.7697 38.5554 48.8153C38.5724 48.8609 38.5802 48.9094 38.5783 48.958C38.5764 49.0066 38.5647 49.0544 38.5441 49.0985C38.5235 49.1426 38.4942 49.1822 38.4581 49.2149C38.422 49.2477 38.3797 49.273 38.3336 49.2893C38.2876 49.3056 38.2388 49.3127 38.19 49.31C38.1412 49.3074 38.0934 49.2951 38.0494 49.274L37.5557 49.045C37.4673 49.0036 37.399 48.9291 37.3657 48.8376C37.3323 48.7462 37.3367 48.6454 37.3779 48.5572Z" fill="white"/>
<path d="M36.526 4.98148C36.2257 5.51663 36.1547 6.06995 36.3306 6.50002C36.44 6.76403 36.6296 6.95409 36.8517 7.01896C37.1709 7.11172 37.6203 7.01896 38.0021 6.89312C38.1814 6.83374 38.3574 6.76444 38.529 6.68554C38.5911 6.19984 38.7495 5.73126 38.995 5.307C39.2404 4.88274 39.568 4.51125 39.9588 4.2141C39.546 3.97318 39.1611 3.68778 38.8111 3.36304C38.3896 3.51612 37.04 4.06296 36.526 4.98148Z" fill="white"/>
<path d="M39.3425 42.703C39.4982 42.607 39.6356 42.3429 39.7874 42.208C39.5744 42.2729 39.2383 42.2366 39.0878 42.3488L38.8833 42.4623C38.9256 42.2794 38.8833 42.0802 38.9823 41.9226L38.7536 42.0523C38.4495 42.2203 38.4084 42.511 38.4045 42.7302L38.2026 42.8418C38.2449 42.6595 38.2065 42.4597 38.3009 42.3027C38.2247 42.3442 38.1492 42.3871 38.0723 42.4286C37.7688 42.5966 37.7277 42.8878 37.7238 43.1064L37.5212 43.218C37.5649 43.0364 37.5251 42.8359 37.6202 42.679L37.3923 42.8055C37.0881 42.9735 37.047 43.2641 37.0438 43.4827L34.1973 45.057L34.6454 45.3041L37.2561 43.8608C37.4437 43.9724 37.7121 44.0905 38.015 43.9225C38.0912 43.8803 38.1681 43.8388 38.243 43.7966C38.0599 43.7934 37.9108 43.6565 37.7342 43.5955L37.9362 43.484C38.1251 43.5962 38.3921 43.7136 38.6957 43.5488L38.9237 43.4191C38.7406 43.4191 38.5928 43.279 38.4149 43.2187L38.6169 43.1064C38.8051 43.2193 39.0728 43.3367 39.3764 43.1713L39.6043 43.0448C39.422 43.0416 39.2728 42.9047 39.0963 42.8437L39.3177 42.7211L39.3425 42.703Z" fill="white"/>
<path d="M40.0822 10.4991C39.9246 10.3633 39.7764 10.217 39.6386 10.0613C39.378 10.3616 38.2961 11.6745 38.3013 12.7779C38.3058 13.5706 38.6921 14.0104 38.9221 14.1998C39.2178 14.4457 39.5031 14.5002 39.6535 14.4742C39.8386 14.4441 40.0145 14.3734 40.1688 14.2673C40.323 14.1612 40.4516 14.0223 40.5453 13.8606C40.4378 12.787 40.8592 11.5694 41.0449 11.0979C40.6976 10.9439 40.3735 10.7424 40.0822 10.4991Z" fill="white"/>
<path d="M29.8521 26.1855C30.0253 26.1362 30.6481 25.9494 30.764 25.8689C30.8402 25.8177 30.8174 25.7632 30.6116 25.7165C30.0358 25.6023 29.6997 25.4493 29.5935 24.9465C29.3909 25.2871 28.7656 26.0013 28.2256 26.3911C28.5682 26.3263 29.5993 25.7989 29.7928 25.6717C29.6404 26.1583 29.6 26.2582 29.8521 26.1855Z" fill="white"/>
<path d="M27.0862 26.1133L25.9939 26.8775C27.2532 26.65 28.3883 25.8744 29.3993 24.5507C29.6123 24.4592 29.847 24.4302 30.076 24.467C31.7357 24.67 31.8393 26.0452 34.7275 26.1075V21.8872H24.9653V26.1133L26.0264 25.27L27.0862 26.1133ZM32.0067 23.4791C32.0061 23.7071 31.9323 23.929 31.796 24.1122C31.6597 24.2955 31.468 24.4305 31.2492 24.4975C30.9035 24.2926 30.5189 24.1616 30.1197 24.1128C29.8234 24.068 29.5204 24.108 29.2462 24.2283C29.0736 24.3094 29.0162 24.5435 28.7524 24.5435C28.4691 24.5427 28.1977 24.4303 27.9973 24.2308C27.7969 24.0314 27.6839 23.7612 27.6829 23.4791H32.0067Z" fill="white"/>
<path d="M34.7295 28.1844V27.3042H24.9653V28.1844C24.9653 30.844 27.1768 33.0456 29.8467 33.0456C32.5167 33.0456 34.7295 30.8434 34.7295 28.1844ZM31.7761 30.6779C31.3241 30.6779 30.9573 30.362 30.9573 29.9715H32.5962C32.5988 30.362 32.2321 30.6779 31.7761 30.6779ZM33.5615 28.6521C33.5615 29.0413 33.1948 29.3585 32.7428 29.3585C32.2907 29.3585 31.9227 29.042 31.9227 28.6521H33.5615ZM31.6296 28.6521C31.6296 29.0413 31.2628 29.3585 30.8108 29.3585C30.3587 29.3585 29.9907 29.042 29.9907 28.6521H31.6296ZM26.1274 28.6521H27.7663C27.7663 29.0413 27.3995 29.3585 26.9475 29.3585C26.4954 29.3585 26.13 29.042 26.13 28.6521H26.1274ZM27.9128 30.6779C27.4568 30.6779 27.094 30.362 27.094 29.9715H28.7322C28.7348 30.362 28.3681 30.6779 27.9154 30.6779H27.9128ZM28.0633 28.6521H29.7021C29.7021 29.0413 29.3354 29.3585 28.8827 29.3585C28.43 29.3585 28.0633 29.042 28.0633 28.6521ZM29.0293 29.9715H30.6688C30.6688 30.3607 30.3021 30.6779 29.8487 30.6779C29.3953 30.6779 29.0273 30.362 29.0273 29.9715H29.0293Z" fill="white"/>
<path d="M22.6423 33.4439C22.6065 33.5736 23.024 33.7967 23.1347 33.8259C23.4461 33.9096 23.5725 33.4413 23.2598 33.3576C23.1497 33.329 22.6762 33.3141 22.6423 33.4439Z" fill="white"/>
<path d="M24.2389 34.1794C24.3117 34.1375 24.3704 34.0749 24.4076 33.9998C24.4447 33.9246 24.4587 33.8401 24.4476 33.7571C24.4365 33.674 24.401 33.5961 24.3455 33.5331C24.2899 33.4702 24.2169 33.4251 24.1356 33.4035C24.0543 33.3819 23.9684 33.3848 23.8888 33.4118C23.8091 33.4388 23.7393 33.4888 23.6882 33.5553C23.637 33.6218 23.6069 33.702 23.6015 33.7856C23.5961 33.8692 23.6157 33.9525 23.6579 34.025C23.6858 34.0732 23.723 34.1154 23.7673 34.1493C23.8116 34.1831 23.8622 34.2079 23.9162 34.2223C23.9702 34.2366 24.0265 34.2402 24.0818 34.2329C24.1372 34.2255 24.1906 34.2073 24.2389 34.1794Z" fill="white"/>
<path d="M23.8077 32.9516C23.7503 32.853 23.4253 32.5099 23.31 32.5767C23.1947 32.6435 23.3289 33.0956 23.3856 33.1942C23.5471 33.4731 23.9698 33.2305 23.8077 32.9516Z" fill="white"/>
<path d="M24.4807 33.0497C24.5107 32.9401 24.5243 32.4659 24.3941 32.4334C24.2638 32.401 24.0397 32.8149 24.0104 32.9238C23.929 33.2352 24.3993 33.361 24.4807 33.0497Z" fill="white"/>
<path d="M41.4589 30.1123V15.1863H18.2354V30.1123C18.2354 36.4731 23.4594 41.6755 29.8468 41.6755C36.2342 41.6755 41.4589 36.4731 41.4589 30.1123ZM33.1441 39.1379C33.128 38.7768 33.3731 38.6068 33.8795 38.628C34.0996 37.7316 34.2225 37.1279 34.2481 36.8169C34.0047 36.8313 33.7633 36.7652 33.5614 36.6289C33.3595 36.4926 33.2084 36.2937 33.1317 36.0632C33.341 34.7464 33.6233 33.9481 33.9785 33.6683C34.3003 33.6774 34.622 33.6774 34.9438 33.6683C35.7313 34.9131 35.5952 35.96 35.5828 37.354C35.2949 37.6883 34.8116 38.2585 34.1328 39.0646L33.1441 39.1379ZM33.3395 36.7021C33.5449 36.8399 33.7694 36.9472 34.0058 37.0206C33.8886 37.793 33.8297 38.1792 33.8293 38.1792C33.5457 37.7348 33.3774 37.2273 33.3395 36.7021ZM33.9492 33.0696L34.269 33.2953L34.454 32.886L34.6377 33.2953L34.9588 33.0696L34.949 33.5236H33.9583L33.9492 33.0696ZM35.773 31.1936H36.2446L36.1593 31.6522L36.6205 31.5679V32.0375L36.1593 31.9532L36.2446 32.4118H35.773L35.8564 31.9532L35.4004 32.0375V31.5679L35.8564 31.6522L35.773 31.1936ZM36.0101 33.1493C35.9529 33.1493 35.8969 33.1324 35.8494 33.1008C35.8018 33.0691 35.7647 33.0241 35.7429 32.9714C35.721 32.9187 35.7153 32.8608 35.7265 32.8049C35.7377 32.749 35.7653 32.6977 35.8058 32.6574C35.8464 32.6172 35.898 32.5898 35.9541 32.5788C36.0102 32.5677 36.0684 32.5735 36.1212 32.5954C36.1741 32.6173 36.2192 32.6543 36.2509 32.7018C36.2826 32.7492 36.2995 32.805 36.2993 32.862C36.2993 32.8998 36.2918 32.9372 36.2773 32.9721C36.2628 33.007 36.2414 33.0387 36.2146 33.0654C36.1877 33.0921 36.1558 33.1133 36.1207 33.1277C36.0857 33.1421 36.0481 33.1494 36.0101 33.1493ZM36.173 33.3089V37.3255H35.8473V33.3089H36.173ZM35.1457 39.051C35.0545 38.8421 35.1327 38.6856 35.3802 38.5813C34.9796 37.8905 36.0199 37.2503 36.6322 37.9833C36.1683 38.3812 35.6708 38.7384 35.1451 39.051H35.1457ZM37.9063 36.6814C37.8637 36.6442 37.8305 36.5976 37.8094 36.5453C37.7882 36.493 37.7797 36.4365 37.7845 36.3804C37.8079 36.1118 38.0548 36.1131 38.1382 35.8614C38.2215 35.6098 38.0222 35.373 37.7395 35.5819L37.3441 35.8725C37.3491 35.6893 37.4058 35.5112 37.5079 35.3588C37.61 35.2063 37.7532 35.0857 37.9211 35.0107C38.089 34.9357 38.2748 34.9095 38.457 34.9351C38.6392 34.9606 38.8105 35.0368 38.9511 35.155C38.6479 35.6932 38.2981 36.2039 37.9056 36.6814H37.9063ZM39.8435 31.5075C39.7386 32.2263 39.026 32.238 38.4606 32.356C38.2573 32.3916 38.0608 32.4586 37.8783 32.5545C37.5988 32.7115 37.3572 33.1506 37.6829 33.3284C38.0476 33.5275 38.2411 33.0222 38.6104 32.8827C39.0494 32.7167 39.379 33.0812 39.6402 33.6521C39.5204 33.9699 39.4225 34.2095 39.3465 34.3708C39.295 34.2352 39.2116 33.9738 39.1113 33.7539C38.7374 32.9379 38.6339 33.68 38.3896 34.0315C38.1199 34.4207 37.7102 34.8199 37.1604 35.229C36.9646 35.8111 36.7336 36.2487 36.4674 36.5419C36.4583 35.757 36.4583 34.9723 36.4674 34.1879C36.7774 33.9284 36.9383 33.5113 37.0465 33.1338C37.135 32.8094 37.1481 32.6992 37.4373 32.4384C37.6978 32.2088 38.017 32.0901 38.3863 32.0129C38.6469 31.959 39.168 31.911 39.3634 31.73C39.4377 31.6576 39.4839 31.5613 39.4937 31.4582C39.5627 30.975 38.8221 30.8342 38.4749 30.7752C38.2144 30.7304 37.9037 30.6526 37.735 30.4308C37.4262 30.0234 37.7949 29.4214 38.0339 29.0763C38.1909 28.8486 38.4801 29.0478 38.3225 29.2748C38.2 29.4532 37.8411 29.9884 38.0151 30.2199C38.1154 30.3497 38.3805 30.4042 38.5362 30.4301C38.677 30.4534 38.8166 30.4839 38.9543 30.5216C39.4298 30.6552 39.9255 30.9348 39.8428 31.5075H39.8435ZM37.5083 17.8192C38.4502 17.7777 38.3186 17.1232 37.8718 17.0778C38.4626 16.7379 38.828 17.3061 38.757 17.853C39.3061 17.7816 39.8767 18.1462 39.5386 18.7345C39.4924 18.2895 38.8358 18.1579 38.7934 19.0958C41.1384 19.127 39.8487 22.7284 40.248 24.6355C39.8252 24.4467 39.5406 24.1698 39.5634 23.5133L39.6494 21.0042C39.6637 20.5125 39.3719 20.4775 39.336 20.6929C39.2904 21.42 39.2709 22.7466 39.2208 23.7092C38.7974 23.5204 38.6541 23.2882 38.6762 22.6318L38.7459 20.3977C38.7602 19.9054 38.4684 19.8703 38.4332 20.0864C38.387 20.8135 38.3818 21.9176 38.3368 22.8049C37.9141 22.6162 37.7682 22.4073 37.7923 21.7509L37.832 20.1227C37.8463 19.631 37.5962 19.5266 37.4171 19.7049C37.3511 19.7853 37.2957 19.8739 37.2523 19.9683C36.6009 21.3007 35.2903 20.004 36.6335 19.3521C36.7282 19.3086 36.817 19.2535 36.8979 19.1879C37.0771 19.0096 36.9722 18.7598 36.4778 18.7747L34.8435 18.815C34.1843 18.8377 33.9739 18.6924 33.7857 18.2714C34.6761 18.2266 35.7847 18.2214 36.5143 18.1754C36.7312 18.1403 36.696 17.851 36.2016 17.864L33.9583 17.9334C33.2997 17.9568 33.0652 17.8128 32.877 17.3918C33.8423 17.3431 35.1751 17.3224 35.9052 17.277C36.1222 17.2413 36.0863 16.9526 35.5926 16.9649L33.0731 17.0525C32.4139 17.0752 32.1357 16.793 31.9468 16.3708C33.8606 16.7697 37.4777 15.4821 37.5083 17.8192ZM22.0055 18.4893C22.0461 18.5296 22.0737 18.5809 22.0849 18.6368C22.0961 18.6927 22.0905 18.7506 22.0686 18.8033C22.0467 18.856 22.0097 18.901 21.9621 18.9327C21.9145 18.9644 21.8585 18.9813 21.8013 18.9813C21.7441 18.9813 21.6881 18.9644 21.6405 18.9327C21.593 18.901 21.5559 18.856 21.534 18.8033C21.5122 18.7506 21.5065 18.6927 21.5177 18.6368C21.5289 18.5809 21.5566 18.5296 21.5971 18.4893C21.6239 18.4626 21.6557 18.4414 21.6908 18.4269C21.7258 18.4124 21.7634 18.405 21.8013 18.405C21.8392 18.405 21.8768 18.4124 21.9118 18.4269C21.9469 18.4414 21.9787 18.4626 22.0055 18.4893ZM20.4513 17.6804L20.7848 17.3483L21.0513 17.7317L21.3164 17.3483L21.6492 17.6804L21.2643 17.9451L21.6492 18.2097L21.3164 18.5393L21.0513 18.1559L20.7848 18.5393L20.4513 18.2078L20.8363 17.9431L20.4513 17.6804ZM19.2228 17.8562C19.4076 17.8308 19.5959 17.8616 19.7627 17.9448C19.9296 18.0279 20.0672 18.1594 20.1576 18.322C20.2263 18.4442 20.2601 18.5828 20.2553 18.7228C20.2488 19.2703 19.7856 19.7919 19.669 20.34C19.6273 20.5463 19.6111 20.7941 19.6925 20.9945C19.7117 21.0522 19.7442 21.1046 19.7874 21.1475C19.8306 21.1904 19.8833 21.2227 19.9413 21.2416C20.2807 21.3292 20.5275 20.8213 20.6904 20.5884C21.104 19.9994 21.5189 19.5304 22.7012 18.7235C22.3931 17.2315 23.3636 15.5015 24.7244 16.6581C24.6685 16.9384 24.5165 17.1906 24.2945 17.3717C24.4106 17.4348 24.5117 17.5223 24.5906 17.6281C24.6696 17.7339 24.7245 17.8555 24.7517 17.9845C24.7789 18.1135 24.7777 18.2468 24.7481 18.3753C24.7185 18.5038 24.6613 18.6244 24.5804 18.7287C25.0162 18.9155 25.3679 19.0128 25.7014 18.9486C25.9972 18.8915 26.0434 18.8046 26.2616 18.6476C26.3978 18.5503 26.5528 18.4997 26.6948 18.7443C26.2553 19.2827 25.3912 19.5205 24.1023 19.4578C23.5928 19.9102 23.0077 20.2702 22.3735 20.5216C22.3879 20.9428 21.941 21.5937 21.033 22.4741C21.1672 23.2389 21.0949 23.8597 20.7575 24.1023C20.4481 24.3241 20.0162 24.256 20.3139 23.7676C20.5126 23.4432 20.919 23.1474 20.5744 22.7673C19.94 22.0402 21.3698 21.6529 20.8545 20.9446C20.7594 21.047 20.6643 21.1476 20.5712 21.252C20.3947 21.4466 20.138 21.5835 19.869 21.5115C19.7685 21.4822 19.6763 21.4296 19.6001 21.358C19.5239 21.2864 19.4658 21.1978 19.4306 21.0996C19.3277 20.8453 19.3381 20.5476 19.3928 20.2842C19.4367 20.0944 19.5023 19.9103 19.5883 19.7354C19.7185 19.4474 19.9667 19.0388 19.9713 18.7203C19.9752 18.6161 19.9457 18.5134 19.8872 18.4271C19.8032 18.4693 19.7084 18.4859 19.615 18.4746C19.5215 18.4634 19.4334 18.4249 19.3618 18.364C19.2903 18.303 19.2384 18.2224 19.2127 18.1321C19.1871 18.0419 19.1888 17.9461 19.2176 17.8569L19.2228 17.8562ZM23.5258 21.1126C23.3141 21.8138 22.3006 22.1952 21.6186 22.275C22.128 21.7154 22.422 21.1837 22.5006 20.6799C22.6035 20.9439 22.5918 21.1424 22.511 21.5115C23.008 21.4434 23.2985 20.894 23.5258 21.1126ZM24.7947 38.2142C25.5069 38.2436 26.0664 38.0857 26.4733 37.7407C27.5898 38.2661 25.7106 39.6756 24.7947 38.2142ZM24.398 37.8451C24.3453 38.1694 24.3049 38.5346 24.2678 38.8778L23.8978 38.6047C23.9401 38.2849 23.9831 37.9677 24.0111 37.6414C23.9583 37.6064 23.9049 37.5688 23.8522 37.5279C23.7773 37.9456 23.787 38.185 23.7623 38.5009L23.1239 38.0287C23.236 37.9171 23.3415 37.8643 23.4405 37.8704C23.4718 37.6635 23.4985 37.4449 23.5219 37.2165C23.2255 36.8922 22.9604 36.4517 22.7533 35.8718L22.8276 36.8007L22.7585 36.7728C22.4218 36.6529 22.1405 36.4151 21.9668 36.1039C21.7932 35.7926 21.7391 35.4291 21.8147 35.0811C21.4742 34.9723 21.1851 34.7438 21.0013 34.4384C20.8174 34.133 20.7514 33.7715 20.8155 33.4211L20.8252 33.3478L21.5965 33.8759C21.1952 33.4069 20.9451 32.9586 20.8109 32.5415C20.6003 32.4468 20.3973 32.3603 20.2019 32.2821C20.1584 32.3686 20.0601 32.4334 19.9068 32.4767C19.869 32.1562 19.8416 31.9396 19.8143 31.6905C20.1028 31.8299 20.3074 31.9564 20.7086 32.1004C20.6982 32.0356 20.6923 31.9707 20.6884 31.9058C20.3908 31.767 20.0937 31.6464 19.7941 31.5218L19.7413 31.0677C20.0579 31.2066 20.3992 31.3558 20.7047 31.4712C20.9053 30.0318 22.5123 29.3001 23.0901 30.0694C23.1852 30.1963 23.2339 30.3518 23.228 30.51C23.2222 30.6682 23.1623 30.8197 23.0581 30.9393C23.0979 30.5086 22.3455 30.0162 22.2335 31.0243C21.9319 33.7254 21.814 35.0798 21.814 35.0798C21.814 35.0798 23.0516 35.6552 25.5503 36.7456C26.4837 37.1523 26.431 36.2578 26.0375 36.0768C26.1936 36.0469 26.3551 36.0711 26.4955 36.1453C26.6358 36.2195 26.7463 36.3393 26.8088 36.4848C27.1905 37.3722 25.7503 38.3919 24.398 37.8451ZM21.8336 29.7367C21.3298 29.9153 20.9129 30.3187 20.5829 30.9471C19.7693 29.4286 21.9352 28.5126 21.8336 29.7386V29.7367ZM23.249 32.4708C23.5152 32.3178 23.8211 32.2469 24.1278 32.2669C24.4345 32.287 24.7284 32.3972 24.9722 32.5836C25.2161 32.77 25.3989 33.0242 25.4977 33.3141C25.5964 33.604 25.6066 33.9166 25.527 34.2122C25.4474 34.5079 25.2815 34.7734 25.0503 34.9752C24.8192 35.177 24.5331 35.306 24.2284 35.3459C23.9236 35.3858 23.6138 35.3347 23.3381 35.1993C23.0625 35.0638 22.8333 34.85 22.6797 34.5849C22.4743 34.2295 22.4189 33.8075 22.5257 33.4115C22.6324 33.0156 22.8925 32.6779 23.249 32.4728V32.4708ZM23.7564 28.1831V27.3048H18.8281V26.1009H23.7564V20.6838H29.2423V15.7766H30.4513V20.6838H35.9385V26.1009H40.8655V27.3048H35.9385V28.185C35.9385 31.3058 33.5114 33.9128 30.4513 34.2177V41.069C30.2519 41.08 30.05 41.0859 29.8468 41.0859C29.6436 41.0859 29.4429 41.08 29.2423 41.069V34.2197C26.1834 33.9128 23.7564 31.3058 23.7564 28.185V28.1831Z" fill="white"/>
<path d="M22.5108 21.5139C22.4757 21.5191 22.549 21.5139 22.5108 21.5139V21.5139Z" fill="white"/>
<path d="M24.8909 33.5956C24.9892 33.5385 25.3345 33.2148 25.2667 33.0987C25.199 32.9826 24.7456 33.1188 24.6466 33.1752C24.5906 33.2075 24.5498 33.2606 24.5331 33.3228C24.5165 33.385 24.5253 33.4513 24.5577 33.507C24.5901 33.5628 24.6434 33.6034 24.7059 33.62C24.7684 33.6366 24.8349 33.6278 24.8909 33.5956Z" fill="white"/>
<path d="M24.2432 34.6737C24.3005 34.7716 24.6256 35.1148 24.7422 35.048C24.8588 34.9812 24.7233 34.529 24.666 34.4304C24.5038 34.1522 24.0817 34.3948 24.2432 34.6737Z" fill="white"/>
<path d="M23.5691 34.5749C23.5398 34.6845 23.5255 35.1587 23.6558 35.1905C23.786 35.2223 24.0101 34.8103 24.0401 34.7007C24.1228 34.3894 23.6525 34.2642 23.5691 34.5749Z" fill="white"/>
<path d="M24.7907 34.2679C24.9007 34.2971 25.3769 34.3114 25.4095 34.1817C25.442 34.0519 25.0271 33.8288 24.917 33.7996C24.605 33.7179 24.4806 34.1849 24.7907 34.2679Z" fill="white"/>
<path d="M23.161 34.0291C23.062 34.0862 22.7174 34.4099 22.7851 34.526C22.8034 34.5591 22.8542 34.5714 22.9154 34.5714C23.0837 34.5613 23.2487 34.5202 23.402 34.4501C23.4546 34.4162 23.4922 34.3636 23.5069 34.3029C23.5217 34.2423 23.5124 34.1783 23.4812 34.1242C23.4499 34.0702 23.3989 34.0302 23.3388 34.0124C23.2788 33.9947 23.2142 34.0007 23.1584 34.0291H23.161Z" fill="white"/>
<path d="M34.2237 34.7835L34.2888 35.0326C34.3116 35.1221 34.3644 35.1999 34.4575 35.1999C34.5507 35.1999 34.6034 35.1214 34.6249 35.0326L34.6901 34.7828C35.0242 34.7828 35.0737 34.7627 35.1324 34.4585H33.7808C33.84 34.764 33.8934 34.7848 34.2237 34.7835Z" fill="white"/>
<path d="M39.0335 2.91006C39.043 2.91782 39.052 2.92627 39.0602 2.93536C39.5944 3.43484 40.0822 3.75593 40.5135 3.95572C40.5314 3.96128 40.5487 3.9689 40.5649 3.97843C41.1928 4.258 41.6977 4.28136 42.05 4.23206C42.6858 4.14254 42.9965 3.80004 43.0401 3.65733C43.3463 2.66875 42.9099 1.95197 41.7485 1.52709C40.5108 1.07302 38.3874 1.0328 37.4604 1.03799C37.9189 1.71413 38.446 2.34146 39.0335 2.91006Z" fill="white"/>
<path d="M42.0857 15.2076H42.0902C42.312 15.2479 42.5406 15.2291 42.7527 15.1531C43.2634 14.9624 43.5239 14.4396 43.5995 14.2651C43.3546 13.281 43.5604 12.1711 43.6503 11.7722C42.918 11.6865 42.1972 11.5216 41.5007 11.2805C41.3131 11.7631 40.8552 13.091 41.0741 14.0873C41.1099 14.2559 41.1684 14.4189 41.248 14.5719H42.0779V15.205L42.0857 15.2076Z" fill="white"/>
<path d="M42.6088 20.0304C43.2413 20.118 44.0477 19.7832 44.2301 18.5495C44.4001 17.402 43.8119 15.4404 43.6888 15.0466C43.4885 15.298 43.2252 15.4922 42.9254 15.6097C42.7316 15.6816 42.5264 15.7183 42.3196 15.718C42.2434 15.718 42.0923 15.7018 42.0923 15.7018L42.0962 19.7599C42.2289 19.9085 42.4109 20.0045 42.6088 20.0304Z" fill="white"/>
<path d="M43.8012 50.4739C42.3682 51.6927 35.6857 54.711 35.4636 52.6956C35.4825 51.9911 37.5031 52.2701 38.0808 52.2701C39.2351 52.2701 39.2351 50.5186 38.0808 50.5186C35.9219 50.9449 33.7338 51.2092 31.5352 51.3094V53.4403C32.8502 53.3816 34.1615 53.2558 35.4636 53.0634V54.8226C35.4636 57.1636 43.6351 53.4714 45.2193 52.1267L43.1909 52.3927L43.8012 50.4739Z" fill="white"/>
<path d="M46.0088 11.4195C45.3333 10.7877 44.8656 10.1221 44.8011 9.31584C44.1603 8.98547 43.5821 8.54646 43.0926 8.01849C42.0464 6.86256 41.8549 5.34531 41.8204 4.73945C41.7989 4.73945 41.7774 4.73945 41.7553 4.73945C41.3075 4.7332 40.8655 4.63723 40.4558 4.45728C39.5881 5.05341 39.0683 5.92652 38.998 6.93391C38.914 8.10866 39.4396 9.30416 40.4024 10.1319C41.7344 11.2742 44.5555 11.4247 46.0088 11.4195Z" fill="white"/>
<path d="M45.4829 15.6361C45.8601 15.7146 46.1343 15.6309 46.2594 15.5355C46.6867 15.2021 46.7472 14.8259 46.7544 14.7091C46.1571 13.7822 45.8816 12.4122 45.7962 11.9082C45.3266 11.9082 44.754 11.8867 44.1372 11.8284C44.0525 12.1916 43.7464 13.7056 44.2675 14.6702C44.642 15.3688 45.1905 15.5751 45.4829 15.6361Z" fill="white"/>
<path d="M44.6922 18.7289C44.8526 19.0711 45.1266 19.3476 45.468 19.5119C45.6927 19.6189 46.1969 19.6656 46.6177 19.4366C46.9753 19.242 47.1857 18.895 47.2456 18.4072C47.3674 17.4102 46.9786 16.1868 46.8007 15.6957C46.7265 15.776 46.6457 15.85 46.5591 15.9169C46.3637 16.0707 46.0842 16.1518 45.7774 16.1518C45.6461 16.1514 45.5152 16.1377 45.3866 16.1109C44.9972 16.0276 44.638 15.8401 44.3477 15.5686C44.5659 16.3879 44.8486 17.7092 44.7137 18.6206C44.7066 18.6582 44.6994 18.6926 44.6922 18.7289Z" fill="white"/>
<path d="M41.9159 1.07046C43.8902 1.79178 43.687 3.22016 43.5078 3.80072C43.4017 4.14063 42.9607 4.52918 42.3067 4.67578C42.3354 5.19472 42.5021 6.63543 43.4551 7.69017C43.8522 8.11976 44.315 8.48426 44.8262 8.77021C45.9134 8.69691 46.57 8.83508 46.7914 9.18731C46.9309 9.17721 47.066 9.1352 47.1865 9.06454C47.3069 8.99388 47.4094 8.89649 47.4858 8.77994C47.9945 8.00542 47.2904 7.55784 46.5016 7.62076C46.4357 7.62578 46.3705 7.60466 46.3203 7.56201C46.27 7.51935 46.2387 7.45862 46.2332 7.39308C46.2039 7.01684 47.9548 6.73727 48.3893 7.00387C48.8939 6.22159 49.1921 5.32511 49.2562 4.3975C47.2943 2.55095 45.0564 1.50161 42.5425 1.24949C42.6155 -0.0368289 40.363 -0.430574 37.7471 0.552815H37.751C38.8043 0.556059 40.7147 0.635197 41.9159 1.07046ZM44.44 2.96588C45.4568 2.96588 46.3101 3.37195 47.1757 4.04203L45.658 3.80267C45.5412 3.94997 45.3725 4.0475 45.1861 4.07549C44.9997 4.10348 44.8096 4.05983 44.6543 3.95339C44.499 3.84695 44.3902 3.68569 44.3499 3.50231C44.3097 3.31893 44.3409 3.12716 44.4374 2.96588H44.44Z" fill="white"/>
<path d="M46.293 11.9044C46.4102 12.5531 46.7835 14.2623 47.5579 14.911C48.1689 15.4209 48.7552 15.4124 49.0489 15.3606C49.428 15.2957 49.6547 15.1154 49.7329 14.9817C49.815 14.8419 49.8698 14.6878 49.8944 14.5277C48.7943 13.4898 47.5495 12.6926 46.562 11.894L46.293 11.9044Z" fill="white"/>
<path d="M48.777 15.8699C48.3308 15.8661 47.8955 15.7327 47.5244 15.4859C47.7009 16.0049 48.1823 17.2036 49.0076 17.7109C50.0635 18.3595 50.9507 17.7842 51.1923 17.4222C51.3877 17.1297 51.4652 16.7735 51.4926 16.4745C51.1544 15.915 50.7531 15.3957 50.2967 14.9268C50.2588 15.0309 50.212 15.1316 50.1566 15.2277C49.9781 15.5307 49.5958 15.7597 49.134 15.8394C49.0161 15.8599 48.8967 15.8701 48.777 15.8699Z" fill="white"/>
<path d="M48.1641 27.1466C48.3928 28.3739 48.7233 29.5802 49.1522 30.7532C49.7521 32.3489 50.9305 34.5979 52.9888 34.0575L48.4227 26.9714C48.338 27.0298 48.252 27.0888 48.1641 27.1466Z" fill="white"/>
<path d="M56.4072 35.4095L50.0426 25.5315C49.6782 25.9439 49.2765 26.3221 48.8428 26.6615L53.9431 34.5999C54.2314 34.9575 54.6175 35.2243 55.0548 35.3679C55.4921 35.5116 55.9618 35.526 56.4072 35.4095Z" fill="white"/>
<path d="M56.6039 36.1609C55.9251 36.3388 55.2062 36.2866 54.5605 36.0124C52.1374 36.9893 48.8284 34.7377 47.3758 27.5011L45.6302 28.2996C45.6731 29.5094 45.565 31.3426 44.7397 32.3033C44.3294 32.7813 43.9034 32.9876 44.0551 32.6367C44.6808 31.204 44.9576 29.6444 44.8628 28.0849C44.8574 28.0091 44.8754 27.9335 44.9146 27.8683C44.9537 27.8031 45.0121 27.7515 45.0817 27.7204C46.2079 27.2053 47.2964 26.796 48.2826 26.0338C50.6607 24.1851 51.3401 21.6715 52.3699 18.7285C52.2576 18.1863 52.0828 17.6589 51.8488 17.1567C51.7896 17.3471 51.7041 17.5283 51.5948 17.6951C51.3199 18.1051 50.7096 18.4917 49.9722 18.4917C49.5382 18.4872 49.1143 18.3611 48.7489 18.1278C48.2832 17.8424 47.9197 17.389 47.6416 16.9316C47.7341 17.4246 47.7869 17.9695 47.725 18.4696C47.6266 19.2818 47.1928 19.6768 46.8469 19.8662C46.5663 20.015 46.2529 20.0919 45.935 20.09C45.7007 20.0944 45.4682 20.0479 45.2537 19.9538C44.9613 19.8144 44.705 19.61 44.5046 19.3564C44.1528 20.1744 43.4728 20.5324 42.8006 20.5324C42.6221 20.5324 42.1772 20.4864 42.071 20.3631V30.1295C42.0701 31.7527 41.7424 33.3593 41.1073 34.8541C40.4721 36.349 39.5424 37.7019 38.3732 38.8328C42.5055 40.9922 42.6254 46.8186 38.5034 44.8006C38.3237 44.6975 38.1222 44.6378 37.915 44.6264C37.7079 44.6149 37.501 44.6521 37.3109 44.7348C37.1208 44.8175 36.9529 44.9435 36.8206 45.1026C36.6883 45.2618 36.5954 45.4496 36.5493 45.651L36.9147 45.88C37.0384 45.6751 37.2085 45.5019 37.4115 45.3744C37.6145 45.2469 37.8447 45.1685 38.0836 45.1456C38.3226 45.1227 38.5635 45.1559 38.7872 45.2426C39.0109 45.3292 39.2111 45.4669 39.3717 45.6445C39.1927 45.5289 38.9882 45.4579 38.7758 45.4377C38.5633 45.4175 38.3491 45.4487 38.1513 45.5285C37.9535 45.6083 37.778 45.7345 37.6396 45.8963C37.5012 46.0581 37.404 46.2508 37.3564 46.458C37.4745 46.5409 37.5969 46.6175 37.7231 46.6876C37.8465 46.4826 38.0165 46.3092 38.2194 46.1815C38.4223 46.0538 38.6525 45.9754 38.8914 45.9524C39.1304 45.9294 39.3714 45.9626 39.5951 46.0493C39.8188 46.136 40.0189 46.2737 40.1794 46.4515C40.0004 46.3356 39.796 46.2646 39.5835 46.2443C39.371 46.2241 39.1567 46.2553 38.9589 46.3352C38.7611 46.4151 38.5855 46.5415 38.4473 46.7034C38.309 46.8654 38.2121 47.0583 38.1647 47.2656C38.5351 47.5315 38.9562 47.7191 39.402 47.817C39.8479 47.9148 40.3092 47.9208 40.7575 47.8346C41.2058 47.7484 41.6316 47.5718 42.0089 47.3156C42.3861 47.0595 42.7067 46.7292 42.951 46.3451C43.1806 46.4464 43.438 46.4669 43.6808 46.4034C43.9237 46.3399 44.1377 46.196 44.2877 45.9955C46.0197 42.5276 45.2224 44.1318 46.0138 42.6223C42.8924 41.5274 43.3503 36.048 45.5259 34.8902C45.2042 35.2644 44.6049 37.3052 44.614 38.7439C44.6322 41.1894 47.6618 40.3286 48.3138 43.8036C48.6551 45.6199 47.5765 47.3985 45.5559 47.0612C45.3333 47.0086 45.1013 47.0088 44.8788 47.0618C44.6562 47.1148 44.4493 47.219 44.2746 47.3662C44.0999 47.5133 43.9623 47.6993 43.8729 47.909C43.7836 48.1188 43.7449 48.3466 43.7601 48.5739L44.216 48.7037C44.2818 48.4484 44.4068 48.212 44.5809 48.0135C44.755 47.815 44.9733 47.6599 45.2185 47.5607C45.4637 47.4614 45.7288 47.4207 45.9926 47.4419C46.2563 47.4631 46.5115 47.5455 46.7375 47.6826C46.5117 47.6166 46.2733 47.6058 46.0424 47.6511C45.8116 47.6964 45.5951 47.7966 45.4114 47.943C45.2277 48.0895 45.0823 48.2779 44.9873 48.4923C44.8924 48.7067 44.8508 48.9408 44.8661 49.1746C45.0157 49.2257 45.1679 49.269 45.3221 49.3043C45.3878 49.049 45.5127 48.8126 45.6867 48.614C45.8608 48.4154 46.0792 48.2602 46.3243 48.1609C46.5695 48.0616 46.8346 48.0208 47.0985 48.042C47.3623 48.0631 47.6175 48.1456 47.8435 48.2827C47.6178 48.2168 47.3795 48.206 47.1487 48.2514C46.9179 48.2968 46.7015 48.397 46.5179 48.5434C46.3343 48.6898 46.1889 48.8782 46.094 49.0925C45.9991 49.3069 45.9575 49.5409 45.9728 49.7746C46.4483 49.9393 46.9526 50.0053 47.4547 49.9686C47.9568 49.9319 48.4461 49.7933 48.8924 49.5613C49.3387 49.3293 49.7327 49.0089 50.05 48.6196C50.3673 48.2304 50.6013 47.7806 50.7376 47.298C51.0125 47.3326 51.291 47.2733 51.5277 47.1298C51.7643 46.9862 51.9451 46.767 52.0404 46.5079V40.2145C51.3682 40.2172 50.7046 40.064 50.1023 39.7669C49.4999 39.4698 48.9754 39.0371 48.5702 38.503C48.165 37.9689 47.8903 37.3482 47.7679 36.69C47.6455 36.0318 47.6787 35.3543 47.865 34.7111C50.5057 37.8163 54.3137 38.5934 56.7153 36.1778L56.6742 36.1389C56.6521 36.1473 56.628 36.1544 56.6039 36.1609Z" fill="white"/>
<path d="M57.4061 30.8629L58.5603 32.6539C58.9281 31.1957 58.9242 29.5474 58.5486 27.7091C57.9695 24.8731 52.3091 15.4492 55.5523 15.4673C55.5534 15.751 55.659 16.0245 55.8492 16.2357C56.0393 16.447 56.3007 16.5814 56.5838 16.6134C56.8669 16.6454 57.1519 16.5728 57.3848 16.4094C57.6176 16.2459 57.7821 16.003 57.8471 15.7268C58.1781 14.2051 58.0449 12.6195 57.4646 11.1737C56.8843 9.7279 55.8833 8.48778 54.5902 7.61255C55.1289 9.10904 53.9825 11.3152 53.6333 14.2413C52.8719 20.6353 57.8002 25.1144 57.4061 30.8629Z" fill="white"/>
<path d="M51.5549 23.2168C51.2381 23.8766 50.8549 24.5028 50.4111 25.0856L56.9985 35.3399C57.3495 35.7756 57.8199 36.1006 58.3526 36.2756C58.8853 36.4506 59.4576 36.4681 60 36.3258L51.5549 23.2168Z" fill="white"/>
</svg>
