<svg width="60" height="57" viewBox="0 0 60 57" fill="none" xmlns="http://www.w3.org/2000/svg">
<path d="M3.62282 12.7654C3.90421 12.9503 4.85652 12.1706 5.68312 11.2469C5.8047 11.0172 5.94022 10.7952 6.08893 10.582C6.06287 10.582 6.03682 10.5904 6.01141 10.5904C5.8961 10.5931 5.78264 10.5612 5.68573 10.499C5.42517 10.3284 5.35352 10.0228 5.37958 9.66866C5.38311 9.66569 5.38543 9.66154 5.38609 9.65698C4.81028 10.2113 4.27357 10.8045 3.7798 11.4324C3.78645 11.4299 3.7923 11.4256 3.79673 11.4201C3.53097 12.07 3.41828 12.6311 3.62282 12.7654Z" fill="white"/>
<path d="M7.02365 10.1517C7.01887 10.1634 7.01275 10.1745 7.00541 10.1848C6.526 10.7414 5.7919 11.8143 5.86029 12.3254C5.8632 12.3632 5.87474 12.3997 5.89405 12.4324C5.91336 12.465 5.93992 12.4927 5.97168 12.5135C6.24005 12.6939 7.20929 12.0225 8.12122 11.1773C7.98983 11.1791 7.86083 11.1421 7.75059 11.0709C7.65715 11.0083 7.57851 10.9262 7.52013 10.8303C7.46175 10.7344 7.42503 10.6271 7.41252 10.5156C7.38191 10.2821 7.43858 10.0109 7.5428 9.73267C7.37726 9.88133 7.20397 10.0212 7.02365 10.1517Z" fill="white"/>
<path d="M5.3816 12.4047C5.08523 13.3777 3.92708 16.6801 1.32678 18.9193C1.93387 18.9621 2.9448 18.9368 3.83654 18.4548C5.67928 17.4591 7.55459 14.2508 7.96692 13.5171C7.69855 13.1416 7.83664 12.4845 8.06983 11.8818C7.41846 12.4501 6.62508 13.0164 6.05773 13.0164C5.93073 13.0199 5.80568 12.9846 5.69947 12.9152C5.61326 12.8573 5.54035 12.7819 5.48556 12.6939C5.43077 12.6059 5.39534 12.5073 5.3816 12.4047Z" fill="white"/>
<path d="M5.95746 10.0946C6.24537 10.2834 7.45237 9.28833 8.5571 7.95077C8.39436 7.81412 8.24832 7.65889 8.12198 7.48827C8.12198 7.48827 8.12198 7.48827 8.12198 7.48438C8.00148 7.56222 7.87967 7.64265 7.75786 7.72698C7.13667 8.15355 6.54176 8.61689 5.97635 9.11449C5.98465 9.11122 5.99235 9.10662 5.99915 9.10087C5.835 9.59256 5.79136 9.98501 5.95746 10.0946Z" fill="white"/>
<path d="M10.4111 14.3066C10.3864 14.295 10.3624 14.2818 10.3395 14.267C9.91542 13.9874 9.93887 13.4574 10.0998 12.9463C9.57866 13.3919 8.97939 13.7896 8.50323 13.7896C8.46107 13.7893 8.41901 13.7854 8.37752 13.7779C8.00754 14.4402 6.68394 16.7066 5.14148 18.0981C7.90136 18.5787 9.8848 15.2951 10.4111 14.3066Z" fill="white"/>
<path d="M9.12798 10.8194C9.12394 10.8315 9.11893 10.8432 9.113 10.8544C9.11152 10.8613 9.10933 10.8681 9.10648 10.8745C8.51308 11.869 8.08838 13.071 8.39974 13.2746C8.69155 13.4692 9.62758 12.7849 10.4568 11.9403C10.4291 11.9278 10.4026 11.913 10.3773 11.8962C9.85166 11.5492 10.0393 10.6728 10.3454 9.90283C9.96822 10.2443 9.56075 10.5511 9.12798 10.8194Z" fill="white"/>
<path d="M8.88684 35.288C7.04605 30.2517 4.97207 25.4282 5.4137 19.821C5.44822 19.2158 6.15236 19.2301 6.11523 19.8613C5.6013 25.3101 7.75475 30.0688 9.55189 35.0448C10.6547 34.3961 10.9504 33.3141 10.428 31.767C9.07899 27.1147 7.7313 22.5961 8.47387 17.5559C7.70589 18.1793 6.78029 18.6411 5.72571 18.6411C5.37031 18.6389 5.01693 18.5876 4.67569 18.4887C4.48465 18.6349 4.2828 18.7665 4.07186 18.8824C3.26676 19.3177 2.39457 19.4234 1.73668 19.4234C1.42187 19.4241 1.10753 19.3994 0.796742 19.3495C0.624779 19.4792 0.44565 19.6024 0.26131 19.7205C0.296919 19.4948 0.336436 19.2692 0.379861 19.0439C2.87268 17.24 4.19432 14.2859 4.71673 12.8485C4.39104 13.0956 4.0432 13.2701 3.70318 13.2701C3.58008 13.2724 3.45911 13.2379 3.356 13.1708C3.12672 13.0197 3.04399 12.7622 3.04529 12.4573C3.04786 12.4527 3.04942 12.4476 3.04985 12.4424C0.683403 15.9627 -0.201818 20.1447 0.0378883 24.4111C0.449558 31.7411 3.78135 36.1553 6.20382 42.6517C7.56715 42.4747 8.26803 41.0359 7.74042 39.7807C5.44236 34.1178 2.44798 28.9991 2.57826 22.6447C2.57826 22.0389 3.28109 22.0123 3.28109 22.6447C3.06353 28.6968 6.08201 33.8278 8.2791 39.2391C9.38775 38.3141 9.59033 36.997 8.88684 35.288Z" fill="white"/>
<path d="M9.39218 8.40385C9.2647 8.36727 9.14102 8.31861 9.02285 8.25854C8.50826 8.88776 7.82432 9.93082 7.89467 10.4504C7.89792 10.4938 7.91105 10.5358 7.93305 10.5733C7.95506 10.6109 7.98538 10.6429 8.02169 10.6671C8.39362 10.9155 9.86964 9.78941 11.018 8.58094C10.9718 8.51607 10.932 8.45574 10.9008 8.40255C10.4073 8.53864 9.88594 8.53908 9.39218 8.40385Z" fill="white"/>
<path d="M11.1625 11.9135C10.7144 12.6141 10.2864 13.6474 10.6108 13.8596C10.6555 13.8865 10.708 13.898 10.7599 13.892C10.7682 13.8914 10.7765 13.8914 10.7847 13.892C11.1944 13.8407 11.9806 13.1687 12.6255 12.4072C12.333 12.0647 12.4177 11.4549 12.6183 10.8562C12.1572 11.3044 11.6315 11.7339 11.1625 11.9135Z" fill="white"/>
<path d="M12.0395 9.32788C11.79 9.24999 11.5595 9.12119 11.3627 8.94971C10.8169 9.88834 10.2821 11.2525 10.6495 11.4945C10.6863 11.5127 10.7265 11.5234 10.7676 11.5257C10.8087 11.5281 10.8498 11.5221 10.8885 11.5081C10.9137 11.4956 10.9408 11.4875 10.9687 11.4841C11.5197 11.281 12.5092 10.3586 13.2986 9.38626C13.2986 9.38626 13.3032 9.38626 13.3038 9.38108L13.369 9.26691C12.9484 9.44907 12.4752 9.47077 12.0395 9.32788Z" fill="white"/>
<path d="M11.7512 16.2033C12.4899 15.722 13.6787 14.2929 14.588 13.1195C15.1664 11.5452 14.8303 12.4345 15.1664 11.5452C14.4727 12.1134 13.6904 12.6297 13.1328 12.6297C13.1133 12.6297 13.095 12.6297 13.0761 12.6265C12.74 13.0326 11.7532 14.1496 10.9442 14.3422C10.5109 15.207 9.96707 16.0122 9.32617 16.7378C9.91762 16.7728 10.939 16.7358 11.7512 16.2033Z" fill="white"/>
<path d="M14.6718 9.97191C14.3296 9.94925 14.0024 9.82396 13.7331 9.61255C13.1944 10.5499 12.6759 11.8829 13.0394 12.1249C13.3762 12.3467 14.6679 11.4178 15.813 10.3151C15.8832 10.0927 15.9391 9.86603 15.9804 9.63655C15.6309 9.85576 15.2268 9.97327 14.8138 9.97581C14.7662 9.97581 14.7187 9.97581 14.6718 9.97191Z" fill="white"/>
<path d="M9.52773 7.93737C9.99108 8.06202 10.4816 8.04232 10.9334 7.88093L11.1666 7.78428L11.2552 8.01845C11.2552 8.02364 11.5157 8.65675 12.1821 8.86173C12.8608 9.0719 13.3064 8.74821 13.3109 8.74497L13.5422 8.57307L13.6724 8.82865C13.6848 8.85265 14.0033 9.4397 14.7029 9.48575C15.3133 9.52792 15.7836 9.2172 16.0422 8.98952C16.0721 7.55076 15.2364 6.40974 12.9703 6.09968C11.6028 5.91286 10.1231 6.28952 8.53113 7.22967H8.53764C8.7083 7.44697 9.04376 7.79855 9.52773 7.93737Z" fill="white"/>
<path d="M15.5893 12.6107C15.4746 13.4059 15.474 14.2862 15.799 14.4231C16.1859 14.5852 16.92 13.7095 17.3734 12.9674C16.9617 12.7235 16.6966 12.0781 16.537 11.5183C15.9625 12.0976 16.1664 11.8375 15.5893 12.6107Z" fill="white"/>
<path d="M15.9333 28.9691C15.8975 29.6288 15.9333 30.4928 16.3626 31.0358C16.6948 31.458 17.1996 31.5956 17.7103 31.6085C17.6502 31.1176 17.6198 30.6235 17.6191 30.1289V19.5607C16.9636 19.0925 16.3747 18.5383 15.8682 17.9131C15.2455 18.7347 14.6232 19.5577 14.0014 20.3819L13.9818 20.4085L13.064 21.6274C12.8487 21.9081 12.7381 22.2546 12.751 22.6076C12.764 22.9606 12.8997 23.2981 13.135 23.5624C13.9245 24.4636 14.7135 25.3644 15.5021 26.2648C15.7169 26.5044 15.8756 26.7886 15.9666 27.0967C16.0576 27.4049 16.0788 27.7294 16.0284 28.0467C15.9841 28.3528 15.9477 28.6584 15.9333 28.9691Z" fill="white"/>
<path d="M16.9248 11.0795L16.9287 11.0743C17.1052 11.8125 17.4172 12.5792 17.7266 12.5844H17.7306C18.0849 12.5844 18.4106 11.6347 18.548 10.8375C18.1826 10.8109 17.8042 10.5722 17.4544 10.2537C17.4547 10.2507 17.4547 10.2476 17.4544 10.2446C17.3025 10.5377 17.1253 10.817 16.9248 11.0795Z" fill="white"/>
<path d="M17.8457 13.1296C17.5539 13.6239 16.7071 14.9284 15.8916 14.9284C15.7943 14.9285 15.6979 14.9091 15.6083 14.8713C15.1412 14.6767 15.022 14.043 15.0285 13.4047C14.8618 14.667 15.1777 16.0558 15.7985 16.9996C16.2969 17.7425 16.9111 18.4016 17.6178 18.9521V14.5723H18.4769C18.2112 14.1174 17.9993 13.6332 17.8457 13.1296Z" fill="white"/>
<path d="M18.8795 7.26508C18.8775 7.24848 18.8775 7.23172 18.8795 7.21513C18.8795 7.20605 18.8795 7.19632 18.8795 7.18659C18.8567 7.18659 18.8319 7.18659 18.8085 7.18659C18.6254 7.18605 18.4429 7.16648 18.2639 7.12821C18.2638 7.1237 18.2627 7.11928 18.2607 7.11523C18.2357 8.0357 18.0368 8.94324 17.6744 9.79036C17.6776 9.78864 17.6802 9.7859 17.6816 9.78258C18.0835 10.1835 18.4756 10.4358 18.7466 10.3333C19.3843 10.0926 19.1166 8.16998 18.8866 7.27675C18.8838 7.27319 18.8814 7.26926 18.8795 7.26508Z" fill="white"/>
<path d="M16.5528 47.4557C17.4041 42.2663 17.6979 39.9311 17.6979 39.9311C17.7214 39.8221 17.7363 39.7242 17.7539 39.6405C17.8731 39.0703 18.5323 39.2286 18.546 39.765C18.5465 39.9078 18.533 40.0504 18.5056 40.1905C17.724 45.6796 17.4393 48.5999 17.4393 48.5999C16.9358 50.8833 20.0376 51.6863 20.2096 48.5351C20.2454 47.8825 20.2585 47.254 20.2695 46.6001C20.3347 42.6938 20.3633 40.3028 20.3633 40.3028L20.3555 37.7853C19.0576 36.1991 18.1837 34.3117 17.8151 32.2988C17.0537 32.2988 16.317 32.0932 15.8206 31.462C15.0924 30.5357 15.1862 29.058 15.3477 27.952C15.3837 27.7325 15.3696 27.5077 15.3065 27.2944C15.2433 27.081 15.1328 26.8845 14.983 26.7195L12.6165 24.0133C12.2772 23.6306 12.0814 23.1427 12.0625 22.6325C12.0436 22.1223 12.2028 21.6214 12.5129 21.2149L15.4396 17.3339C15.4239 17.3112 15.4077 17.2891 15.3927 17.2651C14.8247 16.4024 14.4951 15.1965 14.5094 14.0107C13.6626 15.0655 12.6856 16.1747 12.0192 16.6113C11.2375 17.1237 10.31 17.2372 9.64428 17.2372C9.45734 17.2372 9.29514 17.2282 9.15966 17.2165H9.1564C9.194 17.3133 9.20502 17.4183 9.18832 17.5207C8.34609 22.4902 9.81103 27.1256 11.1815 31.8259C11.8212 31.5587 12.4309 30.9041 12.6914 30.0849C12.8014 29.7422 12.8436 29.3816 12.8158 29.023C12.5651 27.3034 14.8025 28.3912 13.6014 31.2434C11.9951 35.0822 10.2559 38.9438 8.83071 42.8482C8.10964 44.8253 10.0091 45.3572 10.6722 43.853C11.8349 41.2155 12.8341 38.5228 13.8841 35.8379C13.9707 35.4922 14.5387 35.6031 14.426 36.0111C13.3838 38.9671 12.3924 42.0873 11.2994 45.0121C10.5764 46.9413 12.8543 48.0239 13.3838 45.6264C13.9518 43.0499 14.8625 40.2424 15.5666 37.6478C15.7151 37.1029 16.4271 37.1548 16.2089 38.0648C14.697 44.3836 14.116 47.0619 14.116 47.0619C13.3369 49.6352 16.4264 50.1289 16.5528 47.4557Z" fill="white"/>
<path d="M18.2662 12.8305C18.3887 13.2573 18.6818 14.0442 19.0726 14.5754H20.6359C20.9434 14.0714 21.1069 13.339 21.1662 12.9103C20.3037 12.7235 19.4322 11.3989 19.0551 10.7573C18.9938 11.1725 18.7834 12.3239 18.2662 12.8305Z" fill="white"/>
<path d="M21.47 12.4255C21.9976 12.2465 21.9585 10.809 21.754 9.71338C21.6668 9.74355 21.5753 9.75933 21.483 9.76009C20.8121 9.76009 20.0897 9.00893 19.5719 8.33301C19.6559 9.0206 19.6709 9.84571 19.3882 10.3601C19.9516 11.3571 20.9313 12.6071 21.47 12.4255Z" fill="white"/>
<path d="M20.7826 6.17676C20.4631 6.57601 20.0411 6.88174 19.5613 7.06155C19.4906 7.08678 19.4186 7.10843 19.3457 7.12642C19.9541 8.14743 21.0484 9.46618 21.6099 9.25277C22.2105 9.02573 22.0059 7.30675 21.7884 6.35903C21.4432 6.3817 21.0977 6.31908 20.7826 6.17676Z" fill="white"/>
<path d="M21.5978 13.2627C21.5159 13.7151 21.3762 14.1552 21.1823 14.5724H22.6602C22.2134 14.1553 21.8369 13.6311 21.5978 13.2627Z" fill="white"/>
<path d="M20.7386 40.812C21.2383 41.1934 21.7157 42.0743 22.2303 42.038C22.6478 42.0088 22.8869 41.499 22.6407 41.1616C22.3371 40.7439 21.3542 40.9469 20.7386 40.812Z" fill="white"/>
<path d="M21.3424 42.8536L21.9345 43.1287C22.9708 43.6106 23.772 42.8601 24.1876 42.5708L23.5955 42.2958C22.5585 41.8145 22.1 42.7875 21.3424 42.8536Z" fill="white"/>
<path d="M23.2901 40.2335L22.6986 39.9585C23.135 40.5786 22.6804 41.5549 23.7174 42.0343C23.9128 42.1257 24.1127 42.2172 24.3095 42.3093C24.2652 41.8079 24.327 40.7148 23.2901 40.2335Z" fill="white"/>
<path d="M24.4807 8.16735C25.0767 7.94226 24.8813 6.24922 24.6664 5.29956C24.4582 5.41005 24.2302 5.4784 23.9954 5.50067C23.7607 5.52294 23.5238 5.49868 23.2985 5.4293C23.0787 5.79981 22.7369 6.08311 22.3312 6.23106C22.9539 7.21769 23.9498 8.36714 24.4807 8.16735Z" fill="white"/>
<path d="M24.7124 11.5097C25.3208 11.2502 25.0713 9.55718 24.8055 8.54265C24.7569 8.57435 24.7052 8.60108 24.6512 8.62244C24.5554 8.65945 24.4536 8.67879 24.3509 8.67952C23.6793 8.67952 22.9556 7.92836 22.4384 7.25244C22.5283 7.98285 22.5394 8.86829 22.1987 9.37231C22.897 10.4225 24.1196 11.7659 24.7124 11.5097Z" fill="white"/>
<path d="M21.861 12.7607C22.1756 13.2797 22.8237 14.1878 23.4581 14.5718H24.4482C24.9609 14.0827 24.9355 12.7497 24.8462 11.9739C24.7548 12.0064 24.6586 12.0235 24.5616 12.0245C23.7962 12.0245 22.9168 11.1073 22.3469 10.3931C22.4374 11.2461 22.4231 12.341 21.861 12.7607Z" fill="white"/>
<path d="M17.3843 4.38612C17.9133 4.85576 18.1966 5.68347 18.25 6.63572C18.2504 6.63357 18.2504 6.63138 18.25 6.62923C18.5229 6.69994 18.9581 6.75897 19.3932 6.60394C19.8422 6.43357 20.2284 6.13105 20.5005 5.73666L20.6308 5.52519L20.8399 5.66077C20.8458 5.66077 21.4261 6.02597 22.0879 5.80412C22.7615 5.57773 22.9347 5.0549 22.9347 5.04972L23.0207 4.77533L23.2773 4.90506C23.3021 4.91739 23.9059 5.20669 24.4987 4.8363C25.1403 4.43542 25.2927 3.7102 25.3285 3.44165C21.5733 -0.596987 16.1584 -0.735803 16.2692 1.24784C13.5152 1.25303 12.9406 2.46345 14.5378 4.46591C14.629 3.50652 16.3649 3.47798 17.3843 4.38612ZM19.0317 1.38795C18.8592 1.58676 18.6244 1.72183 18.3653 1.77132C18.5861 2.43426 18.5431 2.51146 18.0461 1.98927C17.7673 1.6978 17.3941 1.49736 16.9264 1.38795C17.6282 0.874204 18.3299 0.874204 19.0317 1.38795Z" fill="white"/>
<path d="M23.6991 43.9484C24.7367 44.4298 25.5373 43.6799 25.9535 43.3899L25.3607 43.1156C24.3237 42.6336 23.8626 43.6079 23.1083 43.6734C23.303 43.7655 23.5037 43.857 23.6991 43.9484Z" fill="white"/>
<path d="M25.4813 42.8553L26.0734 43.1297C26.0297 42.627 26.091 41.5339 25.054 41.0539L24.4625 40.7795C24.8983 41.3977 24.4443 42.374 25.4813 42.8553Z" fill="white"/>
<path d="M27.3471 7.08351C27.4437 7.04131 27.5227 6.96703 27.5705 6.87334C27.1024 5.80063 26.4842 4.79931 25.7343 3.89917C25.6233 4.31066 25.4046 4.68542 25.1005 4.98505C25.7102 6.00152 26.7882 7.29562 27.3471 7.08351Z" fill="white"/>
<path d="M25.4619 44.7674C26.4989 45.2488 27.3001 44.4989 27.7157 44.2089L27.1236 43.9339C26.0873 43.4526 25.6254 44.4262 24.8705 44.4924L25.4619 44.7674Z" fill="white"/>
<path d="M27.2454 43.6743L27.8375 43.9487C27.7932 43.4453 27.8551 42.3523 26.8181 41.8729L26.2267 41.5979C26.6625 42.2148 26.2091 43.1923 27.2454 43.6743Z" fill="white"/>
<path d="M27.2204 7.59243C26.5495 7.59243 25.8272 6.84127 25.31 6.16211C25.3875 6.8043 25.4057 7.56584 25.1797 8.08283C25.1847 8.09047 25.189 8.0985 25.1927 8.10683C25.2005 8.13278 25.2142 8.17689 25.2305 8.23203C25.9307 9.28028 27.124 10.5789 27.7096 10.3272C28.2783 10.0827 28.0966 8.58815 27.8536 7.56519C27.8301 7.50032 27.806 7.44 27.7819 7.37772C27.6294 7.51723 27.4295 7.59396 27.2224 7.59243H27.2204Z" fill="white"/>
<path d="M27.5156 47.3279L27.8869 47.1548L27.5866 46.5132L27.2167 46.6864C27.1401 46.7215 27.0538 46.7295 26.972 46.7092C26.8902 46.689 26.8177 46.6416 26.7666 46.5748L26.7014 46.4354C26.6829 46.3536 26.6929 46.2679 26.7299 46.1925C26.7668 46.1172 26.8285 46.0566 26.9047 46.0209L27.2779 45.8483L26.977 45.2068L26.6044 45.3793C26.404 45.4732 26.2373 45.6258 26.1267 45.8168C26.016 46.0078 25.9668 46.228 25.9856 46.4477L25.5296 46.6585C25.3726 46.5029 25.1715 46.3989 24.9533 46.3607C24.7352 46.3224 24.5105 46.3516 24.3096 46.4445L23.8165 46.6728C23.6162 46.7668 23.4496 46.9195 23.339 47.1104C23.2284 47.3014 23.1791 47.5215 23.1977 47.7412L22.7417 47.9526C22.5848 47.7971 22.3838 47.6932 22.1658 47.6548C21.9478 47.6164 21.7233 47.6454 21.5223 47.7379L21.0286 47.9669C20.7825 48.0951 20.5954 48.3129 20.5065 48.575C20.4175 48.837 20.4334 49.1231 20.5508 49.3738C20.6683 49.6245 20.8783 49.8204 21.1371 49.9208C21.396 50.0212 21.6837 50.0184 21.9405 49.9129L22.4336 49.6839C22.6339 49.5902 22.8005 49.4376 22.9111 49.2467C23.0218 49.0558 23.0711 48.8358 23.0524 48.6162L23.5084 48.4047C23.6651 48.5603 23.866 48.6642 24.0839 48.7026C24.3018 48.741 24.5263 48.712 24.7271 48.6195L25.2202 48.3905C25.4206 48.2967 25.5874 48.1441 25.698 47.953C25.8087 47.762 25.8579 47.5418 25.839 47.3221L26.295 47.1113C26.4518 47.2673 26.6529 47.3717 26.8712 47.4105C27.0894 47.4492 27.3143 47.4204 27.5156 47.3279ZM22.1359 49.045L21.6428 49.274C21.5987 49.2961 21.5506 49.3091 21.5013 49.3123C21.4521 49.3156 21.4027 49.3089 21.356 49.2927C21.3094 49.2766 21.2665 49.2513 21.2299 49.2183C21.1933 49.1853 21.1637 49.1453 21.1429 49.1008C21.122 49.0562 21.1104 49.0079 21.1087 48.9587C21.107 48.9096 21.1152 48.8606 21.1329 48.8147C21.1505 48.7688 21.1773 48.7269 21.2115 48.6914C21.2457 48.656 21.2867 48.6278 21.3321 48.6084L21.8246 48.3795C21.913 48.34 22.0134 48.3367 22.1042 48.3704C22.1949 48.4041 22.2687 48.472 22.3096 48.5594C22.3506 48.6468 22.3553 48.7468 22.3228 48.8377C22.2902 48.9285 22.2231 49.003 22.1359 49.045ZM24.9225 47.7509L24.4288 47.9799C24.3523 48.0152 24.266 48.0235 24.1841 48.0033C24.1023 47.9832 24.0298 47.9357 23.9787 47.8689L23.9135 47.7288C23.8953 47.6471 23.9054 47.5617 23.9424 47.4865C23.9793 47.4113 24.0408 47.3508 24.1168 47.315L24.6099 47.0853C24.6537 47.0649 24.7012 47.0533 24.7496 47.0511C24.798 47.0489 24.8464 47.0563 24.8919 47.0727C24.9375 47.0892 24.9793 47.1144 25.0151 47.1469C25.0508 47.1795 25.0798 47.2187 25.1003 47.2624C25.1209 47.3061 25.1326 47.3534 25.1347 47.4016C25.1369 47.4498 25.1295 47.498 25.113 47.5433C25.0965 47.5887 25.0712 47.6304 25.0385 47.666C25.0058 47.7016 24.9664 47.7304 24.9225 47.7509Z" fill="white"/>
<path d="M21.6147 52.2701C22.1931 52.2701 24.213 51.9911 24.2313 52.6956C24.0235 54.5644 17.3495 51.7122 15.8936 50.4739L16.5059 52.3939L14.4775 52.128C16.1008 53.5058 24.2332 56.9619 24.2332 54.8239V53.0653C25.5354 53.2577 26.8466 53.3835 28.1617 53.4422V51.3165C25.9615 51.2248 23.7721 50.958 21.6147 50.5186C20.4617 50.5186 20.4617 52.2701 21.6147 52.2701Z" fill="white"/>
<path d="M25.1097 14.4807C25.124 14.5085 25.1436 14.5403 25.1625 14.5721H28.2331C28.2292 14.2705 28.2075 13.9695 28.1679 13.6705C28.0176 13.7298 27.8574 13.7602 27.6957 13.76C26.8489 13.76 25.9474 13.0108 25.3787 12.436C25.4132 13.0536 25.3872 13.8754 25.1045 14.4722C25.1061 14.4751 25.1078 14.4779 25.1097 14.4807Z" fill="white"/>
<path d="M27.5565 10.8426C26.8524 10.8426 26.0518 10.0642 25.4851 9.38696C25.6115 10.1654 25.6558 11.1027 25.2949 11.6281C25.8597 12.295 27.2067 13.5994 28.0398 13.1979C28.856 12.8042 28.6098 11.141 28.3837 10.2789C28.29 10.4977 28.1173 10.6736 27.8998 10.7719C27.7914 10.8186 27.6746 10.8426 27.5565 10.8426Z" fill="white"/>
<path d="M28.5967 13.3886C28.613 13.4152 28.624 13.4447 28.6292 13.4755C28.6871 13.8383 28.7204 14.2045 28.7289 14.5718H30.2596C30.1351 14.4952 30.0205 14.4037 29.9183 14.2993C29.4532 13.8173 29.2787 13.1135 29.4278 12.3183C29.4978 11.9769 29.6155 11.6469 29.7776 11.3381V11.3342C29.6727 11.4065 29.5487 11.4462 29.4212 11.4484C29.2937 11.4506 29.1684 11.4151 29.0611 11.3466C29.1308 12.0776 29.0722 12.9099 28.5967 13.3886Z" fill="white"/>
<path d="M31.3687 14.3301C31.5397 14.3066 31.7041 14.2484 31.8516 14.1592C31.9992 14.0699 32.1268 13.9515 32.2265 13.8111C32.0426 13.4332 31.9551 13.0159 31.9718 12.5962C31.9868 11.7691 32.4382 10.9849 32.8323 10.4556C32.6292 10.4884 32.4238 10.5049 32.2181 10.5049C31.8629 10.4978 31.5192 10.3785 31.2364 10.1643C30.8984 10.5146 30.0965 11.4325 29.9115 12.41C29.7917 13.0464 29.92 13.599 30.2737 13.9668C30.4134 14.1106 30.5859 14.2187 30.7765 14.2819C30.9672 14.3452 31.1703 14.3617 31.3687 14.3301Z" fill="white"/>
<path d="M32.1022 14.5722H32.9242C32.8013 14.4998 32.6878 14.4126 32.5861 14.3128C32.5614 14.2875 32.5347 14.2583 32.5086 14.2297C32.3912 14.3636 32.2542 14.4791 32.1022 14.5722Z" fill="white"/>
<path d="M32.2156 10.0178C32.5903 10.0243 32.9626 9.95821 33.3119 9.82316C33.1816 9.44239 33.1106 8.86117 33.4096 8.14439C33.549 7.82595 33.7432 7.53421 33.9835 7.2823C33.8134 7.26827 33.6459 7.23229 33.4851 7.17527C33.1406 7.05462 32.794 6.68423 32.5876 6.2334C32.1772 6.59601 31.2431 7.51388 31.1037 8.47586C31.034 8.96107 31.122 9.34833 31.3643 9.62661C31.4717 9.74645 31.6027 9.84301 31.7491 9.9103C31.8956 9.97759 32.0544 10.0142 32.2156 10.0178Z" fill="white"/>
<path d="M30.7411 50.9201H30.6069L30.7411 50.9168V49.9347H32.7415L34.1009 50.3414V48.4869L32.7415 48.893H31.2993V42.2188C30.8998 42.2668 30.4955 42.2951 30.0865 42.3037V48.893H29.6083V42.3037C29.1984 42.2951 28.7939 42.2668 28.3948 42.2188V48.893H26.9559L25.5972 48.4869V50.3434L26.9559 49.9347H28.9563V54.7868L28.2939 56.1412H31.4068L30.7443 54.7868L30.7411 50.9201Z" fill="white"/>
<path d="M32.4594 12.6039C32.4476 13.333 32.7095 13.7482 32.9323 13.9661C33.046 14.0816 33.182 14.1729 33.3321 14.2347C33.4823 14.2964 33.6434 14.3273 33.8058 14.3255C34.5464 14.3067 34.8558 13.6684 34.859 13.6619C34.8623 13.6554 34.8675 13.6522 34.8714 13.6457C34.7186 13.3166 34.6445 12.9566 34.6552 12.5942C34.6649 12.0344 34.9196 11.4356 35.2303 10.9076C35.1033 10.9329 34.9742 10.9459 34.8447 10.9465C34.6747 10.9464 34.5053 10.9266 34.3399 10.8875C34.0507 10.8226 33.7745 10.6138 33.568 10.3225C33.2163 10.7176 32.4756 11.6536 32.4594 12.6039Z" fill="white"/>
<path d="M35.1634 14.0959C35.0241 14.2868 34.8486 14.4485 34.6469 14.5721H35.7542C35.5304 14.4496 35.3304 14.2883 35.1634 14.0959Z" fill="white"/>
<path d="M36.0189 42.1401L35.8078 41.7612L32.0253 43.8545L32.4721 44.1023L36.0189 42.1401Z" fill="white"/>
<path d="M33.649 6.71616C34.2535 6.92827 34.6514 6.67983 34.6677 6.66881C34.6734 6.66593 34.6793 6.66354 34.6853 6.66167C35.0201 6.41441 35.3762 6.19733 35.7497 6.013C35.7538 5.56643 35.8748 5.12867 36.1008 4.74289C36.1467 4.6618 36.1969 4.5832 36.2512 4.50743C36.1596 4.49892 36.0693 4.47976 35.9822 4.45034C35.7217 4.35823 35.4859 4.10071 35.3575 3.7621C35.2779 3.54606 35.2444 3.31585 35.2592 3.08618C34.6925 3.26392 33.5506 3.70956 33.1025 4.51326C32.9774 4.72631 32.9024 4.96476 32.883 5.21078C32.8636 5.45679 32.9003 5.70399 32.9904 5.93386C33.1487 6.35031 33.4418 6.64351 33.649 6.71616Z" fill="white"/>
<path d="M36.702 43.3628L36.491 42.9846L33.4731 44.6537L33.9206 44.9008L36.702 43.3628Z" fill="white"/>
<path d="M35.8804 6.68276C35.8597 6.62989 35.8419 6.57597 35.8269 6.52124C35.3365 6.78071 34.233 7.44106 33.863 8.33039C33.553 9.07377 33.7328 9.6206 33.863 9.88072C34.0077 10.1609 34.2324 10.3659 34.4493 10.4165C35.2049 10.593 35.6902 10.2135 35.6947 10.2096H35.6993C35.9055 9.93131 36.1281 9.66533 36.3656 9.41303C36.3656 9.39227 36.3656 9.37281 36.3695 9.35205C36.4438 8.70338 36.9414 8.00735 37.3538 7.53122C37.2834 7.53771 37.2137 7.54225 37.1447 7.54225C36.9997 7.5438 36.8552 7.52502 36.7154 7.48647C36.3493 7.37619 36.0445 7.08429 35.8804 6.68276Z" fill="white"/>
<path d="M36.1441 3.9918C36.546 4.13256 36.9056 3.8426 36.9088 3.84001H36.9147C37.3762 3.48963 37.8841 3.20434 38.4239 2.99219C37.9739 2.52698 37.5601 2.02821 37.1863 1.50024C36.8893 1.6196 36.2555 1.93161 35.9292 2.51412C35.6562 3.00063 35.7403 3.40021 35.8132 3.59481C35.8999 3.81795 36.0419 3.95612 36.1441 3.9918Z" fill="white"/>
<path d="M37.9645 13.6365C37.8656 13.3616 37.8151 13.0717 37.8154 12.7796C37.8154 12.2568 38.0062 11.7119 38.2544 11.2267C38.1524 11.2498 38.0483 11.262 37.9437 11.263C37.84 11.2628 37.7366 11.2523 37.6349 11.2319C37.3491 11.1637 37.0866 11.021 36.8743 10.8186C36.662 10.6162 36.5075 10.3612 36.4266 10.0798C35.9655 10.6267 35.1597 11.7087 35.1447 12.6038C35.1239 13.8785 36.1348 14.2813 36.5263 14.3286C36.8081 14.3703 37.0959 14.3265 37.3524 14.2031C37.6089 14.0796 37.8222 13.8822 37.9645 13.6365Z" fill="white"/>
<path d="M35.8903 41.4102C36.0779 41.5224 36.3462 41.6398 36.6498 41.4751L36.8777 41.3486C36.6947 41.3453 36.5455 41.2084 36.369 41.1481L36.5709 41.0359C36.7592 41.1481 37.0269 41.2655 37.3305 41.1008L37.5591 40.971C37.3761 40.971 37.2262 40.8303 37.0491 40.7699L37.251 40.6584C37.4392 40.7706 37.7069 40.888 38.0111 40.7232L38.2398 40.5968C38.0561 40.5935 37.9076 40.4566 37.7304 40.3963L37.9525 40.2731L37.976 40.2594C38.1329 40.1634 38.2691 39.8988 38.4215 39.7645C38.2079 39.8294 37.8724 39.793 37.7213 39.9059L37.5174 40.0188C37.5597 39.8365 37.5207 39.6367 37.6158 39.4797L37.3878 39.6056C37.0829 39.7736 37.0432 40.0648 37.0386 40.2834L36.8361 40.395C36.8797 40.2127 36.84 40.0129 36.9357 39.856L36.7064 39.9857C36.4029 40.1537 36.3619 40.4443 36.3586 40.6629L36.1554 40.7751C36.199 40.5929 36.1593 40.3931 36.2544 40.2354L36.0257 40.3619C35.7229 40.5299 35.6818 40.8212 35.6779 41.0398L31.2987 43.4613L31.7469 43.7084L35.8903 41.4102Z" fill="white"/>
<path d="M38.211 14.1274C38.0645 14.3037 37.8881 14.4532 37.6899 14.5692H38.6103C38.4576 14.4408 38.3232 14.2922 38.211 14.1274Z" fill="white"/>
<path d="M38.201 41.2379C38.2434 41.0557 38.201 40.8559 38.2994 40.6982L38.0714 40.828C37.7672 40.996 37.7262 41.2872 37.7223 41.5058L37.5197 41.6174C37.5633 41.4351 37.5236 41.2353 37.6181 41.0784L37.3901 41.2081C37.0865 41.3761 37.0462 41.6667 37.0422 41.8853L36.839 41.9969C36.8827 41.8153 36.8429 41.6148 36.938 41.4578L36.7094 41.5843C36.4052 41.7523 36.3648 42.0429 36.3616 42.2622L32.749 44.2601L33.1965 44.5073L36.5739 42.6391C36.7615 42.7519 37.0299 42.8694 37.3328 42.7039L37.5614 42.5775C37.3777 42.5742 37.2285 42.4373 37.052 42.377L37.2539 42.2648C37.4422 42.377 37.7099 42.4944 38.0134 42.3297L38.2414 42.1999C38.0584 42.1999 37.9099 42.0598 37.7321 41.9995L37.934 41.8879C38.1222 42.0001 38.3899 42.1175 38.6941 41.9528L38.9221 41.8263C38.7397 41.823 38.5906 41.6862 38.414 41.6252L38.6349 41.5026C38.6434 41.4986 38.6516 41.494 38.6596 41.489C38.8159 41.393 38.9527 41.129 39.1052 40.994C38.8915 41.0589 38.5554 41.0226 38.4049 41.1348L38.201 41.2379Z" fill="white"/>
<path d="M37.7304 10.755C38.2749 10.8659 38.6579 10.5131 38.7224 10.4488C38.9088 10.1786 39.1124 9.92051 39.3321 9.67627C38.8117 8.96255 38.5231 8.1074 38.5048 7.22559C38.4195 7.25997 38.3218 7.29629 38.2163 7.33262C38.0209 7.51944 36.9559 8.55731 36.8582 9.40448C36.7468 10.3457 37.4503 10.6992 37.7304 10.755Z" fill="white"/>
<path d="M35.8798 46.6728L35.3874 46.4445C35.1864 46.3516 34.9617 46.3224 34.7436 46.3607C34.5255 46.3989 34.3243 46.5029 34.1674 46.6585L33.7114 46.4477C33.7302 46.228 33.6809 46.0078 33.5703 45.8168C33.4597 45.6258 33.293 45.4732 33.0926 45.3793L32.72 45.2068L32.4204 45.8483L32.7923 46.0209C32.8684 46.0568 32.93 46.1173 32.967 46.1926C33.004 46.2679 33.0143 46.3535 32.9962 46.4354L32.931 46.5748C32.8801 46.6417 32.8078 46.6892 32.7261 46.7095C32.6443 46.7298 32.558 46.7217 32.4816 46.6864L32.1103 46.5132L31.8087 47.1548L32.1813 47.3279C32.3822 47.4205 32.6068 47.4496 32.8248 47.4112C33.0429 47.3728 33.2438 47.2688 33.4007 47.1132L33.8566 47.3241C33.8376 47.5438 33.8867 47.7641 33.9974 47.9551C34.108 48.1462 34.2749 48.2988 34.4755 48.3924L34.9685 48.6214C35.1694 48.7139 35.3939 48.743 35.6118 48.7046C35.8297 48.6662 36.0305 48.5622 36.1873 48.4067L36.6432 48.6182C36.6247 48.8377 36.674 49.0577 36.7846 49.2486C36.8952 49.4394 37.0618 49.592 37.262 49.6859L37.7551 49.9149C37.8844 49.9822 38.026 50.0227 38.1714 50.0341C38.3168 50.0454 38.463 50.0272 38.6012 49.9807C38.7394 49.9341 38.8667 49.8602 38.9753 49.7633C39.084 49.6664 39.1718 49.5486 39.2335 49.417C39.2952 49.2854 39.3295 49.1427 39.3342 48.9975C39.339 48.8523 39.3141 48.7077 39.2612 48.5723C39.2082 48.437 39.1283 48.3137 39.0262 48.21C38.9241 48.1063 38.8019 48.0242 38.6671 47.9688L38.1746 47.7399C37.9737 47.6474 37.7491 47.6183 37.5311 47.6567C37.3131 47.6951 37.1122 47.7991 36.9552 47.9546L36.4993 47.7431C36.5183 47.523 36.4691 47.3024 36.3584 47.111C36.2476 46.9197 36.0806 46.7667 35.8798 46.6728ZM35.7808 47.7288L35.7157 47.8689C35.6648 47.9358 35.5924 47.9833 35.5106 48.0034C35.4288 48.0236 35.3426 48.0153 35.2662 47.9799L34.7725 47.7509C34.6839 47.7097 34.6153 47.6351 34.5819 47.5436C34.5485 47.452 34.553 47.351 34.5943 47.2628C34.6357 47.1745 34.7106 47.1062 34.8025 47.073C34.8944 47.0397 34.9959 47.0441 35.0845 47.0853L35.5776 47.315C35.6536 47.3507 35.7152 47.4111 35.7522 47.4864C35.7891 47.5616 35.7992 47.6471 35.7808 47.7288ZM37.378 48.5572C37.4194 48.4691 37.4942 48.4009 37.586 48.3676C37.6778 48.3342 37.7792 48.3385 37.8678 48.3795L38.3609 48.6084C38.4055 48.6283 38.4457 48.6569 38.4791 48.6924C38.5125 48.7279 38.5385 48.7697 38.5555 48.8153C38.5726 48.8609 38.5804 48.9094 38.5784 48.958C38.5765 49.0066 38.5649 49.0544 38.5442 49.0985C38.5236 49.1426 38.4944 49.1822 38.4582 49.2149C38.4221 49.2477 38.3798 49.273 38.3338 49.2893C38.2877 49.3056 38.2389 49.3127 38.1901 49.31C38.1413 49.3074 38.0935 49.2951 38.0496 49.274L37.5558 49.045C37.4674 49.0036 37.3991 48.9291 37.3658 48.8376C37.3325 48.7462 37.3368 48.6454 37.378 48.5572Z" fill="white"/>
<path d="M36.526 4.98148C36.2257 5.51663 36.1547 6.06995 36.3306 6.50002C36.44 6.76403 36.6296 6.95409 36.8517 7.01896C37.1709 7.11172 37.6203 7.01896 38.0021 6.89312C38.1814 6.83374 38.3574 6.76444 38.529 6.68554C38.5911 6.19984 38.7495 5.73126 38.995 5.307C39.2404 4.88274 39.568 4.51125 39.9588 4.2141C39.546 3.97318 39.1611 3.68778 38.8111 3.36304C38.3896 3.51612 37.04 4.06296 36.526 4.98148Z" fill="white"/>
<path d="M39.3426 42.703C39.4983 42.607 39.6357 42.3429 39.7875 42.208C39.5745 42.2729 39.2384 42.2366 39.0879 42.3488L38.8834 42.4623C38.9257 42.2794 38.8834 42.0802 38.9824 41.9226L38.7538 42.0523C38.4496 42.2203 38.4085 42.511 38.4046 42.7302L38.2027 42.8418C38.245 42.6595 38.2066 42.4597 38.3011 42.3027C38.2248 42.3442 38.1493 42.3871 38.0724 42.4286C37.7689 42.5966 37.7279 42.8878 37.7239 43.1064L37.5214 43.218C37.565 43.0364 37.5253 42.8359 37.6204 42.679L37.3924 42.8055C37.0882 42.9735 37.0472 43.2641 37.0439 43.4827L34.1974 45.057L34.6455 45.3041L37.2563 43.8608C37.4439 43.9724 37.7122 44.0905 38.0151 43.9225C38.0913 43.8803 38.1682 43.8388 38.2431 43.7966C38.0601 43.7934 37.9109 43.6565 37.7344 43.5955L37.9363 43.484C38.1252 43.5962 38.3923 43.7136 38.6958 43.5488L38.9238 43.4191C38.7407 43.4191 38.5929 43.279 38.4151 43.2187L38.617 43.1064C38.8052 43.2193 39.0729 43.3367 39.3765 43.1713L39.6045 43.0448C39.4221 43.0416 39.2729 42.9047 39.0964 42.8437L39.3179 42.7211L39.3426 42.703Z" fill="white"/>
<path d="M40.082 10.4991C39.9245 10.3633 39.7763 10.217 39.6384 10.0613C39.3779 10.3616 38.296 11.6745 38.3012 12.7779C38.3057 13.5706 38.692 14.0104 38.9219 14.1998C39.2177 14.4457 39.503 14.5002 39.6534 14.4742C39.8384 14.4441 40.0144 14.3734 40.1686 14.2673C40.3229 14.1612 40.4515 14.0223 40.5452 13.8606C40.4377 12.787 40.8591 11.5694 41.0448 11.0979C40.6974 10.9439 40.3734 10.7424 40.082 10.4991Z" fill="white"/>
<path d="M29.8521 26.1855C30.0253 26.1362 30.6481 25.9494 30.764 25.8689C30.8402 25.8177 30.8174 25.7632 30.6116 25.7165C30.0358 25.6023 29.6997 25.4493 29.5935 24.9465C29.3909 25.2871 28.7656 26.0013 28.2256 26.3911C28.5682 26.3263 29.5993 25.7989 29.7928 25.6717C29.6404 26.1583 29.6 26.2582 29.8521 26.1855Z" fill="white"/>
<path d="M27.0863 26.1133L25.994 26.8775C27.2533 26.65 28.3884 25.8744 29.3994 24.5507C29.6124 24.4592 29.8472 24.4302 30.0762 24.467C31.7359 24.67 31.8394 26.0452 34.7276 26.1075V21.8872H24.9655V26.1133L26.0265 25.27L27.0863 26.1133ZM32.0068 23.4791C32.0062 23.7071 31.9324 23.929 31.7961 24.1122C31.6598 24.2955 31.4682 24.4305 31.2493 24.4975C30.9037 24.2926 30.519 24.1616 30.1198 24.1128C29.8235 24.068 29.5206 24.108 29.2463 24.2283C29.0737 24.3094 29.0164 24.5435 28.7526 24.5435C28.4693 24.5427 28.1978 24.4303 27.9974 24.2308C27.7971 24.0314 27.684 23.7612 27.683 23.4791H32.0068Z" fill="white"/>
<path d="M34.7296 28.1844V27.3042H24.9655V28.1844C24.9655 30.844 27.1769 33.0456 29.8469 33.0456C32.5169 33.0456 34.7296 30.8434 34.7296 28.1844ZM31.7762 30.6779C31.3242 30.6779 30.9575 30.362 30.9575 29.9715H32.5963C32.5989 30.362 32.2322 30.6779 31.7762 30.6779ZM33.5617 28.6521C33.5617 29.0413 33.1949 29.3585 32.7429 29.3585C32.2908 29.3585 31.9228 29.042 31.9228 28.6521H33.5617ZM31.6297 28.6521C31.6297 29.0413 31.263 29.3585 30.8109 29.3585C30.3589 29.3585 29.9908 29.042 29.9908 28.6521H31.6297ZM26.1275 28.6521H27.7664C27.7664 29.0413 27.3996 29.3585 26.9476 29.3585C26.4955 29.3585 26.1301 29.042 26.1301 28.6521H26.1275ZM27.9129 30.6779C27.457 30.6779 27.0942 30.362 27.0942 29.9715H28.7324C28.735 30.362 28.3682 30.6779 27.9155 30.6779H27.9129ZM28.0634 28.6521H29.7023C29.7023 29.0413 29.3355 29.3585 28.8828 29.3585C28.4301 29.3585 28.0634 29.042 28.0634 28.6521ZM29.0294 29.9715H30.6689C30.6689 30.3607 30.3022 30.6779 29.8488 30.6779C29.3955 30.6779 29.0274 30.362 29.0274 29.9715H29.0294Z" fill="white"/>
<path d="M22.6424 33.4439C22.6066 33.5736 23.0241 33.7967 23.1349 33.8259C23.4462 33.9096 23.5726 33.4413 23.2599 33.3576C23.1499 33.329 22.6763 33.3141 22.6424 33.4439Z" fill="white"/>
<path d="M24.2388 34.1794C24.3116 34.1375 24.3703 34.0749 24.4075 33.9998C24.4446 33.9246 24.4585 33.8401 24.4475 33.7571C24.4364 33.674 24.4009 33.5961 24.3453 33.5331C24.2898 33.4702 24.2168 33.4251 24.1355 33.4035C24.0542 33.3819 23.9683 33.3848 23.8886 33.4118C23.809 33.4388 23.7392 33.4888 23.688 33.5553C23.6369 33.6218 23.6067 33.702 23.6013 33.7856C23.5959 33.8692 23.6156 33.9525 23.6577 34.025C23.6857 34.0732 23.7229 34.1154 23.7672 34.1493C23.8115 34.1831 23.8621 34.2079 23.9161 34.2223C23.9701 34.2366 24.0263 34.2402 24.0817 34.2329C24.1371 34.2255 24.1905 34.2073 24.2388 34.1794Z" fill="white"/>
<path d="M23.8078 32.9516C23.7505 32.853 23.4254 32.5099 23.3101 32.5767C23.1948 32.6435 23.329 33.0956 23.3857 33.1942C23.5472 33.4731 23.97 33.2305 23.8078 32.9516Z" fill="white"/>
<path d="M24.4807 33.0497C24.5107 32.9401 24.5243 32.4659 24.3941 32.4334C24.2638 32.401 24.0397 32.8149 24.0104 32.9238C23.929 33.2352 24.3993 33.361 24.4807 33.0497Z" fill="white"/>
<path d="M41.459 30.1123V15.1863H18.2355V30.1123C18.2355 36.4731 23.4595 41.6755 29.8469 41.6755C36.2343 41.6755 41.459 36.4731 41.459 30.1123ZM33.1442 39.1379C33.1281 38.7768 33.3732 38.6068 33.8796 38.628C34.0998 37.7316 34.2226 37.1279 34.2483 36.8169C34.0048 36.8313 33.7634 36.7652 33.5615 36.6289C33.3596 36.4926 33.2086 36.2937 33.1318 36.0632C33.3411 34.7464 33.6234 33.9481 33.9786 33.6683C34.3004 33.6774 34.6222 33.6774 34.9439 33.6683C35.7315 34.9131 35.5953 35.96 35.5829 37.354C35.295 37.6883 34.8117 38.2585 34.133 39.0646L33.1442 39.1379ZM33.3396 36.7021C33.545 36.8399 33.7695 36.9472 34.006 37.0206C33.8887 37.793 33.8299 38.1792 33.8294 38.1792C33.5458 37.7348 33.3775 37.2273 33.3396 36.7021ZM33.9493 33.0696L34.2691 33.2953L34.4541 32.886L34.6378 33.2953L34.9589 33.0696L34.9491 33.5236H33.9584L33.9493 33.0696ZM35.7731 31.1936H36.2447L36.1594 31.6522L36.6206 31.5679V32.0375L36.1594 31.9532L36.2447 32.4118H35.7731L35.8565 31.9532L35.4006 32.0375V31.5679L35.8565 31.6522L35.7731 31.1936ZM36.0102 33.1493C35.953 33.1493 35.8971 33.1324 35.8495 33.1008C35.8019 33.0691 35.7649 33.0241 35.743 32.9714C35.7211 32.9187 35.7154 32.8608 35.7266 32.8049C35.7378 32.749 35.7655 32.6977 35.806 32.6574C35.8465 32.6172 35.8981 32.5898 35.9542 32.5788C36.0104 32.5677 36.0685 32.5735 36.1214 32.5954C36.1742 32.6173 36.2193 32.6543 36.251 32.7018C36.2827 32.7492 36.2996 32.805 36.2994 32.862C36.2994 32.8998 36.292 32.9372 36.2774 32.9721C36.2629 33.007 36.2416 33.0387 36.2147 33.0654C36.1878 33.0921 36.156 33.1133 36.1209 33.1277C36.0858 33.1421 36.0482 33.1494 36.0102 33.1493ZM36.1731 33.3089V37.3255H35.8474V33.3089H36.1731ZM35.1459 39.051C35.0547 38.8421 35.1328 38.6856 35.3804 38.5813C34.9798 37.8905 36.02 37.2503 36.6323 37.9833C36.1684 38.3812 35.6709 38.7384 35.1452 39.051H35.1459ZM37.9064 36.6814C37.8638 36.6442 37.8307 36.5976 37.8095 36.5453C37.7884 36.493 37.7798 36.4365 37.7846 36.3804C37.808 36.1118 38.0549 36.1131 38.1383 35.8614C38.2217 35.6098 38.0223 35.373 37.7396 35.5819L37.3443 35.8725C37.3492 35.6893 37.406 35.5112 37.5081 35.3588C37.6101 35.2063 37.7534 35.0857 37.9213 35.0107C38.0892 34.9357 38.2749 34.9095 38.4571 34.9351C38.6393 34.9606 38.8106 35.0368 38.9512 35.155C38.648 35.6932 38.2982 36.2039 37.9057 36.6814H37.9064ZM39.8436 31.5075C39.7387 32.2263 39.0261 32.238 38.4607 32.356C38.2574 32.3916 38.0609 32.4586 37.8784 32.5545C37.5989 32.7115 37.3573 33.1506 37.683 33.3284C38.0477 33.5275 38.2412 33.0222 38.6105 32.8827C39.0496 32.7167 39.3792 33.0812 39.6404 33.6521C39.5205 33.9699 39.4226 34.2095 39.3466 34.3708C39.2951 34.2352 39.2118 33.9738 39.1114 33.7539C38.7376 32.9379 38.634 33.68 38.3897 34.0315C38.1201 34.4207 37.7103 34.8199 37.1606 35.229C36.9647 35.8111 36.7337 36.2487 36.4675 36.5419C36.4584 35.757 36.4584 34.9723 36.4675 34.1879C36.7776 33.9284 36.9384 33.5113 37.0466 33.1338C37.1352 32.8094 37.1482 32.6992 37.4374 32.4384C37.698 32.2088 38.0171 32.0901 38.3865 32.0129C38.647 31.959 39.1681 31.911 39.3635 31.73C39.4379 31.6576 39.484 31.5613 39.4938 31.4582C39.5628 30.975 38.8222 30.8342 38.475 30.7752C38.2145 30.7304 37.9038 30.6526 37.7351 30.4308C37.4263 30.0234 37.795 29.4214 38.0341 29.0763C38.191 28.8486 38.4803 29.0478 38.3226 29.2748C38.2002 29.4532 37.8413 29.9884 38.0152 30.2199C38.1155 30.3497 38.3806 30.4042 38.5363 30.4301C38.6772 30.4534 38.8167 30.4839 38.9545 30.5216C39.43 30.6552 39.9257 30.9348 39.8429 31.5075H39.8436ZM37.5084 17.8192C38.4503 17.7777 38.3187 17.1232 37.8719 17.0778C38.4627 16.7379 38.8281 17.3061 38.7571 17.853C39.3062 17.7816 39.8768 18.1462 39.5387 18.7345C39.4925 18.2895 38.8359 18.1579 38.7936 19.0958C41.1385 19.127 39.8488 22.7284 40.2481 24.6355C39.8254 24.4467 39.5407 24.1698 39.5635 23.5133L39.6495 21.0042C39.6638 20.5125 39.372 20.4775 39.3362 20.6929C39.2906 21.42 39.271 22.7466 39.2209 23.7092C38.7975 23.5204 38.6542 23.2882 38.6763 22.6318L38.746 20.3977C38.7604 19.9054 38.4685 19.8703 38.4334 20.0864C38.3871 20.8135 38.3819 21.9176 38.337 22.8049C37.9142 22.6162 37.7683 22.4073 37.7924 21.7509L37.8321 20.1227C37.8465 19.631 37.5963 19.5266 37.4172 19.7049C37.3512 19.7853 37.2958 19.8739 37.2524 19.9683C36.601 21.3007 35.2905 20.004 36.6336 19.3521C36.7283 19.3086 36.8172 19.2535 36.8981 19.1879C37.0772 19.0096 36.9723 18.7598 36.4779 18.7747L34.8436 18.815C34.1844 18.8377 33.974 18.6924 33.7858 18.2714C34.6762 18.2266 35.7849 18.2214 36.5144 18.1754C36.7313 18.1403 36.6961 17.851 36.2017 17.864L33.9584 17.9334C33.2999 17.9568 33.0654 17.8128 32.8771 17.3918C33.8425 17.3431 35.1752 17.3224 35.9054 17.277C36.1223 17.2413 36.0865 16.9526 35.5927 16.9649L33.0732 17.0525C32.414 17.0752 32.1359 16.793 31.947 16.3708C33.8607 16.7697 37.4778 15.4821 37.5084 17.8192ZM22.0056 18.4893C22.0462 18.5296 22.0738 18.5809 22.085 18.6368C22.0963 18.6927 22.0906 18.7506 22.0687 18.8033C22.0468 18.856 22.0098 18.901 21.9622 18.9327C21.9146 18.9644 21.8587 18.9813 21.8014 18.9813C21.7442 18.9813 21.6883 18.9644 21.6407 18.9327C21.5931 18.901 21.556 18.856 21.5342 18.8033C21.5123 18.7506 21.5066 18.6927 21.5178 18.6368C21.5291 18.5809 21.5567 18.5296 21.5972 18.4893C21.624 18.4626 21.6559 18.4414 21.6909 18.4269C21.7259 18.4124 21.7635 18.405 21.8014 18.405C21.8394 18.405 21.8769 18.4124 21.912 18.4269C21.947 18.4414 21.9788 18.4626 22.0056 18.4893ZM20.4515 17.6804L20.785 17.3483L21.0514 17.7317L21.3165 17.3483L21.6493 17.6804L21.2644 17.9451L21.6493 18.2097L21.3165 18.5393L21.0514 18.1559L20.785 18.5393L20.4515 18.2078L20.8364 17.9431L20.4515 17.6804ZM19.223 17.8562C19.4078 17.8308 19.596 17.8616 19.7628 17.9448C19.9297 18.0279 20.0673 18.1594 20.1577 18.322C20.2264 18.4442 20.2602 18.5828 20.2554 18.7228C20.2489 19.2703 19.7858 19.7919 19.6692 20.34C19.6275 20.5463 19.6112 20.7941 19.6926 20.9945C19.7118 21.0522 19.7443 21.1046 19.7875 21.1475C19.8308 21.1904 19.8835 21.2227 19.9414 21.2416C20.2808 21.3292 20.5277 20.8213 20.6905 20.5884C21.1041 19.9994 21.5191 19.5304 22.7013 18.7235C22.3932 17.2315 23.3638 15.5015 24.7245 16.6581C24.6686 16.9384 24.5166 17.1906 24.2946 17.3717C24.4108 17.4348 24.5118 17.5223 24.5908 17.6281C24.6697 17.7339 24.7247 17.8555 24.7518 17.9845C24.779 18.1135 24.7778 18.2468 24.7482 18.3753C24.7186 18.5038 24.6614 18.6244 24.5805 18.7287C25.0163 18.9155 25.368 19.0128 25.7016 18.9486C25.9973 18.8915 26.0435 18.8046 26.2617 18.6476C26.3979 18.5503 26.5529 18.4997 26.6949 18.7443C26.2554 19.2827 25.3913 19.5205 24.1024 19.4578C23.593 19.9102 23.0079 20.2702 22.3737 20.5216C22.388 20.9428 21.9412 21.5937 21.0331 22.4741C21.1673 23.2389 21.095 23.8597 20.7576 24.1023C20.4482 24.3241 20.0163 24.256 20.314 23.7676C20.5127 23.4432 20.9191 23.1474 20.5746 22.7673C19.9401 22.0402 21.3699 21.6529 20.8547 20.9446C20.7596 21.047 20.6645 21.1476 20.5713 21.252C20.3948 21.4466 20.1381 21.5835 19.8691 21.5115C19.7686 21.4822 19.6764 21.4296 19.6002 21.358C19.524 21.2864 19.466 21.1978 19.4308 21.0996C19.3278 20.8453 19.3383 20.5476 19.393 20.2842C19.4368 20.0944 19.5024 19.9103 19.5884 19.7354C19.7187 19.4474 19.9668 19.0388 19.9714 18.7203C19.9753 18.6161 19.9459 18.5134 19.8874 18.4271C19.8033 18.4693 19.7086 18.4859 19.6151 18.4746C19.5216 18.4634 19.4335 18.4249 19.3619 18.364C19.2904 18.303 19.2385 18.2224 19.2128 18.1321C19.1872 18.0419 19.1889 17.9461 19.2178 17.8569L19.223 17.8562ZM23.526 21.1126C23.3143 21.8138 22.3007 22.1952 21.6187 22.275C22.1281 21.7154 22.4221 21.1837 22.5007 20.6799C22.6036 20.9439 22.5919 21.1424 22.5111 21.5115C23.0081 21.4434 23.2986 20.894 23.526 21.1126ZM24.7948 38.2142C25.507 38.2436 26.0665 38.0857 26.4734 37.7407C27.5899 38.2661 25.7107 39.6756 24.7948 38.2142ZM24.3981 37.8451C24.3454 38.1694 24.305 38.5346 24.2679 38.8778L23.8979 38.6047C23.9402 38.2849 23.9832 37.9677 24.0112 37.6414C23.9585 37.6064 23.9051 37.5688 23.8523 37.5279C23.7774 37.9456 23.7872 38.185 23.7624 38.5009L23.1241 38.0287C23.2361 37.9171 23.3416 37.8643 23.4406 37.8704C23.4719 37.6635 23.4986 37.4449 23.522 37.2165C23.2257 36.8922 22.9606 36.4517 22.7534 35.8718L22.8277 36.8007L22.7586 36.7728C22.422 36.6529 22.1406 36.4151 21.9669 36.1039C21.7933 35.7926 21.7392 35.4291 21.8148 35.0811C21.4743 34.9723 21.1852 34.7438 21.0014 34.4384C20.8176 34.133 20.7515 33.7715 20.8156 33.4211L20.8253 33.3478L21.5966 33.8759C21.1953 33.4069 20.9452 32.9586 20.811 32.5415C20.6004 32.4468 20.3974 32.3603 20.202 32.2821C20.1586 32.3686 20.0602 32.4334 19.9069 32.4767C19.8691 32.1562 19.8418 31.9396 19.8144 31.6905C20.103 31.8299 20.3075 31.9564 20.7088 32.1004C20.6983 32.0356 20.6925 31.9707 20.6886 31.9058C20.3909 31.767 20.0939 31.6464 19.7942 31.5218L19.7415 31.0677C20.058 31.2066 20.3993 31.3558 20.7048 31.4712C20.9055 30.0318 22.5124 29.3001 23.0902 30.0694C23.1853 30.1963 23.234 30.3518 23.2282 30.51C23.2224 30.6682 23.1624 30.8197 23.0583 30.9393C23.098 30.5086 22.3457 30.0162 22.2336 31.0243C21.932 33.7254 21.8141 35.0798 21.8141 35.0798C21.8141 35.0798 23.0518 35.6552 25.5504 36.7456C26.4839 37.1523 26.4311 36.2578 26.0377 36.0768C26.1937 36.0469 26.3553 36.0711 26.4956 36.1453C26.6359 36.2195 26.7465 36.3393 26.8089 36.4848C27.1906 37.3722 25.7504 38.3919 24.3981 37.8451ZM21.8337 29.7367C21.3299 29.9153 20.9131 30.3187 20.583 30.9471C19.7695 29.4286 21.9353 28.5126 21.8337 29.7386V29.7367ZM23.2491 32.4708C23.5154 32.3178 23.8212 32.2469 24.1279 32.2669C24.4346 32.287 24.7285 32.3972 24.9723 32.5836C25.2162 32.77 25.399 33.0242 25.4978 33.3141C25.5965 33.604 25.6067 33.9166 25.5271 34.2122C25.4475 34.5079 25.2816 34.7734 25.0505 34.9752C24.8193 35.177 24.5333 35.306 24.2285 35.3459C23.9237 35.3858 23.6139 35.3347 23.3382 35.1993C23.0626 35.0638 22.8334 34.85 22.6798 34.5849C22.4744 34.2295 22.419 33.8075 22.5258 33.4115C22.6325 33.0156 22.8927 32.6779 23.2491 32.4728V32.4708ZM23.7565 28.1831V27.3048H18.8282V26.1009H23.7565V20.6838H29.2424V15.7766H30.4514V20.6838H35.9386V26.1009H40.8656V27.3048H35.9386V28.185C35.9386 31.3058 33.5116 33.9128 30.4514 34.2177V41.069C30.2521 41.08 30.0501 41.0859 29.8469 41.0859C29.6437 41.0859 29.4431 41.08 29.2424 41.069V34.2197C26.1836 33.9128 23.7565 31.3058 23.7565 28.185V28.1831Z" fill="white"/>
<path d="M22.5109 21.5139C22.4758 21.5191 22.5492 21.5139 22.5109 21.5139V21.5139Z" fill="white"/>
<path d="M24.8908 33.5956C24.9891 33.5385 25.3343 33.2148 25.2666 33.0987C25.1989 32.9826 24.7455 33.1188 24.6465 33.1752C24.5905 33.2075 24.5497 33.2606 24.533 33.3228C24.5164 33.385 24.5252 33.4513 24.5576 33.507C24.59 33.5628 24.6433 33.6034 24.7057 33.62C24.7682 33.6366 24.8348 33.6278 24.8908 33.5956Z" fill="white"/>
<path d="M24.2432 34.6737C24.3005 34.7716 24.6256 35.1148 24.7422 35.048C24.8588 34.9812 24.7233 34.529 24.666 34.4304C24.5038 34.1522 24.0817 34.3948 24.2432 34.6737Z" fill="white"/>
<path d="M23.569 34.5749C23.5397 34.6845 23.5254 35.1587 23.6556 35.1905C23.7859 35.2223 24.01 34.8103 24.04 34.7007C24.1227 34.3894 23.6524 34.2642 23.569 34.5749Z" fill="white"/>
<path d="M24.7908 34.2679C24.9009 34.2971 25.377 34.3114 25.4096 34.1817C25.4422 34.0519 25.0272 33.8288 24.9171 33.7996C24.6051 33.7179 24.4807 34.1849 24.7908 34.2679Z" fill="white"/>
<path d="M23.1611 34.0291C23.0621 34.0862 22.7175 34.4099 22.7852 34.526C22.8035 34.5591 22.8543 34.5714 22.9155 34.5714C23.0839 34.5613 23.2489 34.5202 23.4021 34.4501C23.4547 34.4162 23.4923 34.3636 23.5071 34.3029C23.5218 34.2423 23.5126 34.1783 23.4813 34.1242C23.45 34.0702 23.3991 34.0302 23.339 34.0124C23.2789 33.9947 23.2143 34.0007 23.1585 34.0291H23.1611Z" fill="white"/>
<path d="M34.2236 34.7835L34.2887 35.0326C34.3115 35.1221 34.3643 35.1999 34.4574 35.1999C34.5506 35.1999 34.6033 35.1214 34.6248 35.0326L34.69 34.7828C35.0241 34.7828 35.0736 34.7627 35.1322 34.4585H33.7806C33.8399 34.764 33.8933 34.7848 34.2236 34.7835Z" fill="white"/>
<path d="M39.0334 2.91006C39.0429 2.91782 39.0519 2.92627 39.0601 2.93536C39.5942 3.43484 40.0821 3.75593 40.5133 3.95572C40.5313 3.96128 40.5486 3.9689 40.5648 3.97843C41.1927 4.258 41.6975 4.28136 42.0499 4.23206C42.6857 4.14254 42.9964 3.80004 43.04 3.65733C43.3462 2.66875 42.9097 1.95197 41.7483 1.52709C40.5107 1.07302 38.3872 1.0328 37.4603 1.03799C37.9188 1.71413 38.4459 2.34146 39.0334 2.91006Z" fill="white"/>
<path d="M42.0858 15.2076H42.0904C42.3121 15.2479 42.5407 15.2291 42.7528 15.1531C43.2635 14.9624 43.524 14.4396 43.5996 14.2651C43.3547 13.281 43.5605 12.1711 43.6504 11.7722C42.9181 11.6865 42.1973 11.5216 41.5009 11.2805C41.3133 11.7631 40.8554 13.091 41.0742 14.0873C41.11 14.2559 41.1685 14.4189 41.2481 14.5719H42.078V15.205L42.0858 15.2076Z" fill="white"/>
<path d="M42.6088 20.0304C43.2413 20.118 44.0477 19.7832 44.2301 18.5495C44.4001 17.402 43.8119 15.4404 43.6888 15.0466C43.4885 15.298 43.2252 15.4922 42.9254 15.6097C42.7316 15.6816 42.5264 15.7183 42.3196 15.718C42.2434 15.718 42.0923 15.7018 42.0923 15.7018L42.0962 19.7599C42.2289 19.9085 42.4109 20.0045 42.6088 20.0304Z" fill="white"/>
<path d="M43.8012 50.4739C42.3682 51.6927 35.6857 54.711 35.4636 52.6956C35.4825 51.9911 37.5031 52.2701 38.0808 52.2701C39.2351 52.2701 39.2351 50.5186 38.0808 50.5186C35.9219 50.9449 33.7338 51.2092 31.5352 51.3094V53.4403C32.8502 53.3816 34.1615 53.2558 35.4636 53.0634V54.8226C35.4636 57.1636 43.6351 53.4714 45.2193 52.1267L43.1909 52.3927L43.8012 50.4739Z" fill="white"/>
<path d="M46.0086 11.4195C45.3332 10.7877 44.8655 10.1221 44.801 9.31584C44.1601 8.98547 43.582 8.54646 43.0924 8.01849C42.0463 6.86256 41.8548 5.34531 41.8203 4.73945C41.7988 4.73945 41.7773 4.73945 41.7552 4.73945C41.3074 4.7332 40.8654 4.63723 40.4557 4.45728C39.588 5.05341 39.0682 5.92652 38.9979 6.93391C38.9139 8.10866 39.4395 9.30416 40.4022 10.1319C41.7343 11.2742 44.5554 11.4247 46.0086 11.4195Z" fill="white"/>
<path d="M45.483 15.6361C45.8602 15.7146 46.1344 15.6309 46.2595 15.5355C46.6868 15.2021 46.7474 14.8259 46.7545 14.7091C46.1572 13.7822 45.8817 12.4122 45.7964 11.9082C45.3267 11.9082 44.7542 11.8867 44.1373 11.8284C44.0526 12.1916 43.7465 13.7056 44.2676 14.6702C44.6421 15.3688 45.1906 15.5751 45.483 15.6361Z" fill="white"/>
<path d="M44.6922 18.7289C44.8526 19.0711 45.1266 19.3476 45.468 19.5119C45.6927 19.6189 46.1969 19.6656 46.6177 19.4366C46.9753 19.242 47.1857 18.895 47.2456 18.4072C47.3674 17.4102 46.9786 16.1868 46.8007 15.6957C46.7265 15.776 46.6457 15.85 46.5591 15.9169C46.3637 16.0707 46.0842 16.1518 45.7774 16.1518C45.6461 16.1514 45.5152 16.1377 45.3866 16.1109C44.9972 16.0276 44.638 15.8401 44.3477 15.5686C44.5659 16.3879 44.8486 17.7092 44.7137 18.6206C44.7066 18.6582 44.6994 18.6926 44.6922 18.7289Z" fill="white"/>
<path d="M41.9159 1.07046C43.8902 1.79178 43.687 3.22016 43.5078 3.80072C43.4017 4.14063 42.9607 4.52918 42.3067 4.67578C42.3354 5.19472 42.5021 6.63543 43.4551 7.69017C43.8522 8.11976 44.315 8.48426 44.8262 8.77021C45.9134 8.69691 46.57 8.83508 46.7914 9.18731C46.9309 9.17721 47.066 9.1352 47.1865 9.06454C47.3069 8.99388 47.4094 8.89649 47.4858 8.77994C47.9945 8.00542 47.2904 7.55784 46.5016 7.62076C46.4357 7.62578 46.3705 7.60466 46.3203 7.56201C46.27 7.51935 46.2387 7.45862 46.2332 7.39308C46.2039 7.01684 47.9548 6.73727 48.3893 7.00387C48.8939 6.22159 49.1921 5.32511 49.2562 4.3975C47.2943 2.55095 45.0564 1.50161 42.5425 1.24949C42.6155 -0.0368289 40.363 -0.430574 37.7471 0.552815H37.751C38.8043 0.556059 40.7147 0.635197 41.9159 1.07046ZM44.44 2.96588C45.4568 2.96588 46.3101 3.37195 47.1757 4.04203L45.658 3.80267C45.5412 3.94997 45.3725 4.0475 45.1861 4.07549C44.9997 4.10348 44.8096 4.05983 44.6543 3.95339C44.499 3.84695 44.3902 3.68569 44.3499 3.50231C44.3097 3.31893 44.3409 3.12716 44.4374 2.96588H44.44Z" fill="white"/>
<path d="M46.293 11.9044C46.4102 12.5531 46.7835 14.2623 47.5579 14.911C48.1689 15.4209 48.7552 15.4124 49.0489 15.3606C49.428 15.2957 49.6547 15.1154 49.7329 14.9817C49.815 14.8419 49.8698 14.6878 49.8944 14.5277C48.7943 13.4898 47.5495 12.6926 46.562 11.894L46.293 11.9044Z" fill="white"/>
<path d="M48.7771 15.8699C48.331 15.8661 47.8956 15.7327 47.5245 15.4859C47.7011 16.0049 48.1824 17.2036 49.0077 17.7109C50.0636 18.3595 50.9508 17.7842 51.1924 17.4222C51.3878 17.1297 51.4654 16.7735 51.4927 16.4745C51.1545 15.915 50.7532 15.3957 50.2968 14.9268C50.259 15.0309 50.2121 15.1316 50.1567 15.2277C49.9783 15.5307 49.5959 15.7597 49.1341 15.8394C49.0162 15.8599 48.8968 15.8701 48.7771 15.8699Z" fill="white"/>
<path d="M48.1642 27.1466C48.3929 28.3739 48.7234 29.5802 49.1523 30.7532C49.7522 32.3489 50.9306 34.5979 52.9889 34.0575L48.4228 26.9714C48.3381 27.0298 48.2521 27.0888 48.1642 27.1466Z" fill="white"/>
<path d="M56.4072 35.4095L50.0426 25.5315C49.6782 25.9439 49.2765 26.3221 48.8428 26.6615L53.9431 34.5999C54.2314 34.9575 54.6175 35.2243 55.0548 35.3679C55.4921 35.5116 55.9618 35.526 56.4072 35.4095Z" fill="white"/>
<path d="M56.604 36.1609C55.9252 36.3388 55.2063 36.2866 54.5606 36.0124C52.1375 36.9893 48.8285 34.7377 47.376 27.5011L45.6303 28.2996C45.6733 29.5094 45.5651 31.3426 44.7398 32.3033C44.3295 32.7813 43.9035 32.9876 44.0553 32.6367C44.6809 31.204 44.9577 29.6444 44.863 28.0849C44.8575 28.0091 44.8756 27.9335 44.9147 27.8683C44.9539 27.8031 45.0122 27.7515 45.0818 27.7204C46.2081 27.2053 47.2965 26.796 48.2827 26.0338C50.6609 24.1851 51.3402 21.6715 52.3701 18.7285C52.2578 18.1863 52.0829 17.6589 51.849 17.1567C51.7897 17.3471 51.7043 17.5283 51.5949 17.6951C51.3201 18.1051 50.7097 18.4917 49.9724 18.4917C49.5384 18.4872 49.1144 18.3611 48.7491 18.1278C48.2833 17.8424 47.9199 17.389 47.6417 16.9316C47.7342 17.4246 47.787 17.9695 47.7251 18.4696C47.6267 19.2818 47.1929 19.6768 46.847 19.8662C46.5664 20.015 46.253 20.0919 45.9351 20.09C45.7008 20.0944 45.4683 20.0479 45.2538 19.9538C44.9614 19.8144 44.7052 19.61 44.5047 19.3564C44.153 20.1744 43.4729 20.5324 42.8007 20.5324C42.6222 20.5324 42.1773 20.4864 42.0712 20.3631V30.1295C42.0702 31.7527 41.7425 33.3593 41.1074 34.8541C40.4722 36.349 39.5425 37.7019 38.3733 38.8328C42.5056 40.9922 42.6255 46.8186 38.5036 44.8006C38.3238 44.6975 38.1223 44.6378 37.9152 44.6264C37.708 44.6149 37.5011 44.6521 37.311 44.7348C37.121 44.8175 36.953 44.9435 36.8207 45.1026C36.6885 45.2618 36.5955 45.4496 36.5494 45.651L36.9149 45.88C37.0385 45.6751 37.2086 45.5019 37.4116 45.3744C37.6146 45.2469 37.8448 45.1685 38.0838 45.1456C38.3227 45.1227 38.5637 45.1559 38.7874 45.2426C39.0111 45.3292 39.2113 45.4669 39.3719 45.6445C39.1928 45.5289 38.9884 45.4579 38.7759 45.4377C38.5634 45.4175 38.3492 45.4487 38.1514 45.5285C37.9536 45.6083 37.7781 45.7345 37.6397 45.8963C37.5013 46.0581 37.4042 46.2508 37.3565 46.458C37.4746 46.5409 37.597 46.6175 37.7232 46.6876C37.8466 46.4826 38.0166 46.3092 38.2195 46.1815C38.4225 46.0538 38.6526 45.9754 38.8916 45.9524C39.1305 45.9294 39.3715 45.9626 39.5952 46.0493C39.8189 46.136 40.0191 46.2737 40.1796 46.4515C40.0005 46.3356 39.7961 46.2646 39.5836 46.2443C39.3711 46.2241 39.1568 46.2553 38.959 46.3352C38.7612 46.4151 38.5857 46.5415 38.4474 46.7034C38.3091 46.8654 38.2122 47.0583 38.1649 47.2656C38.5352 47.5315 38.9563 47.7191 39.4022 47.817C39.848 47.9148 40.3093 47.9208 40.7576 47.8346C41.2059 47.7484 41.6318 47.5718 42.009 47.3156C42.3862 47.0595 42.7068 46.7292 42.9512 46.3451C43.1808 46.4464 43.4381 46.4669 43.681 46.4034C43.9238 46.3399 44.1378 46.196 44.2878 45.9955C46.0198 42.5276 45.2225 44.1318 46.0139 42.6223C42.8925 41.5274 43.3505 36.048 45.5261 34.8902C45.2043 35.2644 44.605 37.3052 44.6141 38.7439C44.6324 41.1894 47.6619 40.3286 48.314 43.8036C48.6553 45.6199 47.5766 47.3985 45.556 47.0612C45.3334 47.0086 45.1015 47.0088 44.8789 47.0618C44.6564 47.1148 44.4494 47.219 44.2747 47.3662C44.1 47.5133 43.9624 47.6993 43.8731 47.909C43.7837 48.1188 43.745 48.3466 43.7602 48.5739L44.2161 48.7037C44.2819 48.4484 44.4069 48.212 44.581 48.0135C44.7551 47.815 44.9735 47.6599 45.2186 47.5607C45.4638 47.4614 45.7289 47.4207 45.9927 47.4419C46.2565 47.4631 46.5116 47.5455 46.7376 47.6826C46.5119 47.6166 46.2734 47.6058 46.0426 47.6511C45.8117 47.6964 45.5952 47.7966 45.4116 47.943C45.2279 48.0895 45.0824 48.2779 44.9874 48.4923C44.8925 48.7067 44.8509 48.9408 44.8662 49.1746C45.0158 49.2257 45.168 49.269 45.3222 49.3043C45.3879 49.049 45.5128 48.8126 45.6869 48.614C45.8609 48.4154 46.0793 48.2602 46.3245 48.1609C46.5696 48.0616 46.8348 48.0208 47.0986 48.042C47.3624 48.0631 47.6176 48.1456 47.8437 48.2827C47.6179 48.2168 47.3796 48.206 47.1488 48.2514C46.918 48.2968 46.7017 48.397 46.5181 48.5434C46.3345 48.6898 46.189 48.8782 46.0941 49.0925C45.9992 49.3069 45.9576 49.5409 45.9729 49.7746C46.4484 49.9393 46.9528 50.0053 47.4549 49.9686C47.957 49.9319 48.4462 49.7933 48.8925 49.5613C49.3389 49.3293 49.7328 49.0089 50.0501 48.6196C50.3674 48.2304 50.6014 47.7806 50.7377 47.298C51.0126 47.3326 51.2912 47.2733 51.5278 47.1298C51.7644 46.9862 51.9452 46.767 52.0405 46.5079V40.2145C51.3683 40.2172 50.7047 40.064 50.1024 39.7669C49.5 39.4698 48.9755 39.0371 48.5703 38.503C48.1651 37.9689 47.8904 37.3482 47.768 36.69C47.6456 36.0318 47.6789 35.3543 47.8652 34.7111C50.5058 37.8163 54.3138 38.5934 56.7154 36.1778L56.6744 36.1389C56.6522 36.1473 56.6281 36.1544 56.604 36.1609Z" fill="white"/>
<path d="M57.406 30.8629L58.5602 32.6539C58.928 31.1957 58.9241 29.5474 58.5485 27.7091C57.9694 24.8731 52.309 15.4492 55.5522 15.4673C55.5533 15.751 55.6589 16.0245 55.849 16.2357C56.0392 16.447 56.3006 16.5814 56.5837 16.6134C56.8668 16.6454 57.1518 16.5728 57.3846 16.4094C57.6175 16.2459 57.782 16.003 57.847 15.7268C58.178 14.2051 58.0448 12.6195 57.4645 11.1737C56.8842 9.7279 55.8832 8.48778 54.5901 7.61255C55.1288 9.10904 53.9823 11.3152 53.6332 14.2413C52.8717 20.6353 57.8001 25.1144 57.406 30.8629Z" fill="white"/>
<path d="M51.5549 23.2168C51.2381 23.8766 50.8549 24.5028 50.4111 25.0856L56.9985 35.3399C57.3495 35.7756 57.8199 36.1006 58.3526 36.2756C58.8853 36.4506 59.4576 36.4681 60 36.3258L51.5549 23.2168Z" fill="white"/>
</svg>
