<svg width="104" height="40" viewBox="0 0 104 40" fill="none" xmlns="http://www.w3.org/2000/svg">
<rect x="1" y="1" width="102" height="38.0002" rx="3" fill="#167F16"/>
<rect x="1" y="1" width="102" height="38.0002" rx="3" stroke="#0F420F" stroke-width="2"/>
<path d="M24.176 22.8322C24.176 23.5042 24.0107 24.0909 23.68 24.5922C23.3493 25.0935 22.8693 25.4829 22.24 25.7602C21.6213 26.0269 20.864 26.1602 19.968 26.1602C19.5733 26.1602 19.184 26.1335 18.8 26.0802C18.4267 26.0269 18.064 25.9522 17.712 25.8562C17.3707 25.7495 17.0453 25.6215 16.736 25.4722V23.2162C17.28 23.4509 17.84 23.6695 18.416 23.8722C19.0027 24.0642 19.584 24.1602 20.16 24.1602C20.5547 24.1602 20.8693 24.1069 21.104 24.0002C21.3493 23.8935 21.5253 23.7495 21.632 23.5682C21.7493 23.3869 21.808 23.1789 21.808 22.9442C21.808 22.6562 21.7067 22.4109 21.504 22.2082C21.312 22.0055 21.0507 21.8189 20.72 21.6482C20.3893 21.4669 20.0107 21.2749 19.584 21.0722C19.3173 20.9442 19.0293 20.7949 18.72 20.6242C18.4107 20.4429 18.112 20.2242 17.824 19.9682C17.5467 19.7015 17.3173 19.3815 17.136 19.0082C16.9547 18.6349 16.864 18.1869 16.864 17.6642C16.864 16.9815 17.0187 16.4002 17.328 15.9202C17.648 15.4295 18.096 15.0562 18.672 14.8002C19.2587 14.5442 19.9467 14.4162 20.736 14.4162C21.3333 14.4162 21.8987 14.4855 22.432 14.6242C22.976 14.7629 23.5413 14.9602 24.128 15.2162L23.344 17.1042C22.8213 16.8909 22.352 16.7255 21.936 16.6082C21.52 16.4909 21.0933 16.4322 20.656 16.4322C20.3573 16.4322 20.1013 16.4802 19.888 16.5762C19.6747 16.6722 19.5093 16.8055 19.392 16.9762C19.2853 17.1469 19.232 17.3495 19.232 17.5842C19.232 17.8509 19.312 18.0802 19.472 18.2722C19.632 18.4535 19.872 18.6295 20.192 18.8002C20.512 18.9709 20.912 19.1735 21.392 19.4082C21.9787 19.6855 22.4747 19.9735 22.88 20.2722C23.296 20.5709 23.616 20.9229 23.84 21.3282C24.064 21.7335 24.176 22.2349 24.176 22.8322ZM29.7405 24.2562C30.0072 24.2562 30.2632 24.2295 30.5085 24.1762C30.7538 24.1229 30.9992 24.0589 31.2445 23.9842V25.7602C30.9885 25.8669 30.6685 25.9575 30.2845 26.0322C29.9112 26.1175 29.5005 26.1602 29.0525 26.1602C28.5298 26.1602 28.0605 26.0749 27.6445 25.9042C27.2392 25.7335 26.9138 25.4402 26.6685 25.0242C26.4338 24.5975 26.3165 24.0109 26.3165 23.2642V19.0562H25.1805V18.0482L26.4925 17.2482L27.1805 15.4082H28.7005V17.2642H31.1485V19.0562H28.7005V23.2642C28.7005 23.5949 28.7965 23.8455 28.9885 24.0162C29.1805 24.1762 29.4312 24.2562 29.7405 24.2562ZM36.582 17.0882C37.7553 17.0882 38.6513 17.3442 39.27 17.8562C39.8993 18.3575 40.214 19.1309 40.214 20.1762V26.0002H38.55L38.086 24.8162H38.022C37.7767 25.1255 37.5207 25.3815 37.254 25.5842C36.998 25.7869 36.6993 25.9309 36.358 26.0162C36.0273 26.1122 35.6167 26.1602 35.126 26.1602C34.614 26.1602 34.15 26.0642 33.734 25.8722C33.3287 25.6695 33.0087 25.3655 32.774 24.9602C32.5393 24.5442 32.422 24.0215 32.422 23.3922C32.422 22.4642 32.7473 21.7815 33.398 21.3442C34.0487 20.8962 35.0247 20.6509 36.326 20.6082L37.846 20.5602V20.1762C37.846 19.7175 37.7233 19.3815 37.478 19.1682C37.2433 18.9549 36.9127 18.8482 36.486 18.8482C36.0593 18.8482 35.6433 18.9122 35.238 19.0402C34.8327 19.1575 34.4273 19.3069 34.022 19.4882L33.238 17.8722C33.7073 17.6269 34.2247 17.4349 34.79 17.2962C35.366 17.1575 35.9633 17.0882 36.582 17.0882ZM36.918 21.9842C36.15 22.0055 35.6167 22.1442 35.318 22.4002C35.0193 22.6562 34.87 22.9922 34.87 23.4082C34.87 23.7709 34.9767 24.0322 35.19 24.1922C35.4033 24.3415 35.6807 24.4162 36.022 24.4162C36.534 24.4162 36.966 24.2669 37.318 23.9682C37.67 23.6589 37.846 23.2269 37.846 22.6722V21.9522L36.918 21.9842ZM47.5343 17.1042C47.6516 17.1042 47.7903 17.1095 47.9503 17.1202C48.1103 17.1309 48.2383 17.1469 48.3343 17.1682L48.1583 19.4082C48.0836 19.3869 47.9716 19.3709 47.8223 19.3602C47.6836 19.3389 47.5609 19.3282 47.4543 19.3282C47.1449 19.3282 46.8463 19.3709 46.5583 19.4562C46.2703 19.5309 46.0089 19.6535 45.7743 19.8242C45.5503 19.9949 45.3689 20.2242 45.2303 20.5122C45.1023 20.7895 45.0383 21.1362 45.0383 21.5522V26.0002H42.6543V17.2642H44.4623L44.8143 18.7362H44.9263C45.0969 18.4375 45.3103 18.1655 45.5663 17.9202C45.8223 17.6749 46.1156 17.4775 46.4463 17.3282C46.7876 17.1789 47.1503 17.1042 47.5343 17.1042ZM53.5999 24.2562C53.8665 24.2562 54.1225 24.2295 54.3679 24.1762C54.6132 24.1229 54.8585 24.0589 55.1039 23.9842V25.7602C54.8479 25.8669 54.5279 25.9575 54.1439 26.0322C53.7705 26.1175 53.3599 26.1602 52.9119 26.1602C52.3892 26.1602 51.9199 26.0749 51.5039 25.9042C51.0985 25.7335 50.7732 25.4402 50.5279 25.0242C50.2932 24.5975 50.1759 24.0109 50.1759 23.2642V19.0562H49.0399V18.0482L50.3519 17.2482L51.0399 15.4082H52.5599V17.2642H55.0079V19.0562H52.5599V23.2642C52.5599 23.5949 52.6559 23.8455 52.8479 24.0162C53.0399 24.1762 53.2905 24.2562 53.5999 24.2562Z" fill="white"/>
<path d="M74 14.0002L72.59 15.4102L77.17 20.0002L72.59 24.5902L74 26.0002L80 20.0002L74 14.0002Z" fill="white"/>
</svg>
